<svg width="846" height="633" viewBox="0 0 846 633" fill="none" xmlns="http://www.w3.org/2000/svg">
<path d="M637.379 349.281H214.345V575.119H637.379V349.281Z" fill="#E9E9EB"/>
<path fill-rule="evenodd" clip-rule="evenodd" d="M623.494 501.429H558.176V556.831H623.494V501.429ZM542.238 457.825H476.924V556.831H542.238V457.825ZM460.985 439.032H395.67V556.831H460.985V439.032ZM379.732 416.674H314.416V556.831H379.732V416.674ZM298.478 517.254H233.162V556.831H298.478V517.254Z" fill="#7D7D7D"/>
<path fill-rule="evenodd" clip-rule="evenodd" d="M607.642 427.775L610.852 420.487L632.49 445.183L598.038 449.58L601.426 441.887L413.755 372.634L396.378 400.15L364.67 385.724L300.367 532.736L256.943 513.453C247.717 527.222 240.056 539.187 234.008 546.984L220.3 538.245C227.056 529.536 235.843 515.501 246.638 499.605L250.627 493.732L291.467 511.868L355.835 364.708L389.716 380.122L406.494 353.553L607.642 427.775Z" fill="#000D6B"/>
<path fill-rule="evenodd" clip-rule="evenodd" d="M595.503 419.998L592.121 270.932L456.799 244.858L310.383 215.855C284.258 210.68 257.039 211.818 231.583 219.151L202.59 227.502L162.598 272.799C161.829 273.67 160.404 273.826 159.418 273.145C158.432 272.465 158.256 271.205 159.026 270.333L199.87 224.071L230.179 215.341C256.409 207.786 284.455 206.613 311.374 211.945C366.346 222.835 457.783 240.947 457.768 240.945L596.581 267.69L600.052 420.751L603.053 417.309C603.468 416.83 604.248 416.74 604.79 417.109C605.329 417.479 605.431 418.166 605.013 418.645L600.132 424.247L600.532 441.871C600.557 442.977 599.563 443.892 598.312 443.916C597.064 443.938 596.026 443.057 596.002 441.953L595.587 423.623L591.149 418.656C590.725 418.182 590.818 417.493 591.353 417.117C591.889 416.742 592.67 416.825 593.091 417.298L595.503 419.998Z" fill="black"/>
<path fill-rule="evenodd" clip-rule="evenodd" d="M283.135 262.541C283.135 262.541 243.71 271.395 212.868 278.321C204.544 280.19 197.695 285.29 194.477 292.014C191.26 298.738 192.071 306.258 196.654 312.206C206.845 325.428 217.14 338.787 217.14 338.787C217.14 338.787 212.001 339.894 212.324 342.682L271.417 345.107L250.233 315.689C250.233 315.689 300.711 314.038 314.017 308.772L388.275 344.121C388.275 344.121 379.298 345.077 378.576 348.454L422.417 349.293C422.417 349.293 434.75 341.66 439.838 338.51C440.354 338.191 440.67 337.692 440.695 337.162C440.717 336.631 440.445 336.129 439.957 335.803C425.801 326.302 342.235 270.548 325.55 267.092C325.55 267.092 309.452 257.497 283.135 262.541Z" fill="url(#paint0_linear_18_1504)"/>
<path fill-rule="evenodd" clip-rule="evenodd" d="M328.098 269.799C328.484 270.016 328.679 270.142 328.679 270.142C330.082 270.477 331.958 271.214 334.217 272.285C336.234 274.522 338.005 277.395 338.682 280.939C339.337 284.366 338.977 288.427 336.801 293.153L401.456 331.557L415.194 325.211L415.828 325.662C416.092 325.851 416.356 326.039 416.617 326.227L416.972 326.479L380.492 343.331C380.019 343.549 379.457 343.494 379.108 343.224C380.339 343.048 381.216 342.991 381.216 342.991L379.134 341.917C379.217 341.847 379.314 341.786 379.423 341.735L399.176 332.61L335.871 295.008C335.528 295.639 335.154 296.282 334.745 296.936C332.246 300.94 326.795 305.933 315.764 309.227L313.361 307.988C311.673 308.542 309.418 309.021 306.768 309.437C306.867 309.395 306.974 309.363 307.087 309.343C322.713 306.61 329.8 300.781 332.656 296.206C336.354 290.282 337.125 285.351 336.36 281.347C335.278 275.683 331.148 271.892 328.098 269.799ZM316.57 265.507C317.434 265.717 318.254 265.937 319.029 266.162C319.072 266.718 319.069 267.277 319.084 267.787C319.16 270.287 319.05 272.771 318.4 275.269C316.367 283.087 311.067 290.426 301.034 293.177C295.003 294.83 288.102 295.212 281.958 294.728C276.863 294.326 270.777 293.464 265.763 292.843C254.309 291.423 244.934 289.672 230.946 290.12C225.994 290.279 222.094 291.408 219.547 293.627C216.991 295.852 215.845 299.131 216.222 303.458C216.482 306.442 217.57 309.256 218.847 311.995C220.819 316.224 222.841 320.575 225.384 324.589L259.696 325.511L260.89 327.413L225.622 326.466C225.544 326.528 225.454 326.583 225.353 326.629C224.827 326.868 224.197 326.77 223.868 326.419L213.021 326.128L211.729 324.223L222.649 324.516C220.358 320.729 218.474 316.688 216.638 312.75C215.287 309.854 214.155 306.874 213.88 303.718C213.446 298.737 214.922 294.987 217.864 292.425C220.814 289.856 225.285 288.44 231.019 288.257C245.186 287.803 254.685 289.562 266.285 290.999C271.26 291.616 277.299 292.473 282.354 292.872C288.17 293.33 294.704 292.983 300.413 291.418C309.556 288.911 314.249 282.143 316.103 275.018C316.715 272.663 316.809 270.322 316.737 267.965C316.714 267.198 316.804 266.284 316.57 265.507Z" fill="#000D6B"/>
<path fill-rule="evenodd" clip-rule="evenodd" d="M249.449 320.729L249.802 321.331L249.751 321.341C249.654 321.136 249.554 320.932 249.449 320.729ZM248.314 318.796C243.629 311.658 234.212 305.49 229.174 302.522C228.784 302.294 228.646 301.851 228.841 301.455C229.036 301.059 229.512 300.814 229.989 300.864C242.715 302.642 254.633 314.154 258.411 318.124C252.179 318.241 247.985 318.235 247.985 318.235L248.314 318.796Z" fill="#711801"/>
<path d="M247.743 202.608C254.128 203.183 260.148 198.793 261.191 192.802C262.233 186.81 257.903 181.487 251.518 180.911C245.134 180.336 239.113 184.726 238.07 190.717C237.028 196.709 241.358 202.032 247.743 202.608Z" fill="#7D7D7D"/>
<path fill-rule="evenodd" clip-rule="evenodd" d="M246.285 181.342C247.991 180.646 249.869 180.333 251.786 180.504C257.974 181.057 262.244 186.452 261.315 192.545C260.606 197.194 257.074 200.914 252.691 202.171L250.714 195.744C251.16 195.818 251.648 195.782 252.139 195.616C253.637 195.112 254.598 193.598 254.282 192.237C253.967 190.876 252.495 190.18 250.997 190.684C250.385 190.89 249.862 191.265 249.48 191.729L246.285 181.342Z" fill="black"/>
<path fill-rule="evenodd" clip-rule="evenodd" d="M280.989 213.68C267.016 211.491 235.676 210.803 210.431 210.873C205.673 210.888 200.978 212.47 197.401 215.263C193.823 218.056 191.663 221.827 191.406 225.728C191.224 228.655 191.56 231.648 192.871 234.319C192.871 234.319 189.285 240.049 196.277 244.712C198.395 246.12 200.93 247.07 203.674 247.484C209.555 248.327 225.479 250.223 247.445 249.763C247.445 249.763 264.525 263.826 287.708 254.886C306.104 247.792 313.793 218.818 280.989 213.68Z" fill="url(#paint1_linear_18_1504)"/>
<path fill-rule="evenodd" clip-rule="evenodd" d="M192.189 238.184C195.528 239.994 201.596 242.374 209.357 242.975C224.961 244.183 267.363 247.464 267.363 247.464C268.022 247.515 268.435 247.868 268.285 248.252C268.134 248.636 267.477 248.906 266.817 248.855C266.817 248.855 224.415 245.574 208.811 244.365C201.888 243.83 195.844 241.902 191.619 239.001C191.9 238.488 192.189 238.184 192.189 238.184Z" fill="#000D6B"/>
<path fill-rule="evenodd" clip-rule="evenodd" d="M240.43 209.014C256.488 208.831 271.344 209.102 280.004 210.188C314.294 214.488 310.642 246.417 292.441 254.495C272.255 263.454 254.352 256.672 249.234 250.897C247.794 249.272 247.1 244.855 247.1 244.855L235.342 243.967L222.34 227.922L240.43 209.014Z" fill="#000D6B"/>
<path fill-rule="evenodd" clip-rule="evenodd" d="M247.555 245.771C247.555 245.771 260.413 245.988 267.466 246.293C267.785 246.306 268.04 246.508 268.07 246.769C268.1 247.031 267.895 247.275 267.586 247.347L249.692 251.534C248.244 249.967 247.555 245.771 247.555 245.771Z" fill="#711801"/>
<path fill-rule="evenodd" clip-rule="evenodd" d="M487.356 251.635C487.613 251.847 475.103 266.61 452.014 258.742C447.806 257.308 428.374 244.937 441.956 221.957C445.589 215.813 461.344 197.716 496.426 208.866C500.606 210.195 508.113 213.187 521.499 221.957C526.482 225.221 564.905 254.997 586.724 262.672C591.068 264.201 591.787 264.655 595.657 266.295C596.751 266.759 597.803 268.544 593.626 269.333C593.626 269.333 597.751 269.152 595.998 271.854C595.998 271.854 593.329 275.09 591.688 277.08C590.833 278.117 589.452 278.714 588.003 278.676C586.742 278.642 585.333 278.491 584.664 278.009C584.664 278.009 581.766 281.732 575.474 278.843C575.474 278.843 572.795 284.502 560.303 278.009C555.082 275.296 550.958 273.593 546.808 272.18V278.009L657.507 319.716C657.507 319.716 661.442 318.914 667.639 319.716L631.795 349.499L543.746 329.34V343.744C543.746 343.744 551.109 345.835 551.976 349.499H493.933V325.735C493.933 325.735 438.677 330.271 448.859 291.252C449.828 287.538 463.329 260.39 493.933 254.526L487.356 251.635Z" fill="url(#paint2_linear_18_1504)"/>
<path fill-rule="evenodd" clip-rule="evenodd" d="M547.768 305.919V305.918L610.939 326.659L624.131 307.142L626.432 308.008L612.85 328.099C612.847 328.209 612.819 328.321 612.776 328.43C612.674 328.672 612.485 328.864 612.252 328.988L602.863 342.875L600.364 342.303L609.645 328.571L547.62 308.205V308.205L547.694 307.074L547.768 305.919ZM447.84 296.504C448.738 299.739 451.082 302.729 455.002 303.374C459.784 304.16 465.169 301.539 469.104 299.426C474.217 296.68 477.921 292.972 481.386 289.063C484.972 285.017 488.3 280.754 492.552 277.034C494.584 275.256 497.361 273.354 500.322 272.517C502.461 271.913 504.691 271.851 506.846 272.682C509.608 273.749 511.85 275.95 513.535 278.593C515.947 282.382 517.217 287.067 517.421 290.246C518.369 305.15 517.948 318.859 517.619 333.699L543.746 333.765V335.956L493.933 335.83V333.639L515.142 333.693C515.467 318.896 515.895 305.229 514.947 290.369C514.761 287.449 513.591 283.148 511.377 279.667C509.974 277.463 508.159 275.579 505.855 274.69C503.858 273.919 501.771 274.249 499.842 275.028C497.724 275.883 495.788 277.284 494.296 278.59C490.118 282.245 486.857 286.439 483.337 290.414C479.689 294.528 475.768 298.408 470.39 301.298C465.989 303.662 459.898 306.407 454.547 305.527C451.55 305.034 449.236 303.468 447.632 301.406C447.564 299.868 447.629 298.236 447.84 296.504ZM546.808 278.009L549.081 278.866L547.644 307.682L546.105 329.88L543.746 329.34V332.125C543.585 331.926 543.498 331.679 543.517 331.417C543.517 331.417 546.768 287.963 546.777 275.397L546.78 275.309C546.79 275.192 546.799 275.075 546.808 274.961V278.009ZM490.453 252.997C491.372 252.842 492.868 252.602 494.779 252.336L486.096 245.724C485.579 245.329 485.52 244.637 485.966 244.179C486.412 243.721 487.195 243.67 487.712 244.064L497.628 251.614C497.748 251.705 497.841 251.811 497.912 251.927C502.684 251.348 508.933 250.78 515.232 250.762C524.116 250.736 533.072 251.846 538.317 255.381C540.956 257.16 549.081 262.755 549.332 273.078C548.487 272.763 547.647 272.465 546.808 272.18V272.233C546.142 263.456 539.125 258.682 536.815 257.123C531.923 253.825 523.528 252.928 515.238 252.952C505.097 252.982 495.079 254.463 491.403 255.068C492.233 254.871 493.075 254.691 493.933 254.526L490.453 252.997ZM547.62 308.205L547.644 307.682L547.768 305.919L547.694 307.074L547.62 308.205Z" fill="#CA2ACD"/>
<path fill-rule="evenodd" clip-rule="evenodd" d="M573.845 280.359L567.475 276.634C566.902 276.301 566.747 275.621 567.125 275.116C567.5 274.612 568.271 274.474 568.841 274.807L576.421 279.239C576.115 279.124 575.799 278.992 575.474 278.843C575.474 278.843 575.071 279.696 573.845 280.359ZM582.856 279.329L573.709 273.798C573.142 273.458 572.999 272.775 573.383 272.276C573.771 271.777 574.542 271.649 575.105 271.99L585.785 278.447C585.33 278.346 584.934 278.205 584.664 278.009C584.664 278.009 584.076 278.763 582.856 279.329ZM596.41 270.463C594.289 270.019 592.942 270.053 592.096 270.276C591.911 270.325 591.753 270.391 591.632 270.454L592.4 271.091C592.898 271.505 592.926 272.198 592.459 272.639C591.991 273.081 591.205 273.103 590.706 272.69L585.733 268.567C585.234 268.153 585.206 267.46 585.674 267.019C586.142 266.578 586.928 266.555 587.427 266.968L589.771 268.911C590.644 268.237 592.508 267.52 596.342 268.208C595.949 268.64 595.122 269.05 593.626 269.333C593.626 269.333 596.144 269.223 596.41 270.463Z" fill="#CA2ACD"/>
<path fill-rule="evenodd" clip-rule="evenodd" d="M487.532 251.713L487.356 251.635C487.613 251.847 475.103 266.61 452.014 258.742C447.806 257.308 428.374 244.937 441.956 221.957C445.589 215.813 461.344 197.716 496.426 208.866C499.665 209.895 504.895 211.921 513.306 216.856C514.368 220.644 514.222 227.089 503.022 230.48C503.022 230.48 509.051 244.065 490.985 246.214C490.985 246.214 489.908 248.773 487.532 251.713Z" fill="#CA2ACD"/>
<path fill-rule="evenodd" clip-rule="evenodd" d="M484.516 325.795L493.819 293C493.915 292.66 494.283 292.44 494.676 292.49C495.07 292.539 495.355 292.843 495.339 293.192L493.921 325.736C493.682 325.755 489.867 326.046 484.516 325.795ZM487.35 251.676C487.121 251.896 486.882 252.089 486.644 252.244C486.644 252.244 475.775 240.448 470.263 234.467C470.03 234.215 470.043 233.851 470.294 233.612C470.541 233.373 470.953 233.334 471.254 233.519C476.948 236.941 486.954 243.103 490.731 246.381C490.731 246.381 489.223 249.873 487.381 251.647L487.356 251.635C487.362 251.64 487.359 251.654 487.35 251.676Z" fill="#000D6B"/>
<path fill-rule="evenodd" clip-rule="evenodd" d="M435.261 191.711C435.026 191.807 435.345 191.258 435.354 191.029C435.373 190.602 435.379 190.175 435.391 189.748C435.425 188.509 435.37 187.27 435.379 186.03C435.401 183.495 434.772 176.284 438.129 175.043C439.801 174.425 440.25 177.169 440.275 178.088C440.371 181.638 437.584 184.349 437.008 187.663C436.98 187.827 437.138 187.349 437.209 187.195C437.358 186.876 437.5 186.555 437.655 186.239C438.095 185.342 438.537 184.447 438.996 183.557C440.442 180.748 441.848 177.729 443.991 175.264C444.498 174.678 445.988 173.097 447.013 173.788C448.536 174.817 446.468 177.73 445.793 178.714C444.31 180.871 442.39 182.763 440.789 184.848C439.163 186.96 437.853 189.307 436.193 191.379" fill="#CD2A9F"/>
<path d="M447.824 207.55C455.188 207.55 461.158 202.272 461.158 195.761C461.158 189.25 455.188 183.972 447.824 183.972C440.46 183.972 434.49 189.25 434.49 195.761C434.49 202.272 440.46 207.55 447.824 207.55Z" fill="#CD2A9F"/>
<path d="M419.101 202.777C428.49 202.777 436.102 196.047 436.102 187.745C436.102 179.443 428.49 172.713 419.101 172.713C409.711 172.713 402.099 179.443 402.099 187.745C402.099 196.047 409.711 202.777 419.101 202.777Z" fill="black"/>
<path fill-rule="evenodd" clip-rule="evenodd" d="M437.438 203.152C435.593 201.129 434.49 198.558 434.49 195.761C434.49 189.254 440.464 183.972 447.821 183.972C449.76 183.972 451.599 184.338 453.262 184.996C452.912 189.021 450.435 196.919 437.438 203.152Z" fill="black"/>
<path fill-rule="evenodd" clip-rule="evenodd" d="M441.662 367.149C441.662 367.149 435.875 366.365 439.931 361.335C441.099 359.889 445.976 357.921 448.865 363.897C448.865 363.897 454.238 361.645 455.588 367.619C455.588 367.619 460.604 365.474 462.326 371.498C462.326 371.498 467.417 370.925 468.089 377.105C469.092 386.324 469.925 392.947 470.538 400.29C470.538 400.29 472.071 414.382 483.426 423.097C483.426 423.097 490.276 402.949 515.164 409.531L538.348 417.635C538.348 417.635 551.466 413.695 557.761 421.796C562.177 418.845 569.302 413.599 571.238 412.017C572.191 411.236 574.136 410.596 575.167 411.086C576.031 411.496 576.613 412.98 575.598 413.974C575.598 413.974 577.747 412.383 579.512 413.714C580.196 414.229 580.76 415.286 579.852 417.131C579.852 417.131 582.073 415.335 583.702 416.553C584.34 417.027 585.473 418.221 583.974 420.244C583.974 420.244 586.374 418.541 587.935 419.885C588.628 420.482 589.207 421.714 585.101 426.246C583.987 427.472 582.85 428.688 581.692 429.893C571.058 441.091 553.522 445.03 538.135 439.672C528.256 436.25 519.158 433.082 519.158 433.082C519.158 433.082 531.759 453.315 531.672 465.028C531.598 475.462 526.473 486.302 511.823 489.453C508.429 490.187 504.895 490.272 501.461 489.7C491.865 488.106 470.541 482.102 472.978 460.322C472.978 460.322 454.742 449.775 442.712 432.63C433.441 419.439 431.1 403.343 436.293 388.509C438.953 380.889 442.021 371.06 441.662 367.149Z" fill="#99DDCC"/>
<path fill-rule="evenodd" clip-rule="evenodd" d="M573.758 430.073C573.758 430.073 584.101 420.072 583.974 420.244C583.974 420.244 585.646 419.056 587.108 419.445C587.095 419.458 587.086 419.469 587.074 419.48L575.136 431.174C574.793 431.511 574.204 431.535 573.823 431.231C573.442 430.93 573.415 430.41 573.758 430.073ZM569.082 427.349C569.082 427.349 579.868 417.098 579.852 417.131C579.852 417.131 581.667 415.664 583.222 416.282L570.445 428.466C570.098 428.797 569.51 428.819 569.132 428.51C568.757 428.201 568.736 427.68 569.082 427.349ZM575.638 413.947C575.895 413.769 577.372 412.822 578.812 413.334L566.128 425.432C565.778 425.767 565.19 425.786 564.815 425.476C564.437 425.17 564.416 424.649 564.766 424.315L575.638 413.947Z" fill="#4FC6A8"/>
<path fill-rule="evenodd" clip-rule="evenodd" d="M461.762 376.791C462.19 374.922 462.308 371.433 462.326 371.498C462.326 371.498 463.119 371.409 464.119 371.681C464.1 373.044 463.998 375.314 463.583 377.116C463.481 377.563 462.992 377.85 462.49 377.76C461.985 377.669 461.66 377.234 461.762 376.791ZM457.44 367.25C457.616 368.65 457.752 371.064 457.26 374.145C457.189 374.594 456.718 374.907 456.21 374.843C455.702 374.78 455.349 374.364 455.421 373.915C455.867 371.121 455.767 368.918 455.616 367.608C455.761 367.55 456.495 367.277 457.44 367.25ZM449.165 371.65C449.726 367.247 448.76 363.678 448.865 363.897C448.865 363.897 449.577 363.599 450.546 363.508C450.989 365.05 451.513 367.9 451.011 371.833C450.952 372.284 450.494 372.608 449.983 372.558C449.475 372.507 449.107 372.1 449.165 371.65ZM440.002 366.615C440.089 365.382 440.117 364.572 440.117 364.572C440.136 364.119 440.563 363.762 441.077 363.777C441.588 363.791 441.99 364.171 441.975 364.624C441.975 364.624 441.727 367.853 441.662 367.149C441.662 367.149 440.82 367.035 440.002 366.615Z" fill="#4FC6A8"/>
<path fill-rule="evenodd" clip-rule="evenodd" d="M470.501 399.833L470.538 400.29C470.538 400.29 472.071 414.382 483.426 423.097C483.426 423.097 490.276 402.949 515.164 409.531L533.056 415.787L537.568 439.475C527.913 436.13 519.158 433.082 519.158 433.082C519.158 433.082 531.759 453.315 531.672 465.028C531.598 475.462 526.473 486.302 511.822 489.453C508.429 490.187 504.895 490.272 501.461 489.7C491.865 488.106 470.541 482.102 472.978 460.322C472.978 460.322 454.742 449.775 442.712 432.63C435.896 422.93 432.824 411.661 433.741 400.476L470.501 399.833Z" fill="#4FC6A8"/>
<path fill-rule="evenodd" clip-rule="evenodd" d="M472.978 460.322C472.978 460.322 483.646 465.984 492.407 469.603C492.815 469.746 493.045 470.132 492.945 470.51C492.846 470.89 492.444 471.145 492.007 471.112C486.768 470.794 478.605 469.978 473.124 467.862C472.743 465.587 472.669 463.082 472.978 460.322ZM513.346 444.017C489.898 430.04 482.315 422.245 483.426 423.097C483.426 423.097 483.782 422.048 484.631 420.507C488.195 423.639 497.652 431.357 515.077 441.745C517.248 443.037 524.599 447.207 529.548 454.476C530.83 458.235 531.697 461.932 531.672 465.028C531.663 466.685 531.523 468.349 531.238 469.992C531.186 469.855 531.161 469.707 531.161 469.554C531.31 454.066 516.458 445.868 513.346 444.017ZM523.602 440.981C521.317 438.616 517.167 434.246 514.736 431.683C514.582 431.522 514.582 431.283 514.736 431.122C514.891 430.96 515.158 430.922 515.362 431.034L519.161 433.088C519.254 433.236 521.239 436.442 523.602 440.981Z" fill="#044743"/>
<path d="M551.85 475.138C559.604 475.138 565.89 469.581 565.89 462.725C565.89 455.869 559.604 450.311 551.85 450.311C544.096 450.311 537.81 455.869 537.81 462.725C537.81 469.581 544.096 475.138 551.85 475.138Z" fill="#99DDCC"/>
<path fill-rule="evenodd" clip-rule="evenodd" d="M556.166 450.912C561.805 452.522 565.89 457.206 565.89 462.726C565.89 469.576 559.6 475.139 551.849 475.139C546.768 475.139 542.312 472.746 539.847 469.165L548.821 465.195C548.654 465.839 548.71 466.556 549.032 467.235C549.79 468.837 551.732 469.647 553.364 469.042C554.999 468.437 555.711 466.646 554.952 465.045C554.571 464.237 553.884 463.632 553.091 463.306L558.151 461.067L556.166 450.912Z" fill="black"/>
<path fill-rule="evenodd" clip-rule="evenodd" d="M489.939 497.174C489.939 497.174 492.908 496.514 497.039 495.594C511.844 492.295 527.324 498.091 534.954 509.782C540.615 518.464 539.457 529.358 532.065 536.953C529.071 540.031 526.714 542.454 526.714 542.454C526.714 542.454 531.415 542.369 536.887 542.268C546.065 542.101 554.138 547.607 556.287 555.5C556.47 556.223 556.671 556.946 556.885 557.663C558.498 563.024 562.127 567.739 567.175 571.03C569.061 572.264 570.81 573.811 571.2 575.457C571.2 575.457 484.448 575.361 443.647 575.314C435.463 575.306 427.99 571.208 424.343 564.732C420.698 558.254 421.503 550.514 426.427 544.735C426.427 544.735 395.089 516.356 396.395 483.309C397.105 465.36 415.573 455.038 429.186 460.346C452.324 469.365 471.207 483.115 489.939 497.174Z" fill="url(#paint3_linear_18_1504)"/>
<path fill-rule="evenodd" clip-rule="evenodd" d="M446.815 521.131C446.815 521.131 431.446 508.309 420.401 499.091C419.949 498.716 419.246 498.707 418.784 499.077C418.326 499.447 418.264 500.065 418.642 500.498C428.068 511.283 441.284 526.404 441.284 526.404L446.815 521.131Z" fill="#044743"/>
<path fill-rule="evenodd" clip-rule="evenodd" d="M526.714 542.454L530.978 542.377C528.907 543.968 526.049 546.06 522.481 548.414L522.59 575.402L519.493 575.399L519.394 550.405C510.445 556.031 497.95 562.695 482.792 567.706C481.99 567.971 481.098 567.613 480.797 566.904C480.5 566.197 480.906 565.406 481.708 565.143C504.366 557.652 520.942 546.397 528.368 540.751L526.714 542.454ZM487.972 495.701C488.629 496.191 489.282 496.684 489.939 497.174L494.19 496.23C487.471 498.713 442.071 516.512 422.977 550.78C423.699 548.633 424.851 546.583 426.427 544.735C426.427 544.735 425.684 544.061 424.432 542.802C442.529 516.767 474.743 501.246 487.972 495.701Z" fill="#4FC6A8"/>
<path fill-rule="evenodd" clip-rule="evenodd" d="M146.296 562.958C143.119 561.003 152.339 544.431 166.873 525.974C181.407 507.521 195.786 494.124 198.963 496.082C198.979 496.09 198.995 496.101 199.011 496.112L214.725 506.379C217.903 508.334 208.683 524.907 194.149 543.363C179.615 561.817 165.236 575.213 162.059 573.256C162.042 573.247 162.027 573.236 162.011 573.226L146.296 562.958Z" fill="#CA2ACD"/>
<path fill-rule="evenodd" clip-rule="evenodd" d="M196.989 496.137L197.06 496.112L197.13 496.09L197.199 496.068L197.204 496.066L197.268 496.046H197.274L197.335 496.027L197.343 496.024L197.402 496.008H197.412L197.468 495.992L197.478 495.989L197.533 495.978L197.545 495.975L197.596 495.962L197.61 495.959L197.66 495.951L197.674 495.948L197.722 495.937L197.737 495.934L197.783 495.926L197.799 495.923L197.843 495.918L197.86 495.915L197.902 495.909H197.92L197.961 495.904L197.979 495.901L198.018 495.899H198.037L198.075 495.896L198.095 495.893H198.13H198.151L198.185 495.89H198.206H198.238L198.26 495.893H198.291H198.313L198.343 495.896L198.365 495.899L198.393 495.901L198.416 495.904L198.443 495.907L198.466 495.909L198.492 495.912L198.515 495.918L198.54 495.92L198.563 495.926L198.587 495.931L198.609 495.937L198.633 495.942L198.677 495.956L198.721 495.97L198.764 495.983L198.806 496L198.826 496.008L198.847 496.019L198.867 496.027L198.886 496.038L198.906 496.049L198.925 496.057L198.944 496.068L198.963 496.082L200.33 496.975L200.331 496.988C200.454 498.072 200.191 499.628 199.527 501.561C198.956 503.222 198.088 505.191 196.955 507.409L212.171 516.657C211.836 517.301 211.476 517.969 211.092 518.659L195.891 509.418C195.556 510.032 195.204 510.661 194.835 511.305L209.618 521.222C209.24 521.86 208.846 522.511 208.435 523.179L193.677 513.276C191.172 517.457 188.04 522.15 184.421 527.089L198.635 537.501C198.183 538.109 197.724 538.722 197.258 539.338L183.055 528.934C181.883 530.5 180.664 532.088 179.403 533.69C175.159 539.078 170.903 544.026 166.911 548.281L181.284 558.433L181.3 558.444C180.766 559.019 180.238 559.58 179.716 560.128L165.344 549.978C165.335 549.973 165.326 549.964 165.317 549.959C164.454 550.854 163.607 551.714 162.777 552.535L176.89 562.969C176.901 562.978 176.911 562.983 176.921 562.991C176.358 563.555 175.804 564.097 175.262 564.62L161.11 554.159C157.765 557.362 154.759 559.878 152.306 561.524C150.485 562.748 148.926 563.503 147.732 563.78C147.687 563.791 147.642 563.799 147.597 563.81L146.296 562.959L146.278 562.948L146.26 562.937L146.242 562.923L146.224 562.912L146.207 562.898L146.19 562.885L146.173 562.871L146.156 562.857L146.124 562.827L146.093 562.797L146.064 562.767L146.034 562.734L146.02 562.715L146.007 562.698L145.993 562.682L145.98 562.663L145.967 562.644L145.955 562.627L145.942 562.608L145.93 562.589L145.918 562.567L145.907 562.551L145.895 562.526L145.885 562.509L145.873 562.485L145.864 562.468L145.852 562.441L145.844 562.425L145.832 562.397L145.825 562.381L145.814 562.351L145.807 562.334L145.797 562.304L145.791 562.288L145.78 562.255L145.775 562.238L145.766 562.206L145.761 562.189L145.751 562.154L145.747 562.14L145.739 562.102L145.735 562.088L145.727 562.05L145.724 562.033L145.716 561.995L145.714 561.978L145.706 561.937L145.705 561.924L145.698 561.88L145.697 561.869L145.691 561.82L145.689 561.809L145.684 561.759L145.684 561.751L145.68 561.699L145.679 561.691L145.675 561.636L145.675 561.628L145.672 561.57L145.672 561.565L145.671 561.507V561.502L145.67 561.436L145.67 561.371L145.672 561.302C145.714 559.848 146.182 559.829 146.172 560.689C146.169 560.957 146.19 561.195 146.247 561.395C146.282 561.521 146.308 561.633 146.403 561.691C146.497 561.748 146.624 561.732 146.77 561.718C147.003 561.694 147.262 561.631 147.546 561.535C148.453 561.228 149.547 560.626 150.808 559.78C157.174 555.509 167.292 545.236 177.37 532.439C187.448 519.642 194.835 507.685 197.156 500.925C197.616 499.586 197.874 498.469 197.884 497.612C197.888 497.344 197.866 497.106 197.809 496.903C197.774 496.777 197.748 496.668 197.654 496.61C197.56 496.55 197.432 496.569 197.287 496.583C197.053 496.605 196.795 496.671 196.51 496.766C195.604 497.073 195.462 496.676 196.989 496.137Z" fill="#000D6B"/>
<path fill-rule="evenodd" clip-rule="evenodd" d="M593.992 540.305C591.7 539.965 589.951 538.202 589.951 536.08V527.51C589.951 525.145 592.121 523.223 594.797 523.223H664.059C666.735 523.223 668.909 525.145 668.909 527.51V536.08C668.909 538.202 667.159 539.965 664.868 540.305C667.159 540.647 668.909 542.41 668.909 544.532V553.102C668.909 555.098 667.36 556.779 665.267 557.252C667.308 557.759 668.803 559.415 668.803 561.378V569.951C668.803 572.314 666.633 574.236 663.957 574.236H594.695C592.019 574.236 589.848 572.314 589.848 569.951V561.378C589.848 559.383 591.394 557.704 593.487 557.228C591.446 556.721 589.951 555.065 589.951 553.102V544.532C589.951 542.41 591.7 540.647 593.992 540.305Z" fill="#CA2ACD"/>
<path fill-rule="evenodd" clip-rule="evenodd" d="M657.786 538.199H668.274C667.565 539.297 666.326 540.088 664.868 540.305C665.016 540.327 665.165 540.357 665.31 540.39H663.787V555.081H668.361C667.732 556.144 666.611 556.949 665.267 557.252C665.292 557.258 665.313 557.263 665.335 557.272H657.256V574.236H654.779V557.272H631.266V574.236H628.789V557.272H608.744V574.236H606.267V557.272H603.743V574.236H601.266V557.272H593.314C593.372 557.255 593.428 557.241 593.487 557.228C592.19 556.905 591.109 556.119 590.499 555.081H595.494V540.39H593.549C593.691 540.357 593.84 540.327 593.992 540.305C592.533 540.088 591.295 539.297 590.585 538.199H604.118V523.223H606.595V538.199H611.897V523.223H614.374V538.199H626.844V523.223H629.321V538.199H655.308V523.223H657.786V538.199ZM597.971 540.39V555.081H620.273V540.39H597.971ZM622.75 540.39V555.081H636.97V540.39H622.75ZM639.447 540.39V555.081H643.114V540.39H639.447ZM645.591 540.39V555.081H661.31V540.39H645.591Z" fill="#000D6B"/>
<path fill-rule="evenodd" clip-rule="evenodd" d="M679.778 500.813C692.932 496.911 710.397 506.653 719.857 523.631C729.476 540.893 727.345 559.396 715.312 565.964L715.37 566.074L702.575 571.95C702.197 572.147 701.81 572.333 701.414 572.505C701.247 572.577 701.076 572.648 700.909 572.716L700.395 572.952L700.377 572.922C687.104 577.809 668.856 567.996 659.105 550.498C649.099 532.54 651.809 513.243 665.152 507.43C665.152 507.43 676.706 501.993 677.548 501.626C678.201 501.341 678.867 501.095 679.545 500.884L679.762 500.786L679.778 500.813Z" fill="#CA2ACD"/>
<path d="M712.503 560.619C722.88 556.267 724.547 540.555 716.227 525.527C707.906 510.498 692.749 501.842 682.372 506.194C671.995 510.546 670.328 526.257 678.649 541.286C686.969 556.315 702.126 564.97 712.503 560.619Z" fill="#000D6B"/>
<path fill-rule="evenodd" clip-rule="evenodd" d="M685.615 499.959L685.804 499.956C684.026 500.268 682.295 500.777 680.639 501.5C675.031 503.942 671.101 508.432 668.989 514.018C665.747 522.596 666.769 533.723 672.612 544.209C678.455 554.698 687.81 562.197 697.481 565.148C703.774 567.071 710.196 567.054 715.804 564.612C717.464 563.886 718.975 562.986 720.337 561.929L720.291 561.978L720.248 562.03L720.204 562.079L720.13 562.161L720.09 562.208L720.037 562.263L720 562.304L719.991 562.315L719.919 562.389L719.879 562.432L719.817 562.498L719.796 562.523L719.771 562.545L719.706 562.616L719.669 562.654L719.585 562.739L719.554 562.769L719.486 562.838L719.452 562.873L719.365 562.958L719.334 562.988L719.263 563.057L719.232 563.087L719.142 563.174L719.111 563.205L719.034 563.276L719.009 563.298L718.916 563.385L718.885 563.413L718.795 563.495L718.786 563.506L718.777 563.511L718.684 563.593L718.653 563.621L718.557 563.708L718.535 563.725L718.449 563.799L718.421 563.823L718.322 563.908L718.297 563.93L718.207 564.001L718.185 564.023L718.08 564.108L718.055 564.127L717.962 564.204L717.944 564.218L717.838 564.3L717.811 564.322L717.705 564.407L717.699 564.409L717.591 564.491L717.563 564.513L717.455 564.595L717.439 564.606L717.34 564.68L717.312 564.697L717.204 564.779L717.179 564.793L717.083 564.864L717.061 564.88L716.947 564.957L716.922 564.976L716.817 565.047L716.804 565.055L716.687 565.135L716.662 565.151L716.544 565.228L716.423 565.305L716.395 565.324L716.278 565.398L716.265 565.406L716.157 565.474L716.129 565.491L716.011 565.562L715.99 565.576L715.881 565.639L715.86 565.652L715.739 565.723L715.714 565.74L715.603 565.803L715.587 565.811L715.463 565.88L715.436 565.896L715.312 565.964L715.37 566.074L710.202 568.448C708.1 568.741 705.941 568.79 703.761 568.606C703.752 568.612 703.739 568.617 703.727 568.623L692.409 574.164C691.037 574.123 689.644 573.967 688.241 573.702L699.825 568.029C698.772 567.81 697.72 567.539 696.67 567.218C693.016 566.101 689.399 564.376 685.977 562.112L675.254 568.201C674.566 567.747 673.882 567.268 673.204 566.764L683.927 560.675C683.131 560.083 682.348 559.462 681.58 558.813L670.596 564.672C669.995 564.155 669.401 563.618 668.819 563.065L679.784 557.211C676.17 553.827 672.956 549.781 670.392 545.178C669.785 544.088 669.228 542.993 668.72 541.893L657.34 547.04C657.024 546.355 656.723 545.671 656.442 544.986L667.828 539.836C666.088 535.538 665.087 531.217 664.793 527.069L653.153 531.379C653.097 530.59 653.069 529.81 653.066 529.038L664.7 524.729C664.672 521.369 665.118 518.149 666.013 515.179L654.497 519.562C654.822 518.585 655.203 517.643 655.639 516.742L666.747 512.515L666.862 512.753C668.23 509.366 670.231 506.371 672.823 503.942C672.823 503.942 676.424 502.135 677.443 501.672L677.548 501.626C678.202 501.341 678.867 501.095 679.545 500.884L679.762 500.785L679.778 500.813L679.917 500.772L679.939 500.766L680.075 500.728L680.1 500.72L680.236 500.684L680.252 500.679L680.385 500.643L680.403 500.638L680.54 500.605L680.564 500.597L680.701 500.564L680.722 500.558L680.858 500.525L680.868 500.523L681.007 500.49L681.032 500.484L681.171 500.454L681.193 500.449L681.335 500.419H681.338L681.484 500.388L681.503 500.383L681.642 500.356L681.667 500.353L681.809 500.325L681.822 500.323L681.964 500.295H681.973L682.119 500.268L682.14 500.265L682.286 500.241L682.302 500.238L682.45 500.213L682.602 500.191L682.617 500.189L682.766 500.169L682.781 500.167L682.933 500.145L683.088 500.126H683.097L683.246 500.106L683.265 500.104L683.413 500.087H683.426L683.577 500.071H683.58L683.732 500.057L683.751 500.054L683.896 500.041L683.918 500.038L684.07 500.027L684.215 500.016L684.24 500.013L684.382 500.005L684.413 500.002L684.553 499.994L684.581 499.991L684.67 499.989L684.804 499.98L684.853 499.978L685.014 499.972H685.033L685.222 499.964L685.414 499.961H685.417L685.606 499.959H685.615Z" fill="#000D6B"/>
<path d="M693.96 544.368C698.285 545.966 702.357 546.152 706.289 545.015C710.909 543.544 712.174 541.11 710.236 537.666C708.574 534.883 706.02 533.675 702.574 534.043C700.998 534.276 699.323 534.539 697.466 534.795C694.101 535.2 691.03 534.709 688.332 533.359C685.552 531.972 683.372 529.906 681.742 527.175C679.797 523.92 679.23 520.989 680.138 518.353C680.947 515.748 683.202 513.881 686.821 512.715C691.335 511.462 695.969 511.601 700.694 513.077L700.484 518.666C696.736 517.636 693.19 517.538 689.958 518.462C688.308 518.965 687.158 519.813 686.591 521.041C685.974 522.284 686.189 523.832 687.205 525.633C687.864 526.736 688.829 527.559 690.162 528.208C691.495 528.856 693.14 529.037 695.11 528.871C696.154 528.739 697.63 528.537 699.456 528.228C703.089 527.679 706.292 528.192 709.115 529.752C711.857 531.274 714.037 533.341 715.637 536.019C719.752 543.206 717.715 548.11 709.626 550.701C704.375 552.303 698.789 551.958 692.95 549.704L693.96 544.368Z" fill="#CA2ACD"/>
<path fill-rule="evenodd" clip-rule="evenodd" d="M684.89 508.631L707.49 555.333L712.803 553.941L689.402 507.449L684.89 508.631Z" fill="#CA2ACD"/>
<defs>
<linearGradient id="paint0_linear_18_1504" x1="325.49" y1="361.485" x2="290.517" y2="224.607" gradientUnits="userSpaceOnUse">
<stop stop-color="#CA2ACD"/>
<stop offset="0.59" stop-color="#CA2ACD"/>
<stop offset="0.8" stop-color="#CA2ACD"/>
<stop offset="1" stop-color="#CA2ACD"/>
</linearGradient>
<linearGradient id="paint1_linear_18_1504" x1="246.761" y1="233.255" x2="171.658" y2="154.841" gradientUnits="userSpaceOnUse">
<stop stop-color="#CA2ACD"/>
<stop offset="1" stop-color="#FFA396"/>
</linearGradient>
<linearGradient id="paint2_linear_18_1504" x1="552.422" y1="277.405" x2="571.786" y2="397.963" gradientUnits="userSpaceOnUse">
<stop stop-color="#000D6B"/>
<stop offset="1" stop-color="#000D6B"/>
</linearGradient>
<linearGradient id="paint3_linear_18_1504" x1="457.573" y1="541.622" x2="394.08" y2="421.597" gradientUnits="userSpaceOnUse">
<stop stop-color="#99DDCC"/>
<stop offset="0.58" stop-color="#B9D5D1"/>
<stop offset="0.8" stop-color="#DDE3DC"/>
<stop offset="1" stop-color="#FFF0E6"/>
</linearGradient>
</defs>
</svg>
