<svg width="966" height="786" viewBox="0 0 966 786" fill="none" xmlns="http://www.w3.org/2000/svg">
<path fill-rule="evenodd" clip-rule="evenodd" d="M368.216 444.582C368.216 444.582 305.431 437.734 281.119 481.795C272.937 496.621 212.298 634.104 205.87 688.286C205.87 688.286 191.267 692.77 189.239 700.049H275.262C276.173 700.049 276.996 699.516 277.347 698.699C283.624 684.118 338.705 556.149 338.705 556.149C338.705 556.149 345.788 672.149 347.234 695.85C347.379 698.208 349.391 700.049 351.823 700.049C368.131 700.049 424.931 700.049 424.931 700.049C424.931 700.049 422.916 692.402 408.164 688.286C408.164 688.286 416.141 507.838 393.996 462.658L368.216 444.582Z" fill="url(#paint0_linear_18_1687)"/>
<path fill-rule="evenodd" clip-rule="evenodd" d="M326.51 584.481L334.275 508.411C334.328 507.882 334.791 507.484 335.339 507.498C335.884 507.511 336.326 507.934 336.351 508.466L338.564 556.478L326.51 584.481Z" fill="#CA2ACD"/>
<path fill-rule="evenodd" clip-rule="evenodd" d="M409.561 618.76C409.561 619.913 409.557 621.057 409.554 622.193H342.736L342.528 618.76H409.561ZM224.735 618.76H311.756L310.278 622.193H223.548L223.567 622.138C223.942 621.046 224.32 619.958 224.699 618.866L224.735 618.76Z" fill="#CA2ACD"/>
<path d="M320.076 338.924C332.837 338.924 343.182 328.879 343.182 316.488C343.182 304.097 332.837 294.051 320.076 294.051C307.315 294.051 296.97 304.097 296.97 316.488C296.97 328.879 307.315 338.924 320.076 338.924Z" fill="#EAEAEB"/>
<path fill-rule="evenodd" clip-rule="evenodd" d="M318.371 294.112C319.538 298.685 321.224 310.217 312.445 320.407C311.515 318.943 309.83 317.965 307.909 317.965C304.981 317.965 302.605 320.237 302.605 323.035C302.605 325.834 304.981 328.106 307.909 328.106C308.416 328.106 308.906 328.038 309.37 327.911C309.436 329.678 308.966 332.148 306.734 334.802C300.829 330.737 296.971 324.047 296.971 316.488C296.971 304.662 306.414 294.961 318.371 294.112Z" fill="black"/>
<path fill-rule="evenodd" clip-rule="evenodd" d="M301.086 327.84C300.43 328.215 298.775 328.158 298.023 328.305C295.555 328.785 293.101 329.343 290.657 329.929C283.101 331.742 275.652 333.924 268.602 337.165C263.474 339.523 258.104 342.508 255.677 347.734C252.15 355.33 258.419 362.147 266.569 361.434C274.429 360.746 280.598 355.216 285.836 350.016C291.963 343.932 298.96 337.374 303.658 330.112" fill="black"/>
<path fill-rule="evenodd" clip-rule="evenodd" d="M274.117 378.271C270.206 382.317 235.802 418.839 209.952 447.016C201.279 456.546 200.494 470.616 208.054 481.002C208.053 481.006 208.054 481.006 208.054 481.006C214.694 490.128 226.714 493.936 237.617 490.372C249.432 486.506 265.567 477.579 284.344 457.58C293.883 447.42 301.465 438.143 307.722 432.464C307.722 432.464 335.173 441.039 349.292 426.341C349.292 426.341 383.759 469.106 417.117 486.152C430.309 492.813 446.563 488.343 454.197 475.952C457.751 470.232 459.243 463.344 455.244 455.866C437.734 423.113 410.239 398.33 368.215 359.096C360.058 351.478 345.795 340.597 318.169 346.806C307.76 349.146 295.073 356.59 274.117 378.271Z" fill="#EAEAEB"/>
<path fill-rule="evenodd" clip-rule="evenodd" d="M334.593 405.194C334.593 405.194 335.498 404.967 336.566 405.061C337.471 405.14 338.542 405.451 339.094 406.557C339.833 408.045 338.716 409.273 337.011 410.528C333.557 413.073 327.472 415.3 322.083 417.43C321.358 417.716 321.012 418.518 321.305 419.22C321.598 419.922 322.426 420.26 323.147 419.974C328.78 417.749 335.113 415.376 338.723 412.716C341.735 410.497 342.948 407.995 341.64 405.363C340.572 403.216 338.578 402.48 336.82 402.325C335.226 402.186 333.872 402.538 333.872 402.538C333.115 402.732 332.666 403.484 332.864 404.217C333.065 404.95 333.84 405.388 334.593 405.194Z" fill="#CA2ACD"/>
<path fill-rule="evenodd" clip-rule="evenodd" d="M345.547 399.582C345.547 399.582 347.23 397.997 349.521 396.733C350.953 395.943 352.629 395.257 354.273 395.266C354.945 395.267 355.578 395.55 356.013 396.041C356.448 396.533 356.639 397.184 356.536 397.824C356.26 399.366 355.504 401.459 353.552 403.457C350.868 406.205 344.076 414.503 322.443 417.163C321.669 417.258 321.121 417.946 321.22 418.698C321.319 419.45 322.026 419.983 322.801 419.888C345.632 417.08 352.771 408.249 355.606 405.347C358.046 402.851 358.976 400.23 359.33 398.268C359.559 396.809 359.132 395.353 358.163 394.254C357.19 393.155 355.776 392.521 354.284 392.519C352.162 392.509 349.974 393.324 348.124 394.344C345.497 395.793 343.574 397.612 343.574 397.612C343.015 398.141 343.001 399.011 343.546 399.555C344.09 400.098 344.985 400.11 345.547 399.582Z" fill="#CA2ACD"/>
<path fill-rule="evenodd" clip-rule="evenodd" d="M349.224 408.582C349.224 408.582 345.6 417.564 342.022 421.035C341.47 421.571 341.47 422.442 342.022 422.978C342.573 423.514 343.471 423.514 344.023 422.978C347.877 419.237 351.855 409.594 351.855 409.594C352.141 408.889 351.788 408.09 351.059 407.811C350.334 407.532 349.511 407.877 349.224 408.582Z" fill="#CA2ACD"/>
<path fill-rule="evenodd" clip-rule="evenodd" d="M338.33 414.507V417.74C338.33 418.498 338.963 419.113 339.744 419.113C340.522 419.113 341.159 418.498 341.159 417.74V414.507C341.159 413.749 340.522 413.134 339.744 413.134C338.963 413.134 338.33 413.749 338.33 414.507Z" fill="#CA2ACD"/>
<path fill-rule="evenodd" clip-rule="evenodd" d="M348.446 362.608C348.446 362.608 346.183 363.519 345.119 366.023C344.465 367.561 344.224 369.746 345.462 372.747C346.89 376.206 350.564 386.443 345.572 394.323C345.161 394.968 345.37 395.815 346.031 396.212C346.7 396.609 347.569 396.408 347.979 395.762C353.545 386.984 349.677 375.579 348.086 371.725C347.23 369.645 347.279 368.137 347.732 367.072C348.33 365.673 349.556 365.134 349.556 365.134C350.274 364.836 350.61 364.028 350.303 363.331C349.995 362.634 349.164 362.31 348.446 362.608Z" fill="#CA2ACD"/>
<path fill-rule="evenodd" clip-rule="evenodd" d="M294.45 446.48C291.342 449.951 287.986 453.7 284.344 457.58C265.567 477.579 249.432 486.506 237.617 490.372C226.714 493.936 214.694 490.128 208.054 481.006C208.054 481.006 208.053 481.006 208.054 481.002C200.494 470.616 201.279 456.546 209.952 447.016C235.802 418.839 270.206 382.317 274.117 378.271C295.073 356.59 307.76 349.146 318.169 346.806C345.795 340.597 360.058 351.478 368.215 359.096C410.239 398.33 437.734 423.113 455.244 455.866C459.243 463.344 457.751 470.232 454.197 475.952C448.031 485.96 436.239 490.801 424.98 488.782L415.416 485.263C403.896 479.083 392.312 469.981 382.126 460.766C376.327 454.915 372.352 450.459 372.352 450.459L389.25 409.94L362.035 391.201C360.889 383.535 360.437 378.636 357.993 373.556C357.329 372.166 356.512 370.763 355.49 369.285C350.741 362.409 347.75 366.502 347.75 366.502C345.543 363.857 343.496 362.639 342.131 362.08C341.41 361.801 340.6 361.85 339.921 362.214C339.246 362.577 338.772 363.216 338.631 363.955C338.302 365.773 339.448 367.823 340.066 368.763C340.257 369.048 340.477 369.315 340.721 369.559C354.132 383.022 346.717 398.134 346.717 398.134C340.091 406.054 328.26 405.866 328.26 405.866C319.608 406.542 314.166 403.952 311.08 401.591C306.491 398.089 300.422 397.002 294.849 398.686C281.246 402.895 266.569 415.434 266.569 415.434L294.45 446.48Z" fill="url(#paint1_linear_18_1687)"/>
<path fill-rule="evenodd" clip-rule="evenodd" d="M307.762 432.476L321.627 417.419C321.627 417.419 338.334 424.826 343.627 419.031L350.342 427.62C349.652 426.793 349.291 426.341 349.291 426.341C335.484 440.717 308.919 432.829 307.762 432.476Z" fill="#CA2ACD"/>
<path fill-rule="evenodd" clip-rule="evenodd" d="M269.679 412.94C267.721 414.45 266.569 415.434 266.569 415.434L268.85 417.975L227.39 451.348C226.638 451.952 225.523 451.849 224.9 451.122C224.277 450.39 224.382 449.309 225.133 448.704L269.244 413.198C269.379 413.089 269.526 413.003 269.679 412.94ZM387.214 408.537C387.585 408.56 387.957 408.697 388.261 408.953L428.637 442.927C429.372 443.547 429.453 444.632 428.814 445.348C428.174 446.064 427.056 446.142 426.321 445.522L387.896 413.19L389.251 409.94L387.214 408.537ZM273.701 409.965C273.909 406.659 274.5 400.191 276.101 394.533C276.274 394.011 276.78 393.661 277.344 393.675C277.909 393.688 278.396 394.061 278.543 394.59C279.412 397.722 280.603 402.032 281.406 404.938C278.561 406.626 275.932 408.382 273.701 409.965ZM371.154 397.481L373.049 388.72C373.12 388.392 373.392 388.141 373.732 388.086C374.071 388.032 374.411 388.186 374.584 388.475C375.655 390.773 377.268 395.199 378.049 402.229L371.154 397.481Z" fill="#CA2ACD"/>
<path d="M327.037 406.515C339.441 406.515 349.495 396.886 349.495 385.007C349.495 373.129 339.441 363.499 327.037 363.499C314.634 363.499 304.579 373.129 304.579 385.007C304.579 396.886 314.634 406.515 327.037 406.515Z" fill="#99DDCC"/>
<path d="M326.987 402.894C337.381 402.894 345.806 394.825 345.806 384.871C345.806 374.917 337.381 366.848 326.987 366.848C316.594 366.848 308.168 374.917 308.168 384.871C308.168 394.825 316.594 402.894 326.987 402.894Z" fill="#4FC6A8"/>
<path d="M319.909 390.637C321.667 392.351 323.836 393.338 326.442 393.665C329.556 393.986 331.199 393.109 331.47 391.044C331.637 389.355 330.701 388.218 328.661 387.632C327.704 387.395 326.679 387.15 325.558 386.861C323.549 386.311 322.049 385.4 321.089 384.163C320.098 382.89 319.701 381.427 319.865 379.77C320.06 377.794 320.886 376.276 322.411 375.224C323.868 374.164 325.835 373.775 328.28 374.02C331.25 374.421 333.747 375.51 335.774 377.254L333.487 379.863C331.824 378.547 329.91 377.718 327.773 377.443C326.669 377.318 325.707 377.467 324.918 377.925C324.095 378.38 323.612 379.163 323.471 380.243C323.405 380.912 323.616 381.517 324.098 382.119C324.58 382.722 325.415 383.171 326.563 383.527C327.189 383.694 328.08 383.924 329.205 384.18C331.418 384.721 332.981 385.672 333.929 387.037C334.846 388.365 335.243 389.828 335.083 391.454C334.555 395.777 331.528 397.658 326.069 397.104C322.557 396.706 319.617 395.309 317.279 392.949L319.909 390.637Z" fill="#99DDCC"/>
<path fill-rule="evenodd" clip-rule="evenodd" d="M326.768 370.399L324.504 400.103L328.501 400.331L330.161 370.593L326.768 370.399Z" fill="#99DDCC"/>
<path fill-rule="evenodd" clip-rule="evenodd" d="M239.156 648.146C237.021 647.772 235.4 645.956 235.4 643.775V634.89C235.4 632.438 237.45 630.447 239.975 630.447H291.367C293.892 630.447 295.943 632.438 295.943 634.89V643.775C295.943 645.956 294.322 647.772 292.187 648.146C294.322 648.524 295.943 650.34 295.943 652.52V661.406C295.943 663.586 294.322 665.399 292.187 665.777C294.322 666.151 295.943 667.967 295.943 670.147V679.033C295.943 681.213 294.322 683.029 292.187 683.403C294.322 683.781 295.943 685.594 295.943 687.774V696.66C295.943 699.111 293.892 701.103 291.367 701.103H239.975C237.45 701.103 235.4 699.111 235.4 696.66V687.774C235.4 685.594 237.021 683.781 239.156 683.403C237.021 683.029 235.4 681.213 235.4 679.033V670.147C235.4 667.967 237.021 666.151 239.156 665.777C237.021 665.399 235.4 663.586 235.4 661.406V652.52C235.4 650.34 237.021 648.524 239.156 648.146Z" fill="#99DDCC"/>
<path fill-rule="evenodd" clip-rule="evenodd" d="M283.811 630.447V644.665H295.68C295.737 644.665 295.794 644.668 295.849 644.672C295.493 646.361 294.151 647.7 292.433 648.098H292.342V648.119C292.291 648.129 292.239 648.139 292.187 648.146C292.239 648.156 292.291 648.167 292.342 648.177V662.288H295.68C295.737 662.288 295.794 662.292 295.85 662.295C295.496 663.981 294.159 665.32 292.447 665.722H288.666V679.915H295.68C295.738 679.915 295.795 679.915 295.851 679.922C295.499 681.601 294.168 682.94 292.462 683.349H283.083V701.103H279.548V683.349H276.202V701.103H272.666V683.349H249.183V701.103H245.647V683.349H238.881C237.173 682.94 235.84 681.598 235.49 679.915H257.708V665.722H238.895C237.181 665.32 235.842 663.977 235.491 662.288H240.584V648.098H238.909C237.19 647.7 235.846 646.354 235.492 644.665H250.342V630.447H253.877V644.665H273.095V630.447H276.631V644.665H280.276V630.447H283.811ZM261.244 665.722V679.915H263.917V665.722H261.244ZM267.452 665.722V679.915H285.13V665.722H267.452ZM244.12 648.098V662.288H270.482V648.098H244.12ZM274.018 648.098V662.288H288.806V648.098H274.018Z" fill="#CA2ACD"/>
<path fill-rule="evenodd" clip-rule="evenodd" d="M714.458 411.534C712.04 410.375 710.375 407.954 710.375 405.159V390.949C710.375 387.027 713.652 383.844 717.69 383.844H828.809C832.847 383.844 836.124 387.027 836.124 390.949V405.159C836.124 407.954 834.459 410.375 832.037 411.534C834.459 412.694 836.124 415.115 836.124 417.91V432.12C836.124 434.577 834.837 436.745 832.882 438.021C834.837 439.297 836.124 441.465 836.124 443.922V458.133C836.124 460.592 834.837 462.758 832.882 464.035C834.837 465.309 836.124 467.479 836.124 469.934V484.145C836.124 486.603 834.837 488.769 832.882 490.047C834.837 491.324 836.124 493.49 836.124 495.949V510.159C836.124 512.614 834.837 514.784 832.882 516.061C834.837 517.335 836.124 519.505 836.124 521.96V536.171C836.124 538.629 834.837 540.796 832.882 542.073C834.837 543.35 836.124 545.517 836.124 547.975V562.186C836.124 564.64 834.837 566.81 832.882 568.084C834.837 569.361 836.124 571.528 836.124 573.986V588.197C836.124 590.655 834.837 592.822 832.882 594.099C834.837 595.376 836.124 597.543 836.124 600.001V614.212C836.124 616.667 834.837 618.837 832.882 620.11C834.837 621.388 836.124 623.554 836.124 626.012V640.223C836.124 642.681 834.837 644.848 832.882 646.125C834.837 647.399 836.124 649.569 836.124 652.027V666.234C836.124 668.693 834.837 670.863 832.882 672.137C834.837 673.414 836.124 675.58 836.124 678.038V692.249C836.124 696.17 832.847 699.353 828.809 699.353H717.69C713.652 699.353 710.375 696.17 710.375 692.249V678.038C710.375 675.58 711.662 673.414 713.617 672.137C711.662 670.863 710.375 668.693 710.375 666.234V652.027C710.375 649.569 711.662 647.399 713.617 646.125C711.662 644.848 710.375 642.681 710.375 640.223V626.012C710.375 623.554 711.662 621.388 713.617 620.11C711.662 618.837 710.375 616.667 710.375 614.212V600.001C710.375 597.543 711.662 595.376 713.617 594.099C711.662 592.822 710.375 590.655 710.375 588.197V573.986C710.375 571.528 711.662 569.361 713.617 568.084C711.662 566.81 710.375 564.64 710.375 562.186V547.975C710.375 545.517 711.662 543.35 713.617 542.073C711.662 540.796 710.375 538.629 710.375 536.171V521.96C710.375 519.505 711.662 517.335 713.617 516.061C711.662 514.784 710.375 512.614 710.375 510.159V495.949C710.375 493.49 711.662 491.324 713.617 490.047C711.662 488.769 710.375 486.603 710.375 484.145V469.934C710.375 467.479 711.662 465.309 713.617 464.035C711.662 462.758 710.375 460.592 710.375 458.133V443.922C710.375 441.465 711.662 439.297 713.617 438.021C711.662 436.745 710.375 434.577 710.375 432.12V417.91C710.375 415.115 712.04 412.694 714.458 411.534Z" fill="#99DDCC"/>
<path fill-rule="evenodd" clip-rule="evenodd" d="M801.961 383.844V407.929H815.503C815.684 407.168 816.387 406.599 817.225 406.599C818.063 406.599 818.767 407.168 818.947 407.929H835.545C834.908 409.386 833.787 410.595 832.376 411.363H818.993V434.679H835.633C835.088 436.049 834.12 437.214 832.882 438.021C832.928 438.051 832.97 438.082 833.016 438.113H829.915V461.265C829.915 461.319 829.912 461.374 829.908 461.429H835.29C834.721 462.48 833.89 463.376 832.882 464.035C833.257 464.279 833.607 464.557 833.929 464.863H815.27V486.884H835.559C835.004 488.175 834.063 489.274 832.882 490.047C833.013 490.132 833.144 490.225 833.267 490.318H825.892V512.872H835.569C835.014 514.176 834.07 515.282 832.882 516.061C833.002 516.137 833.119 516.219 833.236 516.305H813.339V538.893H835.569C835.011 540.191 834.07 541.297 832.882 542.073C833.006 542.155 833.126 542.238 833.243 542.327H825.16V565.125H835.467C834.905 566.33 834.003 567.353 832.882 568.084C833.105 568.232 833.32 568.39 833.526 568.558H809.867V590.83H835.605C835.053 592.166 834.098 593.306 832.882 594.099C832.963 594.15 833.041 594.205 833.119 594.264H820.149V616.516H835.728C835.237 617.906 834.318 619.101 833.119 619.949H808.746V642.898H835.587C835.035 644.216 834.084 645.339 832.882 646.125C832.981 646.19 833.08 646.259 833.179 646.331H822.342V668.576H835.718C835.216 669.97 834.282 671.165 833.069 672.009H797.304V699.353H793.768V672.009H786.626V699.353H783.09V672.009H736.646V699.353H733.11V672.009H713.43C712.217 671.165 711.283 669.97 710.781 668.576H717.064V646.331H713.32C713.416 646.259 713.514 646.19 713.617 646.125C712.415 645.339 711.464 644.216 710.909 642.898H733.623V619.949H713.38C712.181 619.101 711.259 617.906 710.767 616.516H719.607V594.264H713.377C713.454 594.205 713.536 594.15 713.617 594.099C712.401 593.306 711.442 592.166 710.894 590.83H730.098V568.558H712.97C713.179 568.39 713.391 568.232 713.617 568.084C712.496 567.353 711.594 566.33 711.029 565.125H718.716V542.327H713.253C713.373 542.238 713.493 542.155 713.617 542.073C712.429 541.297 711.485 540.191 710.93 538.893H731.371V516.305H713.263C713.38 516.219 713.497 516.137 713.617 516.061C712.425 515.282 711.481 514.176 710.926 512.872H716.251V490.318H713.228C713.355 490.225 713.486 490.132 713.617 490.047C712.433 489.274 711.495 488.175 710.937 486.884H722.489V464.863H712.57C712.892 464.557 713.242 464.279 713.617 464.035C712.609 463.376 711.778 462.48 711.209 461.429H743.29V438.113H725.183C724.953 438.218 724.698 438.277 724.43 438.277C724.157 438.277 723.903 438.218 723.673 438.113H713.479C713.525 438.082 713.571 438.051 713.617 438.021C712.379 437.214 711.411 436.049 710.863 434.679H722.662V411.363H714.123C712.712 410.595 711.587 409.386 710.951 407.929H722.704C722.888 407.168 723.588 406.599 724.43 406.599C725.268 406.599 725.971 407.168 726.152 407.929H748.371V383.844H751.907V407.929H755.743V383.844H759.279V407.929H769.441C769.622 407.168 770.325 406.599 771.167 406.599C772.005 406.599 772.709 407.168 772.889 407.929H778.249C778.433 407.168 779.133 406.599 779.975 406.599C780.813 406.599 781.516 407.168 781.697 407.929H798.425V383.844H801.961ZM720.6 646.331V668.576H752.225V646.331H720.6ZM755.761 646.331V668.576H761.164V646.331H755.761ZM764.7 646.331V668.576H818.806V646.331H764.7ZM737.159 619.949V642.898H770.004V619.949H737.159ZM798.464 619.949H773.539V642.898H798.453V620.131L798.464 619.949ZM801.989 642.898H805.21V619.949H801.979C801.986 620.007 801.989 620.069 801.989 620.131V642.898ZM794.412 594.264V616.516H816.613V594.264H794.412ZM755.86 616.516H790.876V594.264H755.828C755.85 594.367 755.86 594.473 755.86 594.58V616.516ZM752.353 594.264H723.143V616.516H752.324V594.58C752.324 594.477 752.331 594.37 752.353 594.267V594.264ZM781.233 568.558V590.83H806.331V568.558H781.233ZM773.246 568.558V590.83H777.698V568.558H773.246ZM733.634 568.558V590.83H769.71V568.558H733.634ZM749.117 542.327V565.125H792.396V542.327H749.117ZM722.252 542.327V565.125H745.581V542.327H722.252ZM795.932 542.327V565.125H821.624V542.327H795.932ZM765.527 516.305V538.893H769.035V516.305H765.527ZM747.657 538.893H761.991V516.305H734.906V538.893H747.042C747.141 538.876 747.243 538.866 747.349 538.866C747.455 538.866 747.558 538.876 747.657 538.893ZM772.571 516.305V538.893H809.803V516.305H772.571ZM812.098 512.872H822.356V490.318H793.411V512.872H811.044C811.211 512.82 811.387 512.793 811.571 512.793C811.755 512.793 811.932 512.82 812.098 512.872ZM784.893 490.318V512.872H789.875V490.318H784.893ZM719.787 490.318V512.872H754.432V490.318H719.787ZM757.967 490.318V512.872H781.357V490.318H757.967ZM726.024 464.863V486.884H730.342V464.863H726.024ZM774.576 464.863V486.884H811.734V464.863H774.576ZM733.878 464.863V486.884H771.04V464.863H733.878ZM753.084 438.113H746.826V461.429H753.095C753.088 461.374 753.084 461.319 753.084 461.265V438.113ZM795.833 438.113H780.728C780.502 438.218 780.243 438.277 779.975 438.277C779.702 438.277 779.448 438.218 779.218 438.113H771.92C771.69 438.218 771.436 438.277 771.167 438.277C770.895 438.277 770.64 438.218 770.41 438.113H756.62V461.265C756.62 461.319 756.62 461.374 756.613 461.429H795.84C795.833 461.374 795.833 461.319 795.833 461.265V438.113ZM826.38 438.113H817.982C817.752 438.218 817.497 438.277 817.225 438.277C816.956 438.277 816.698 438.218 816.472 438.113H799.369V461.265C799.369 461.319 799.365 461.374 799.358 461.429H826.387C826.383 461.374 826.38 461.319 826.38 461.265V438.113ZM726.198 411.363V434.679H769.399V411.363H726.198ZM772.935 411.363V434.679H778.207V411.363H772.935ZM781.743 411.363V434.679H815.457V411.363H781.743Z" fill="#CA2ACD"/>
<path fill-rule="evenodd" clip-rule="evenodd" d="M526.453 569.046C524.498 567.772 523.21 565.602 523.21 563.147V548.936C523.21 545.015 526.488 541.829 530.526 541.829H641.641C645.682 541.829 648.96 545.015 648.96 548.936V563.147C648.96 565.602 647.673 567.772 645.718 569.046C647.673 570.323 648.96 572.489 648.96 574.947V589.158C648.96 591.617 647.673 593.783 645.718 595.06C647.673 596.334 648.96 598.504 648.96 600.962V615.17C648.96 617.628 647.673 619.798 645.718 621.072C647.673 622.349 648.96 624.515 648.96 626.974V641.184C648.96 643.643 647.673 645.809 645.718 647.086C647.673 648.36 648.96 650.53 648.96 652.985V667.196C648.96 669.654 647.673 671.821 645.718 673.098C647.673 674.375 648.96 676.541 648.96 679V693.211C648.96 697.131 645.682 700.314 641.641 700.314H530.526C526.488 700.314 523.21 697.131 523.21 693.211V679C523.21 676.541 524.498 674.375 526.453 673.098C524.498 671.821 523.21 669.654 523.21 667.196V652.985C523.21 650.53 524.498 648.36 526.453 647.086C524.498 645.809 523.21 643.643 523.21 641.184V626.974C523.21 624.515 524.498 622.349 526.453 621.072C524.498 619.798 523.21 617.628 523.21 615.17V600.962C523.21 598.504 524.498 596.334 526.453 595.06C524.498 593.783 523.21 591.617 523.21 589.158V574.947C523.21 572.489 524.498 570.323 526.453 569.046Z" fill="#99DDCC"/>
<path fill-rule="evenodd" clip-rule="evenodd" d="M622.848 566.127H648.285C647.719 567.315 646.824 568.324 645.718 569.045C645.958 569.203 646.188 569.375 646.411 569.56H635.92V591.792V591.795H648.437C647.889 593.131 646.93 594.267 645.718 595.06C645.799 595.115 645.884 595.17 645.965 595.228H625.026V617.312C625.026 617.412 625.019 617.508 625.001 617.6H648.518C647.991 619.005 647.022 620.203 645.774 621.034H639.321V643.265C639.321 643.361 639.311 643.457 639.296 643.55H648.543C648.034 644.947 647.09 646.142 645.866 646.983H626.599V669.606H648.525C648.005 671.01 647.044 672.205 645.802 673.039H638.455V700.314H634.919V673.039H612.109C612.109 673.07 612.113 673.098 612.113 673.125V700.314H608.577V673.125C608.577 673.098 608.577 673.07 608.577 673.039H591.138C590.912 673.142 590.664 673.197 590.402 673.197C590.137 673.197 589.89 673.142 589.663 673.039H567.009V700.314H563.473V673.039H557.293V700.314H553.757V673.039H526.364C525.123 672.205 524.161 671.01 523.642 669.606H548.039V646.983H526.301C525.081 646.142 524.133 644.947 523.624 643.55H532.605V621.034H526.396C525.144 620.203 524.176 619.005 523.649 617.6H545.355V595.228H526.202C526.287 595.17 526.368 595.115 526.453 595.06C525.236 594.267 524.282 593.131 523.73 591.795H531.463V569.56H525.76C525.979 569.375 526.209 569.203 526.453 569.045C525.342 568.324 524.451 567.315 523.882 566.127H540.137V541.829H543.672V566.127H547.293V541.829H550.829V566.127H583.302V541.829H586.838V566.127H619.312V541.829H622.848V566.127ZM551.575 646.983V669.606H588.635V646.983H551.575ZM592.17 646.983V669.606H616.062V646.983H592.17ZM619.598 646.983V669.606H623.063V646.983H619.598ZM536.141 621.034V643.55H564.746V621.034H536.141ZM602.969 621.034H568.282V643.55H603.064C603.004 643.375 602.969 643.186 602.969 642.99V621.034ZM635.785 621.034H606.505V642.99C606.505 643.186 606.473 643.375 606.409 643.55H635.807C635.792 643.457 635.785 643.361 635.785 643.265V621.034ZM548.891 595.228V617.6H576.061V595.228H548.891ZM579.597 595.228V617.6H583.776V595.228H579.597ZM621.49 595.228H587.312V617.6H604.192C604.362 617.546 604.546 617.518 604.737 617.518C604.928 617.518 605.112 617.546 605.285 617.6H621.518C621.5 617.508 621.49 617.412 621.49 617.312V595.228ZM534.999 569.56V591.795H566.136V569.56H534.999ZM569.672 569.56V591.795H597.824V569.56H569.672ZM601.36 569.56V591.795H606.091V569.56H601.36ZM632.384 569.56H609.627V591.795H632.384V591.792V569.56Z" fill="#CA2ACD"/>
<path fill-rule="evenodd" clip-rule="evenodd" d="M648.999 467.348H683.06C741.66 467.348 789.239 520.991 789.239 587.063C789.239 648.026 748.799 699.352 696.507 706.778C692.123 707.403 649.229 706.778 649.229 706.778C590.629 706.778 543.05 653.135 543.05 587.063C543.05 521.077 590.505 467.485 648.999 467.348Z" fill="#CA2ACD"/>
<path d="M649.227 706.778C707.866 706.778 755.403 653.18 755.403 587.063C755.403 520.946 707.866 467.347 649.227 467.347C590.587 467.347 543.05 520.946 543.05 587.063C543.05 653.18 590.587 706.778 649.227 706.778Z" fill="#99DDCC"/>
<path fill-rule="evenodd" clip-rule="evenodd" d="M649.368 515.89L645.678 515.697L645.747 510.382L652.184 510.718C653.708 510.797 654.923 512.052 654.904 513.519L654.788 522.509C660.419 523.048 665.813 524.205 670.964 525.974C677.546 528.232 683.739 531.494 689.536 535.752C690.193 536.229 690.604 536.955 690.675 537.732C690.738 538.508 690.456 539.261 689.889 539.794L677.325 551.606C676.378 552.494 674.881 552.564 673.778 551.767C668.061 547.644 661.639 544.979 654.513 543.766L654.127 573.723C680.637 580.551 693.249 593.513 692.65 611.895C692.367 621.882 688.408 629.961 680.818 636.105C673.882 641.938 664.683 645.447 653.186 646.546L652.987 661.993C652.968 663.458 651.723 664.581 650.198 664.501L643.879 664.171L643.947 658.861L647.519 659.048L647.715 643.936C647.732 642.59 648.785 641.514 650.172 641.427C661.479 640.699 670.474 637.606 677.15 631.998C683.585 626.788 686.908 619.96 687.15 611.516C687.688 594.979 675.32 584.172 650.795 578.34C649.502 578.028 648.58 576.883 648.597 575.611L649.049 540.56C649.059 539.827 649.385 539.145 649.943 538.669C650.502 538.198 651.249 537.975 652.007 538.066C660.522 539.028 668.189 541.747 675 546.211L683.654 538.076C679.123 535.077 674.349 532.708 669.315 530.985C663.819 529.096 658.034 527.975 651.944 527.606C650.434 527.516 649.234 526.266 649.253 524.806L649.368 515.89ZM653.464 625.05C657.478 624.089 660.423 622.595 662.212 620.444C663.329 619.053 664.152 617.465 664.684 615.686L669.976 617.377C669.245 619.782 668.119 621.929 666.583 623.849C663.649 627.372 658.568 629.835 651.206 630.956C650.394 631.079 649.549 630.842 648.908 630.302C648.273 629.763 647.908 628.983 647.918 628.182L648.161 609.396L653.662 609.683L653.464 625.05ZM624.326 548.316C625.322 545.964 626.607 544.031 628.153 542.504C628.19 542.466 628.235 542.428 628.272 542.39C631.753 539.361 635.864 537.723 640.592 537.476C641.366 537.437 642.143 537.722 642.719 538.252C643.294 538.787 643.616 539.526 643.607 540.276L643.408 555.66L637.906 555.373L638.063 543.243C635.86 543.798 633.878 544.837 632.112 546.359C631.014 547.461 630.127 548.863 629.412 550.548C629.397 550.593 629.374 550.637 629.351 550.681C628.496 552.421 628.085 554.565 628.053 557.081L622.551 556.793C622.594 553.46 623.205 550.639 624.326 548.316Z" fill="#4FC6A8"/>
<path fill-rule="evenodd" clip-rule="evenodd" d="M626.755 568.118C624.096 564.987 622.759 561.21 622.819 556.763L628.299 557.053C628.258 560.104 629.111 562.707 630.939 564.85L631.004 564.927C632.434 566.731 634.755 568.219 637.924 569.501L638.114 555.352L643.593 555.643L643.355 573.381C643.344 574.205 642.938 574.962 642.256 575.432C641.582 575.896 640.699 576.026 639.88 575.772C633.55 573.81 629.217 571.187 626.755 568.118Z" fill="#4FC6A8"/>
<path fill-rule="evenodd" clip-rule="evenodd" d="M653.789 596.956L653.619 609.672L648.137 609.382L648.351 593.439C648.362 592.661 648.724 591.941 649.34 591.468C649.963 590.995 650.773 590.817 651.564 590.984C659.201 592.599 664.276 595.261 666.963 598.603L667.021 598.686C669.632 602.189 670.923 606.145 670.864 610.564C670.831 613.035 670.492 615.307 669.869 617.377L664.597 615.682C665.097 614.038 665.356 612.233 665.382 610.273C665.425 607.098 664.523 604.254 662.662 601.734C660.972 599.655 657.989 598.122 653.789 596.956Z" fill="#4FC6A8"/>
<path fill-rule="evenodd" clip-rule="evenodd" d="M637.739 592.957C612.151 586.146 600.115 573.549 600.919 555.877C601.274 545.217 604.934 537.057 611.73 531.326C617.951 526.082 626.891 522.865 638.622 521.831L638.737 512.591C638.755 511.124 640.005 509.997 641.528 510.075L646.053 510.308L645.987 515.624L644.227 515.533L644.116 524.449C644.099 525.801 643.036 526.883 641.636 526.964C630.123 527.663 621.374 530.407 615.46 535.393C609.703 540.252 606.746 547.232 606.441 556.303C605.719 572.132 617.53 582.57 641.103 588.373C642.386 588.689 643.304 589.828 643.289 591.088L642.832 627.827C642.823 628.576 642.481 629.269 641.906 629.745C641.323 630.221 640.551 630.426 639.775 630.318C632.87 629.338 627.033 627.549 622.271 624.991C618.079 622.957 614.336 620.509 611.035 617.64L600.348 625.672C605.414 629.421 611.041 632.654 617.207 635.375C624.404 638.472 631.98 640.271 639.941 640.783C641.457 640.883 642.655 642.127 642.636 643.581L642.449 658.693L644.327 658.789L644.261 664.099L639.618 663.861C638.095 663.782 636.875 662.532 636.893 661.067L637.082 645.869C629.426 645.112 622.111 643.225 615.112 640.211C607.291 636.763 600.322 632.552 594.177 627.582C593.532 627.06 593.15 626.285 593.145 625.483C593.133 624.681 593.504 623.933 594.147 623.449L609.374 612.008C610.449 611.194 612.031 611.315 613.04 612.293C616.337 615.48 620.21 618.14 624.637 620.282L624.755 620.34C628.283 622.243 632.482 623.641 637.346 624.556L637.739 592.957Z" fill="#4FC6A8"/>
<path fill-rule="evenodd" clip-rule="evenodd" d="M644.126 491.039C686.954 491.039 721.353 534.29 721.353 587.213C721.353 640.133 686.954 683.384 644.126 683.384C642.565 683.384 641.296 684.614 641.296 686.13C641.296 687.646 642.565 688.879 644.126 688.879C689.665 688.879 727.008 643.481 727.008 587.213C727.008 530.942 689.665 485.547 644.126 485.547C642.565 485.547 641.296 486.777 641.296 488.293C641.296 489.809 642.565 491.039 644.126 491.039Z" fill="#CA2ACD"/>
<path fill-rule="evenodd" clip-rule="evenodd" d="M644.126 683.384C601.295 683.384 566.899 640.133 566.899 587.213C566.899 534.29 601.295 491.039 644.126 491.039C645.687 491.039 646.954 489.809 646.954 488.293C646.954 486.777 645.687 485.547 644.126 485.547C598.588 485.547 561.242 530.942 561.242 587.213C561.242 643.481 598.588 688.879 644.126 688.879C645.687 688.879 646.954 687.646 646.954 686.13C646.954 684.614 645.687 683.384 644.126 683.384Z" fill="#CA2ACD"/>
<path fill-rule="evenodd" clip-rule="evenodd" d="M726.958 696.955H686.444C684.885 696.955 683.615 695.722 683.615 694.208C683.615 692.691 684.885 691.462 686.444 691.462H735.108C735.437 691.462 735.752 691.517 736.045 691.616C733.103 693.556 730.073 695.338 726.958 696.955ZM773.179 650.704C772.153 652.568 771.089 654.402 769.979 656.197H731.074C729.511 656.197 728.245 654.968 728.245 653.451C728.245 651.933 729.511 650.704 731.074 650.704H773.179ZM780.855 633.935C780.162 635.793 779.427 637.623 778.659 639.429H735.108C733.545 639.429 732.279 638.2 732.279 636.682C732.279 635.168 733.545 633.935 735.108 633.935H780.855ZM788.949 578.181C789.069 580.004 789.15 581.834 789.196 583.674H750.348C748.785 583.674 747.519 582.445 747.519 580.927C747.519 579.413 748.785 578.181 750.348 578.181H788.949ZM782.768 545.845C783.355 547.658 783.91 549.491 784.423 551.338H742.099C740.539 551.338 739.27 550.109 739.27 548.592C739.27 547.078 740.539 545.845 742.099 545.845H782.768ZM776.962 531.167C777.807 532.973 778.617 534.803 779.381 536.661H740.575C739.015 536.661 737.746 535.432 737.746 533.914C737.746 532.4 739.015 531.167 740.575 531.167H776.962ZM739.33 485.548C741.77 487.272 744.142 489.102 746.448 491.041H701.684C700.124 491.041 698.855 489.809 698.855 488.295C698.855 486.777 700.124 485.548 701.684 485.548H739.33Z" fill="#99DDCC"/>
<path fill-rule="evenodd" clip-rule="evenodd" d="M556.519 269.517C558.561 261.228 564.381 237.535 568.843 226.882L597.624 241.171C597.624 241.171 587.287 285.43 585.185 298.092L552.119 291.453C552.833 284.569 554.463 277.856 556.519 269.517Z" fill="#CA2ACD"/>
<path d="M571.02 278.191C576.691 278.191 581.289 273.518 581.289 267.755C581.289 261.991 576.691 257.319 571.02 257.319C565.348 257.319 560.75 261.991 560.75 267.755C560.75 273.518 565.348 278.191 571.02 278.191Z" fill="#A8CFCC" fill-opacity="0.63"/>
<path fill-rule="evenodd" clip-rule="evenodd" d="M563.707 280.587C565.379 276.06 574.71 252.58 580.467 245.523L607.279 260.155C607.279 260.155 592.828 297.441 589.533 308.176L557.773 299.786C559.145 293.915 561.09 287.667 563.707 280.587Z" fill="#EAEAEB"/>
<path d="M582.263 288.869C587.935 288.869 592.533 284.197 592.533 278.433C592.533 272.669 587.935 267.997 582.263 267.997C576.592 267.997 571.994 272.669 571.994 278.433C571.994 284.197 576.592 288.869 582.263 288.869Z" fill="#CA2ACD"/>
<path d="M648.595 282.555C661.105 282.555 671.246 272.708 671.246 260.561C671.246 248.415 661.105 238.568 648.595 238.568C636.086 238.568 625.945 248.415 625.945 260.561C625.945 272.708 636.086 282.555 648.595 282.555Z" fill="#EAE9EB"/>
<path fill-rule="evenodd" clip-rule="evenodd" d="M633.53 244.146C637.536 240.678 642.815 238.568 648.596 238.568C661.099 238.568 671.247 248.424 671.247 260.562C671.247 264.727 670.052 268.623 667.98 271.943C651.16 264.606 653.624 246.903 653.624 246.903C644.378 249.836 637.472 246.865 633.53 244.146Z" fill="black"/>
<path fill-rule="evenodd" clip-rule="evenodd" d="M551.536 540.094C551.536 540.094 544.914 527.652 551.536 518.33L539.78 498.272C539.78 498.272 534.066 494.719 527.577 490.681C512.907 481.552 504.492 465.418 505.591 448.536C505.676 447.249 505.828 446.07 506.058 445.038C499.311 438.857 493.739 424.984 495.79 411.71C495.79 411.71 495.79 411.71 495.79 411.71C498.643 393.222 514.459 379.213 533.68 378.15C564.612 376.446 617.696 375.282 650.332 384.37L642.992 366.625C642.992 366.625 590.767 384.759 577.539 343.117C547.558 354.872 514.173 363.465 481.162 368.115C467.361 370.065 453.745 363.568 446.903 351.767C446.889 351.776 446.889 351.776 446.889 351.776C441.1 341.794 442.95 329.281 451.393 321.281C459.883 313.328 474.362 303.039 499.089 291.202C499.089 291.202 523.858 278.485 538.362 271.037C544.843 267.71 552.526 267.42 559.252 270.25C573.54 276.259 597.146 286.189 597.146 286.189L599.903 279.43C616.296 282.081 632.402 286.903 648.193 292.87C664.964 299.227 677.958 312.488 683.661 329.065C697.706 369.888 724.225 448.269 727.704 467.904H737.647C743.234 467.904 748.074 471.667 749.294 476.961C750.245 481.098 751.165 485.091 751.165 485.091C751.165 485.091 757.497 491.968 759.35 498.272C760.103 500.84 755.885 503.834 751.165 499.024C749.768 497.599 736.204 487.206 730.112 486.557C725.452 486.06 721.329 485.541 717.485 485.085C705.686 483.68 695.213 477.068 689.099 467.162C685.012 460.543 681.253 454.452 681.253 454.452C681.253 454.452 668.51 474.297 633.53 470.716L638.964 539.315C638.964 539.315 631.984 537.711 629.651 526.635C629.651 526.635 590.229 521.537 567.777 512.304C567.777 512.304 558.919 520.843 551.536 540.094Z" fill="url(#paint2_linear_18_1687)"/>
<path fill-rule="evenodd" clip-rule="evenodd" d="M727.52 466.922C727.587 467.265 727.647 467.591 727.704 467.904H732.41C734.687 469.456 738.149 471.893 741.9 474.798L743.106 473.48C743.626 472.913 744.52 472.862 745.104 473.366C745.687 473.868 745.74 474.736 745.221 475.303L744.1 476.529C746.228 478.235 748.392 480.061 750.44 481.936L751.164 485.091L728.121 468.371C727.615 468.048 727.393 467.461 727.52 466.922Z" fill="#CA2ACD"/>
<path fill-rule="evenodd" clip-rule="evenodd" d="M593.04 519.947L612.625 465.954C612.951 465.058 613.962 464.587 614.881 464.903C615.801 465.219 616.285 466.197 615.963 467.094L596.502 520.737C595.353 520.483 594.2 520.218 593.04 519.947ZM539.779 498.272C539.779 498.272 547.36 502.231 553.884 505.506C562.151 509.664 570.81 513.551 567.776 512.304C567.776 512.304 566.931 513.122 565.545 514.814C558.109 511.58 549.549 507.22 542.986 503.745L539.779 498.272ZM503.36 442.073C509.035 415.641 530.25 400.623 554.931 392.27C589.815 380.462 631.585 382.062 644.65 382.935C646.57 383.373 649.359 383.954 651.156 384.453C651.258 384.7 652.047 385.173 652.018 385.455C651.916 386.398 653.263 387.088 652.291 386.991C652.291 386.991 598.043 383.662 556.094 395.512C530.049 402.868 512.044 421.195 506.058 445.038C505.131 444.188 504.226 443.193 503.36 442.073Z" fill="#CA2ACD"/>
<path fill-rule="evenodd" clip-rule="evenodd" d="M633.844 474.111C627.328 473.14 619.061 470.506 610.341 467.063C584.791 456.982 555.213 440.112 555.213 440.112C554.372 439.632 554.093 438.579 554.584 437.762C555.079 436.945 556.165 436.672 557.006 437.151C557.006 437.151 586.333 453.885 611.671 463.883C620.815 467.492 634.322 470.795 633.529 470.716L633.844 474.111Z" fill="#8A2208"/>
<path fill-rule="evenodd" clip-rule="evenodd" d="M648.317 379.492L642.992 366.625C642.992 366.625 590.767 384.759 577.539 343.117C547.558 354.872 514.173 363.465 481.162 368.115C467.361 370.065 453.745 363.568 446.903 351.767C446.889 351.776 446.889 351.776 446.889 351.776C441.1 341.794 442.95 329.281 451.393 321.281C459.883 313.328 474.362 303.039 499.089 291.202C499.089 291.202 523.858 278.485 538.362 271.037C544.843 267.71 552.526 267.42 559.252 270.25C573.54 276.259 597.146 286.189 597.146 286.189L599.904 279.43C616.296 282.081 632.402 286.902 648.193 292.87C664.964 299.227 677.958 312.488 683.661 329.065C692.098 353.583 705.032 391.649 714.77 422.397L674.065 434.451C665.236 416.471 656.283 398.638 648.458 379.515L648.317 379.492Z" fill="#CA2ACD"/>
<path fill-rule="evenodd" clip-rule="evenodd" d="M635.418 368.641C634.124 362.363 633.82 355.774 633.94 349.053C633.944 348.683 634.219 348.369 634.594 348.301C634.969 348.233 635.34 348.429 635.485 348.771C638.936 356.94 647.387 376.931 647.387 376.931H647.256L642.992 366.625C642.992 366.625 640.061 367.642 635.418 368.641ZM523.508 328.022L480.055 351.79C479.203 352.255 478.903 353.303 479.38 354.128C479.861 354.953 480.939 355.246 481.791 354.781L525.244 331.013C526.096 330.548 526.397 329.5 525.916 328.675C525.438 327.849 524.36 327.557 523.508 328.022ZM568.389 346.568C570.033 335.021 573.943 326.924 576.666 322.457C576.839 322.21 577.175 322.126 577.455 322.258C577.73 322.39 577.868 322.699 577.773 322.985C574.962 332.797 577.377 342.493 577.532 343.088L577.539 343.117C574.523 344.3 571.472 345.45 568.389 346.568Z" fill="#8A2208"/>
<path fill-rule="evenodd" clip-rule="evenodd" d="M500.987 290.228L538.361 271.037C544.843 267.71 552.526 267.42 559.251 270.25L596.116 285.757C596.364 285.917 596.59 286.061 596.792 286.189C602.937 290.1 598.082 293.966 596.364 293.414C600.561 295.351 600.42 298.569 599.429 299.964C597.799 302.264 591.965 301.425 591.965 301.425C593.588 301.987 595.077 305.062 593.818 307.343C591.796 311.011 586.262 308.783 586.262 308.783C587.266 313.897 581.821 313.914 575.177 312.547C570.032 311.49 567.674 310.37 563.296 309.31C556.221 327.63 535.094 325.514 535.094 325.514L521.174 333.177L500.987 290.228Z" fill="url(#paint3_linear_18_1687)"/>
<path fill-rule="evenodd" clip-rule="evenodd" d="M586.283 308.889L562.625 299.972C561.896 299.697 561.536 298.901 561.819 298.194C562.101 297.488 562.922 297.137 563.65 297.411L592.927 308.447C590.516 310.495 586.262 308.783 586.262 308.783C586.269 308.819 586.276 308.854 586.283 308.889ZM592.323 301.591L565.425 291.451C564.697 291.177 564.336 290.381 564.619 289.674C564.902 288.968 565.722 288.617 566.451 288.891L597.28 300.513C597.563 300.619 597.789 300.804 597.945 301.033C595.611 301.95 591.965 301.425 591.965 301.425C592.086 301.467 592.206 301.523 592.323 301.591ZM596.65 293.464L568.65 282.909C567.921 282.634 567.557 281.838 567.84 281.131C568.123 280.425 568.943 280.074 569.672 280.348L599.472 291.582C598.853 292.766 597.52 293.514 596.65 293.464Z" fill="#CA2ACD"/>
<path fill-rule="evenodd" clip-rule="evenodd" d="M511.867 688.682C509.866 687.374 508.543 685.152 508.543 682.635V668.074C508.543 664.057 511.903 660.796 516.043 660.796H629.902C634.039 660.796 637.398 664.057 637.398 668.074V682.635C637.398 685.152 636.079 687.374 634.074 688.682C636.079 689.99 637.398 692.211 637.398 694.728V709.289C637.398 713.309 634.039 716.571 629.902 716.571H516.043C511.903 716.571 508.543 713.309 508.543 709.289V694.728C508.543 692.211 509.866 689.99 511.867 688.682Z" fill="#EAEAEB"/>
<path fill-rule="evenodd" clip-rule="evenodd" d="M603.368 685.732H636.687C636.107 686.931 635.198 687.95 634.074 688.682C634.304 688.833 634.523 688.994 634.735 689.166H623.94V716.571H620.404V689.166H590.848V716.571H587.312V689.166H582.8V716.571H579.264V689.166H533.609V716.571H530.073V689.166H511.21C511.418 688.994 511.637 688.833 511.867 688.682C510.746 687.95 509.838 686.931 509.258 685.732H550.645V660.796H554.181V685.732H558.693V660.796H562.229V685.732H599.833V660.796H603.368V685.732Z" fill="#CA2ACD"/>
<defs>
<linearGradient id="paint0_linear_18_1687" x1="307.085" y1="572.121" x2="306.408" y2="768.368" gradientUnits="userSpaceOnUse">
<stop stop-color="#000D6B"/>
<stop offset="1" stop-color="#000D6B"/>
</linearGradient>
<linearGradient id="paint1_linear_18_1687" x1="330.251" y1="418.331" x2="339.058" y2="592.582" gradientUnits="userSpaceOnUse">
<stop stop-color="#000D6B"/>
<stop offset="0.45" stop-color="#000D6B"/>
<stop offset="1" stop-color="#FFF0E6"/>
</linearGradient>
<linearGradient id="paint2_linear_18_1687" x1="661.445" y1="453.992" x2="467.168" y2="276.7" gradientUnits="userSpaceOnUse">
<stop stop-color="#000D6B"/>
<stop offset="0.48" stop-color="#000D6B"/>
<stop offset="1" stop-color="#000D6B"/>
</linearGradient>
<linearGradient id="paint3_linear_18_1687" x1="550.511" y1="306.44" x2="564.02" y2="215.094" gradientUnits="userSpaceOnUse">
<stop stop-color="#000D6B"/>
<stop offset="1" stop-color="#FFA396"/>
</linearGradient>
</defs>
</svg>
