<svg width="1010" height="923" viewBox="0 0 1010 923" fill="none" xmlns="http://www.w3.org/2000/svg">
<path fill-rule="evenodd" clip-rule="evenodd" d="M264.602 752.788H404.344V766.241H269.145L303.078 869.337H290.326L202.491 608.155L214.202 603.548L264.602 752.788Z" fill="black"/>
<path fill-rule="evenodd" clip-rule="evenodd" d="M162.262 854.103C162.262 854.103 163.985 766.801 165.304 699.963C166.148 657.158 197.394 622.274 237.008 619.911C324.543 614.637 410.959 613.297 495.593 618.205C536.702 620.598 570.647 653.722 576.973 697.621C576.996 697.617 576.996 697.617 576.996 697.617C580.46 721.629 574.413 746.103 560.332 765.066C542.465 789.039 512.297 822.439 465.586 854.298C465.586 854.298 482.86 859.686 484.625 868.014C484.625 868.014 353.195 867.848 319.7 867.81C318.466 867.806 317.36 866.987 316.914 865.744C316.469 864.505 316.775 863.093 317.685 862.198C341.215 838.988 429.824 751.588 429.824 751.588L280.36 753.225C280.36 753.225 277.96 843.396 277.395 864.578C277.33 867.03 275.459 868.981 273.184 868.964C250.721 868.794 143.45 868.001 143.45 868.001C143.45 868.001 142.711 859.538 162.262 854.103Z" fill="#99DDCC"/>
<path fill-rule="evenodd" clip-rule="evenodd" d="M500.657 827.725L386.242 794.575L389.684 791.177L504.505 824.445C503.239 825.536 501.958 826.63 500.657 827.725ZM279.396 789.429L163.479 792.45L163.563 788.203L279.51 785.183L279.396 789.429Z" fill="#4FC6A8"/>
<path fill-rule="evenodd" clip-rule="evenodd" d="M429.632 751.775L470.3 751.673C470.689 751.673 471.019 751.978 471.078 752.394C471.137 752.81 470.909 753.208 470.536 753.336L405.952 775.133L429.632 751.775ZM280.357 753.353L279.83 773.13L245.527 756.466C244.862 756.144 244.498 755.363 244.651 754.596C244.805 753.824 245.435 753.276 246.164 753.281L280.357 753.353Z" fill="#346864"/>
<path fill-rule="evenodd" clip-rule="evenodd" d="M479.063 436.017C479.063 436.017 439.566 378.468 350.717 403.602C338.752 406.987 243.982 439.446 206.597 530.64C202.941 539.557 183.231 580.101 211.805 601.775C231.742 616.903 253.12 614.099 328.027 587.046C334.366 584.755 373.411 575.854 366.352 566.123C366.352 566.123 369.503 566.811 371.015 564.549C371.015 564.549 371.188 565.715 371.317 566.576C371.404 567.165 371.662 567.709 372.053 568.13C373.844 570.056 379.222 575.842 382.605 579.481C383.187 580.105 384.037 580.343 384.827 580.097C385.616 579.855 386.22 579.168 386.406 578.302C387.405 573.661 388.86 566.9 388.86 566.9C388.86 566.9 424.395 575.222 445.813 537.853C445.813 537.853 446.705 574.764 473.182 589.663C480.914 594.016 523.851 603.26 535.117 555.474C542.995 522.049 548.751 462.326 553.787 419.415C553.787 419.415 580.098 401.591 582.087 393.054C582.803 389.987 579.917 384.951 573.486 390.044C573.486 390.044 583.09 381.232 579.886 377.079C578.101 374.769 574.449 374.648 567.215 381.332C567.215 381.332 576.226 371.373 572.11 367.388C567.683 363.108 562.545 371.911 557.836 376.65C557.836 376.65 568.316 359.284 562.388 356.285C559.876 355.014 557.163 354.854 548.016 367.286C539.544 378.798 527.53 379.986 518.823 378.857C518.823 378.857 522.251 357.166 518.323 355.065C513.889 352.69 509.891 356.936 500.256 378.265C490.742 399.315 485.997 420.171 479.063 436.017Z" fill="#99DDCC"/>
<path fill-rule="evenodd" clip-rule="evenodd" d="M374.515 398.584C443.222 389.266 475.886 431.651 478.842 435.708C474.361 452.96 466.675 489.815 466.675 489.815L458.589 489.693C458.719 511.228 445.852 536.966 445.852 536.966L445.801 537.872C425.437 573.381 391.868 567.492 388.697 566.984L389.733 561.368L387.042 553.221L386.205 550.912C386.205 550.912 389.918 545.542 393.208 540.784C395.983 536.769 395.335 531.107 391.737 527.942C384.542 521.612 373.887 512.238 373.887 512.238C373.825 512.187 373.763 512.136 373.702 512.085C365.142 505.018 354.326 501.922 343.646 503.483C321.012 506.791 275.506 513.443 275.506 513.443L248.032 467.603C280.085 434.234 317.682 416.05 337.703 408.16L374.515 398.584Z" fill="#4FC6A8"/>
<path fill-rule="evenodd" clip-rule="evenodd" d="M371.028 564.634C371.795 563.628 374.328 559.831 372.056 556.166L368.858 551.993C368.858 551.993 373.344 552.692 375.167 552.505C375.167 552.505 374.916 557.351 378.625 558.193C379.64 558.42 380.687 558.011 381.331 557.134C383.12 554.708 387.129 549.254 387.129 549.254C387.129 549.254 389.363 559.663 389.768 561.545C389.808 561.736 389.81 561.934 389.77 562.126C389.402 563.923 387.451 573.449 387.451 573.449L386.406 578.302C386.22 579.167 385.616 579.855 384.826 580.097C384.037 580.343 383.187 580.105 382.605 579.481C379.222 575.841 373.844 570.056 372.053 568.13C371.662 567.709 371.404 567.165 371.317 566.576L371.028 564.634ZM355.188 503.482C355.188 503.482 369.424 505.732 378.559 516.662L372.266 483.886L351.411 484.016L355.188 503.482Z" fill="#A5A6F6"/>
<path fill-rule="evenodd" clip-rule="evenodd" d="M387.559 572.919L387.451 573.449L386.406 578.302C386.22 579.167 385.616 579.855 384.826 580.097C384.037 580.343 383.187 580.105 382.605 579.481L377.819 574.331L387.559 572.919ZM373.427 552.505C374.098 552.543 374.714 552.551 375.167 552.505C375.167 552.505 374.916 557.351 378.625 558.193C379.028 558.283 379.436 558.273 379.822 558.173L380.399 561.069L389.08 558.344L389.768 561.545C389.789 561.644 389.799 561.744 389.799 561.845L371.675 567.615C371.494 567.3 371.372 566.947 371.317 566.576L371.028 564.634C371.166 564.453 371.36 564.184 371.573 563.84L375.453 562.622L373.427 552.505ZM364.174 506.279L359.708 483.964L365.027 483.931L370.097 509.373C368.064 508.098 366.042 507.082 364.174 506.279Z" fill="black"/>
<path fill-rule="evenodd" clip-rule="evenodd" d="M367.114 569.294L355.155 568.262C354.29 568.188 353.644 567.369 353.713 566.435C353.782 565.502 354.541 564.805 355.406 564.879L368.876 566.041C367.583 566.392 366.352 566.123 366.352 566.123C367.128 567.193 367.347 568.252 367.114 569.294ZM372.531 553.292C372.641 553.202 372.764 553.128 372.898 553.071C372.898 553.071 374.405 552.433 376.01 551.754C377.901 550.954 379.304 549.2 379.763 547.065C379.763 547.065 379.763 547.065 379.763 547.064C380.698 542.71 379.014 538.189 375.547 535.745C371.608 532.969 367.392 529.997 367.392 529.997C366.666 529.485 366.461 528.432 366.936 527.648C367.411 526.864 368.386 526.643 369.112 527.156L376.955 532.684L377.165 530.76C377.266 529.83 378.049 529.164 378.91 529.273C379.773 529.383 380.39 530.227 380.288 531.157L379.838 535.284C382.623 538.634 383.8 543.301 382.827 547.83C382.827 547.831 382.827 547.831 382.826 547.831C382.134 551.055 380.014 553.705 377.158 554.913C375.553 555.593 374.047 556.23 374.047 556.23C373.487 556.467 372.876 556.333 372.448 555.938C372.051 556.259 371.52 556.371 371.013 556.191L357.596 551.414C356.772 551.121 356.324 550.161 356.596 549.271C356.867 548.382 357.757 547.898 358.581 548.191L371.999 552.968C372.2 553.04 372.379 553.151 372.531 553.292ZM467.23 471.227C467.23 471.227 455.774 523.063 453.262 546.214C453.16 547.144 453.777 547.987 454.642 548.096C455.503 548.205 456.285 547.539 456.383 546.609C458.888 523.579 470.292 472.015 470.292 472.015C470.493 471.104 469.97 470.188 469.124 469.97C468.283 469.753 467.434 470.316 467.23 471.227ZM283.965 506.651C256.693 513.248 240.03 518.852 231.931 523.717C230.983 524.286 230.642 525.579 231.17 526.602C231.697 527.625 232.895 527.993 233.843 527.424C241.775 522.659 258.116 517.251 284.825 510.791C285.883 510.535 286.55 509.399 286.313 508.257C286.075 507.115 285.023 506.395 283.965 506.651ZM554.274 419.079C553.956 419.298 553.786 419.415 553.786 419.415C553.421 422.522 553.051 425.717 552.682 428.982L544.615 426.693C544.308 426.605 544.08 426.326 544.041 425.985C543.998 425.645 544.151 425.311 544.426 425.141L554.274 419.079ZM580.397 378.072C581.721 382.488 573.486 390.044 573.486 390.044C573.722 389.857 573.953 389.684 574.178 389.524C568.434 395.206 560.678 401.948 553.189 405.505C552.395 405.883 551.467 405.494 551.117 404.636C550.767 403.779 551.129 402.777 551.923 402.4C564.53 396.41 577.9 381.027 580.397 378.072ZM573.183 370.214C573.112 374.814 567.215 381.332 567.215 381.332C567.648 380.929 568.072 380.55 568.485 380.196C562.698 386.201 554.317 394.136 546.954 398.171C546.18 398.596 545.232 398.262 544.839 397.427C544.446 396.591 544.757 395.569 545.531 395.145C557.407 388.637 571.988 371.625 573.183 370.214ZM563.579 363.946C561.979 369.788 557.836 376.65 557.836 376.65C557.965 376.521 558.095 376.389 558.221 376.255C553.425 381.672 546.95 387.602 539.666 390.583C538.852 390.915 537.944 390.474 537.637 389.598C537.331 388.723 537.739 387.742 538.549 387.41C551.125 382.263 561.102 367.782 563.579 363.946Z" fill="#4FC6A8"/>
<path fill-rule="evenodd" clip-rule="evenodd" d="M323.725 506.395L335.883 492.466C336.43 491.839 337.278 491.641 338.017 491.968C338.755 492.294 339.231 493.077 339.213 493.939L339.005 504.162L323.725 506.395ZM458.561 491.791C458.526 489.941 458.282 478.995 457.237 471.483C457.158 471.128 457.339 470.766 457.657 470.639C457.972 470.511 458.329 470.659 458.483 470.984C460.755 475.654 464.206 483.227 466.184 489.807L458.589 489.693C458.593 490.388 458.581 491.088 458.561 491.791Z" fill="#346864"/>
<path d="M371.557 386.055C388.503 386.055 402.241 371.181 402.241 352.833C402.241 334.485 388.503 319.61 371.557 319.61C354.611 319.61 340.874 334.485 340.874 352.833C340.874 371.181 354.611 386.055 371.557 386.055Z" fill="#99DDCC"/>
<path fill-rule="evenodd" clip-rule="evenodd" d="M351.159 377.642C344.85 371.553 340.875 362.692 340.875 352.832C340.875 334.496 354.623 319.61 371.558 319.61C381.93 319.61 391.108 325.195 396.663 333.737L371.535 357.983C371.234 357.027 370.774 356.096 370.152 355.239C367.527 351.617 363.01 350.691 360.071 353.171C357.133 355.651 356.878 360.606 359.504 364.227C360.319 365.353 361.318 366.218 362.395 366.802L351.159 377.642Z" fill="black"/>
<path d="M713.63 410.362H689.699L699.101 447.113H723.032L713.63 410.362Z" fill="white"/>
<path fill-rule="evenodd" clip-rule="evenodd" d="M699.767 446.275H707.357C707.794 446.275 708.146 446.65 708.137 447.113C708.128 447.576 707.763 447.951 707.323 447.951H699.137C698.784 447.951 698.477 447.705 698.385 447.347L688.94 410.596C688.875 410.343 688.926 410.07 689.081 409.859C689.236 409.648 689.472 409.524 689.725 409.524H706.591C707.031 409.524 707.38 409.9 707.371 410.362C707.362 410.825 707 411.201 706.56 411.201H690.752L699.767 446.275Z" fill="black"/>
<path fill-rule="evenodd" clip-rule="evenodd" d="M712.95 411.201H706.365C705.925 411.201 705.575 410.825 705.584 410.362C705.593 409.9 705.956 409.524 706.396 409.524H713.581C713.934 409.524 714.241 409.77 714.333 410.129L723.787 446.879C723.853 447.133 723.801 447.406 723.646 447.616C723.491 447.827 723.254 447.951 723.004 447.951H707.13C706.689 447.951 706.339 447.576 706.348 447.113C706.357 446.65 706.723 446.275 707.164 446.275H721.973L712.95 411.201Z" fill="black"/>
<path d="M712.222 413.664H692.729L693.95 417.729H713.443L712.222 413.664Z" fill="black"/>
<path d="M714.126 420.338H694.633L695.853 424.403H715.346L714.126 420.338Z" fill="black"/>
<path d="M716.03 427.012H696.537L697.757 431.077H717.25L716.03 427.012Z" fill="black"/>
<path d="M717.933 433.686H698.441L699.661 437.75H719.154L717.933 433.686Z" fill="black"/>
<path d="M719.837 440.359H700.344L701.564 444.424H721.057L719.837 440.359Z" fill="black"/>
<path fill-rule="evenodd" clip-rule="evenodd" d="M718.542 431.466C717.776 429.134 713.2 414.538 716.734 408.34C716.974 407.937 717.355 407.657 717.788 407.567C719.046 407.347 721.727 407.92 725.52 414.52C725.52 414.52 759.965 470.347 772.4 478.687C772.4 478.687 772.73 436.059 819.24 429.089C825.695 428.122 871.068 418.604 896.499 486.543C904.912 509.02 904.818 526.992 904.668 546.202C904.57 561.43 897.246 575.54 885.26 583.579C869.555 594.117 850.08 595.763 833.046 587.987C821.618 582.79 806.868 577.509 790.125 574.849L753.369 571.014C753.369 571.014 755.205 581.853 739.987 579.766C739.987 579.766 728.005 578.06 730.399 569.388C730.399 569.388 722.324 567.978 723.991 559.556C723.991 559.556 716.337 553.111 723.134 545.243C723.134 545.243 701.037 544.956 696.544 533.6C696.166 532.617 696.143 531.516 696.485 530.517C696.897 529.282 697.967 527.967 700.573 527.87C700.573 527.87 731.142 527.363 739.185 524.878L721.711 492.797C721.711 492.797 708.101 484.724 704.964 471.82C701.733 471.836 698.989 469.146 698.741 465.613C698.529 462.592 700.211 459.883 702.704 458.846L701.273 458.963C697.892 459.238 694.944 456.501 694.688 452.854C694.484 449.911 696.095 447.27 698.501 446.216C695.238 446.378 692.428 443.708 692.18 440.172C691.928 436.572 694.432 433.428 697.766 433.157L718.542 431.466Z" fill="#A5A6F6"/>
<path fill-rule="evenodd" clip-rule="evenodd" d="M752.866 575.192C745.672 574.747 739.897 576.609 739.897 576.609C738.855 576.949 737.758 576.308 737.448 575.188C737.137 574.068 737.727 572.885 738.768 572.545C738.768 572.545 747.169 569.827 756.702 571.362L753.369 571.014C753.369 571.014 753.715 573.054 752.866 575.192ZM726.7 567.728C728.076 563.225 732.758 553.294 747.633 550.845C748.703 550.668 749.709 551.464 749.87 552.622C750.035 553.779 749.296 554.862 748.223 555.038C735.105 557.199 731.315 566.095 730.348 569.378C730.041 569.317 728.308 568.929 726.7 567.728ZM721.153 555.671C723.075 551.246 728.315 544.056 742.397 541.225C743.462 541.011 744.492 541.771 744.689 542.922C744.889 544.073 744.182 545.182 743.116 545.396C725.548 548.927 723.936 559.823 723.991 559.556C723.991 559.556 722.234 558.076 721.153 555.671ZM718.256 544.876C720.555 541.659 727.836 532.707 738.58 531.046C739.653 530.879 740.651 531.685 740.805 532.844C740.958 534.003 740.211 535.079 739.138 535.245C731.574 536.414 726.031 541.764 723.107 545.26C722.741 545.253 720.846 545.181 718.256 544.876ZM832.586 523.406L856.586 532.51C857.608 532.898 858.733 532.317 859.094 531.212C859.452 530.108 858.913 528.896 857.891 528.508L833.891 519.403C832.865 519.015 831.745 519.596 831.383 520.701C831.026 521.805 831.564 523.017 832.586 523.406ZM737.137 521.113C739.657 520.575 767.391 514.764 787.621 514.998C788.706 515.011 789.579 515.971 789.567 517.142C789.555 518.313 788.663 519.253 787.578 519.241C766.711 518.998 738.647 525.045 739.185 524.878L737.137 521.113ZM721.711 492.797L727.793 495.749C728.583 496.144 728.921 497.154 728.559 498.004C728.19 498.853 727.254 499.222 726.468 498.827L724.443 497.81L721.711 492.797ZM717.513 428.015C721.07 428.64 723.602 430.69 724.522 432.312C726.578 435.931 725.764 439.483 723.798 442.013C723.924 442.687 724.14 443.716 724.467 444.969C724.942 445.33 725.343 445.706 725.678 446.081C727.498 448.122 727.616 450.287 727.651 450.955C727.69 451.76 727.623 452.509 727.466 453.204C729.18 456.685 731.594 460.118 735.002 462.094C735.765 462.537 736.052 463.567 735.643 464.392C735.234 465.217 734.279 465.527 733.512 465.084C732.07 464.247 730.772 463.191 729.605 461.991C729.609 462.007 729.613 462.022 729.617 462.038C730.894 466.347 728.846 470.999 724.931 472.646C718.971 475.169 710.621 475.337 706.057 475.202C705.617 474.115 705.247 472.987 704.964 471.82C704.563 471.822 716.907 472.397 723.783 469.485C726.181 468.477 727.419 465.612 726.597 462.982C726.586 462.952 726.578 462.923 726.57 462.893C725.98 461.143 724.368 460.037 722.647 460.213L719.407 460.543C718.786 460.742 718.393 460.829 718.393 460.829C718.079 460.899 717.764 460.861 717.489 460.739L699.17 462.607C699.81 460.897 701.084 459.52 702.704 458.846L718.829 457.194C719.785 456.868 721.227 456.26 722.458 455.264C723.614 454.327 724.608 453.016 724.51 451.142C724.49 450.771 724.424 449.569 723.413 448.436C722.163 447.039 719.71 445.862 715.02 445.745C714.894 445.742 714.772 445.723 714.658 445.69C709.167 445.886 703.537 445.977 697.939 446.216C695.883 446.113 694.063 444.891 693.037 443.07C701.171 442.571 709.473 442.536 717.406 442.184C718.527 442.135 719.749 441.511 720.728 440.566C720.862 440.31 721.058 440.093 721.298 439.942C722.517 438.423 723.036 436.311 721.841 434.084C720.732 432.022 718.542 431.466 718.542 431.466C718.362 430.913 717.965 429.67 717.513 428.015ZM727.454 460.883C726.924 461.125 726.841 461.377 726.802 461.459C726.884 461.33 726.987 461.213 727.101 461.113C727.207 461.022 727.325 460.944 727.454 460.883L727.482 460.871L727.454 460.883ZM725.689 456.68C725.54 456.856 725.379 457.027 725.218 457.192C725.591 457.328 725.953 457.498 726.299 457.699C726.086 457.362 725.886 457.022 725.689 456.68Z" fill="#CA2ACD"/>
<path fill-rule="evenodd" clip-rule="evenodd" d="M772.27 478.6L772.4 478.687C772.4 478.687 772.73 436.059 819.24 429.089C825.695 428.122 871.069 418.604 896.499 486.543C896.59 486.779 896.676 487.015 896.763 487.249C881.691 504.369 865.121 491.465 865.121 491.465C857.019 518.194 831.112 506.71 831.112 506.71L839.493 526.021C819.92 518.264 781.846 519.389 781.846 519.389C773.953 508.655 772.455 489.322 772.27 478.6Z" fill="#CA2ACD"/>
<path fill-rule="evenodd" clip-rule="evenodd" d="M830.33 523.169C830.33 523.169 825.274 505.56 821.634 492.895C821.473 492.328 821.74 491.72 822.247 491.495C822.758 491.271 823.344 491.506 823.596 492.035C830.039 505.63 839.753 526.118 839.753 526.118L830.33 523.169Z" fill="#000D6B"/>
<path fill-rule="evenodd" clip-rule="evenodd" d="M686.594 637.173C723.087 589.404 798.656 607.124 815.293 609.492C922.964 624.811 899.082 714.065 895.19 725.464C886.644 750.481 866.068 760.157 835.361 763.521V860.615C835.361 860.615 825.99 851.583 823.835 841.325C823.835 841.325 820.14 841.079 813.748 840.388C813.748 840.388 818.611 854.629 821.17 862.13C821.524 863.156 821.386 864.302 820.804 865.197C820.226 866.096 819.279 866.631 818.265 866.631H695.997C702.657 853.514 715.767 853.624 715.767 853.624C710.645 839.777 705.361 826.312 700.16 812.567C666.674 798.13 637.147 776.698 628.141 745.055C624.646 732.777 622.582 678.76 686.594 637.173Z" fill="#000D6B"/>
<path fill-rule="evenodd" clip-rule="evenodd" d="M703.812 822.15C715.987 828.781 737.062 834.932 751.03 809.635C751.325 809.097 751.824 808.732 752.394 808.626C752.964 808.524 753.546 808.698 753.99 809.101C753.99 809.101 762.725 817.072 773.469 821.009C779.665 823.279 786.552 824.237 792.74 821.225C796.836 819.227 800.594 815.481 803.664 809.317C804.175 808.286 805.367 807.896 806.326 808.452C807.281 809.007 807.639 810.293 807.124 811.324C803.558 818.489 799.12 822.77 794.355 825.09C787.244 828.556 779.323 827.635 772.203 825.026C763.747 821.925 756.459 816.482 753.227 813.848C739.181 837.159 719.289 833.863 705.978 827.805L705.051 825.391C704.724 824.539 704.398 823.686 704.072 822.833L703.812 822.15Z" fill="#CA2ACD"/>
<path fill-rule="evenodd" clip-rule="evenodd" d="M792.079 764.404C792.079 764.404 758.703 764.255 740.337 764.175C739.586 764.171 738.945 764.773 738.847 765.579C738.753 766.385 739.224 767.144 739.952 767.348C759.199 772.795 796.065 783.231 796.065 783.231L792.079 764.404Z" fill="#CA2ACD"/>
<path fill-rule="evenodd" clip-rule="evenodd" d="M837.767 763.241C836.969 763.339 836.171 763.432 835.362 763.521V767.662C820.706 768.655 807.128 768.901 793.888 768.705L817.946 840.816C816.72 840.698 815.312 840.558 813.748 840.388L817.255 850.663C817.054 850.446 816.889 850.179 816.787 849.869L789.685 768.633C787.208 768.578 784.744 768.51 782.279 768.43C781.198 768.396 780.345 767.416 780.376 766.249C780.408 765.078 781.316 764.158 782.397 764.192C800.032 764.764 817.876 764.697 837.767 763.241ZM696.469 626.554C674.065 648.114 665.228 671.641 671.408 712.631C675.614 740.545 686.708 776.418 705.129 824.988C705.251 825.306 705.294 825.642 705.271 825.964C703.565 821.514 701.859 817.055 700.16 812.567C698.592 811.892 697.035 811.201 695.486 810.492C680.489 769.562 671.29 738.275 667.528 713.314C662.924 682.794 666.356 661.562 677.171 643.727C680.139 641.512 683.276 639.328 686.594 637.173C689.633 633.193 692.943 629.668 696.469 626.554Z" fill="#CA2ACD"/>
<path d="M783.664 426.745C799.592 426.745 812.503 412.708 812.503 395.393C812.503 378.077 799.592 364.041 783.664 364.041C767.736 364.041 754.824 378.077 754.824 395.393C754.824 412.708 767.736 426.745 783.664 426.745Z" fill="#A5A6F6"/>
<path fill-rule="evenodd" clip-rule="evenodd" d="M761.274 375.64C766.566 368.564 774.633 364.04 783.667 364.04C799.584 364.04 812.506 378.088 812.506 395.392C812.506 398.929 811.967 402.329 810.973 405.5C805.886 405.019 802.996 400.931 802.002 399.222C803.861 398.189 805.154 395.911 805.154 393.269C805.154 389.657 802.737 386.725 799.757 386.725C796.777 386.725 794.359 389.657 794.359 393.269C794.359 394.123 794.493 394.939 794.741 395.687C776.469 397.812 764.848 381.533 761.274 375.64ZM774.373 359.05C775.12 359.321 775.942 359.011 776.37 358.296C776.795 357.581 776.72 356.645 776.182 356.023C776.028 355.819 775.855 355.62 775.674 355.416C771.13 350.301 766.012 345.66 760.559 341.735C743.789 329.656 723.806 320.622 704.162 315.828C683.869 310.876 658.541 310.598 640.611 323.412C628.813 331.842 619.991 349.68 630.161 363.609C633.81 368.605 639.05 372.077 644.467 374.416C666.395 383.881 689.259 377.91 710.09 368.431C721.951 363.035 733.744 355.881 746.662 353.661C754.772 352.267 767.285 356.341 774.373 359.05Z" fill="black"/>
<path fill-rule="evenodd" clip-rule="evenodd" d="M885.592 764.588L940.467 604.708L952.178 609.315L865.04 867.341H850.325L880.977 778.036H793.673V764.588H885.592Z" fill="black"/>
<path d="M676.223 438.222H510.007L528.274 563.249H694.49L676.223 438.222Z" fill="black"/>
<path d="M633.031 557.019H595.862L600.882 591.34H638.051L633.031 557.019Z" fill="black"/>
<path d="M666.992 447.754H521.65L536.739 551.112H682.082L666.992 447.754Z" fill="#EAEAEB"/>
<path d="M661.821 456.885H612.34L619.055 502.796H668.537L661.821 456.885Z" fill="white"/>
<path fill-rule="evenodd" clip-rule="evenodd" d="M613.717 458.158L616.029 474.039C616.13 474.732 615.688 475.389 615.042 475.505C614.396 475.622 613.79 475.155 613.689 474.462L611.161 457.097C611.107 456.727 611.207 456.349 611.436 456.064C611.664 455.778 611.996 455.613 612.345 455.613H661.575C662.152 455.613 662.641 456.061 662.73 456.674L665.259 474.039C665.36 474.732 664.917 475.389 664.271 475.505C663.625 475.622 663.02 475.155 662.919 474.462L660.546 458.158H613.717Z" fill="black"/>
<path fill-rule="evenodd" clip-rule="evenodd" d="M667.154 501.524L663.207 474.462C663.106 473.769 663.549 473.112 664.196 472.995C664.843 472.879 665.45 473.346 665.551 474.039L669.715 502.585C669.768 502.954 669.668 503.332 669.439 503.618C669.21 503.904 668.877 504.069 668.528 504.069H619.193C618.614 504.069 618.125 503.62 618.035 503.008L613.872 474.462C613.771 473.769 614.215 473.112 614.862 472.995C615.509 472.879 616.116 473.346 616.217 474.039L620.226 501.524H667.154Z" fill="black"/>
<path fill-rule="evenodd" clip-rule="evenodd" d="M637.265 502.797H634.875L627.661 456.885H630.055L637.265 502.797ZM654.708 502.797H652.314L645.104 456.885H647.494L654.708 502.797Z" fill="black"/>
<path fill-rule="evenodd" clip-rule="evenodd" d="M666.887 492.232H617.857L617.46 489.686H666.49L666.887 492.232ZM665.122 480.915H616.092L615.695 478.37H664.724L665.122 480.915ZM663.223 468.746H614.193L613.792 466.201H662.826L663.223 468.746Z" fill="black"/>
<path fill-rule="evenodd" clip-rule="evenodd" d="M599.282 541.993H639.03L628.776 472.344H600.073" fill="white"/>
<path fill-rule="evenodd" clip-rule="evenodd" d="M627.746 473.617H600.061C599.401 473.617 598.871 473.047 598.879 472.344C598.886 471.642 599.43 471.072 600.091 471.072H628.787C629.372 471.072 629.866 471.52 629.956 472.133L640.208 541.781C640.262 542.151 640.16 542.529 639.93 542.815C639.698 543.1 639.361 543.265 639.01 543.265H599.271C598.611 543.265 598.081 542.695 598.089 541.993C598.096 541.29 598.64 540.72 599.3 540.72H637.622L627.746 473.617Z" fill="black"/>
<path fill-rule="evenodd" clip-rule="evenodd" d="M600.561 472.344H543.203L553.415 541.993H599.774" fill="white"/>
<path fill-rule="evenodd" clip-rule="evenodd" d="M554.442 540.72H599.787C600.445 540.72 600.974 541.29 600.967 541.993C600.958 542.695 600.418 543.265 599.758 543.265H553.405C552.823 543.265 552.331 542.817 552.241 542.204L542.025 472.556C541.971 472.187 542.073 471.809 542.302 471.522C542.533 471.237 542.868 471.072 543.218 471.072H600.57C601.228 471.072 601.757 471.642 601.749 472.344C601.74 473.047 601.2 473.617 600.541 473.617H544.6L554.442 540.72Z" fill="black"/>
<path d="M628.251 472.344H543.203L544.417 480.708H629.465L628.251 472.344Z" fill="black"/>
<path fill-rule="evenodd" clip-rule="evenodd" d="M635.972 522.396H551.015L550.618 519.851H635.575L635.972 522.396ZM632.469 499.965H547.516L547.115 497.42H632.072L632.469 499.965Z" fill="black"/>
<path fill-rule="evenodd" clip-rule="evenodd" d="M575.848 541.993H573.458L562.518 472.344H564.908L575.848 541.993ZM598.999 541.993H596.605L585.664 472.344H588.059L598.999 541.993ZM621.859 541.993H619.469L608.528 472.344H610.918L621.859 541.993Z" fill="black"/>
<path d="M629.739 512.645C629.786 513.336 629.658 513.979 629.356 514.572C629.037 515.151 628.571 515.63 627.927 516.012C627.282 516.377 626.503 516.609 625.589 516.691C624.49 516.79 623.578 516.662 622.836 516.292C622.319 516.031 621.873 515.651 621.528 515.164C621.168 514.678 620.979 514.194 620.946 513.711C620.927 513.422 621.003 513.172 621.191 512.961C621.363 512.735 621.589 512.618 621.883 512.591C622.115 512.57 622.322 512.633 622.502 512.762C622.684 512.908 622.839 513.136 622.968 513.432C623.133 513.789 623.309 514.081 623.495 514.307C623.667 514.534 623.913 514.722 624.218 514.857C624.539 514.99 624.932 515.035 625.412 514.992C626.077 514.932 626.608 514.723 627.005 514.363C627.401 514.004 627.575 513.584 627.542 513.101C627.516 512.715 627.387 512.419 627.138 512.199C626.905 511.977 626.598 511.827 626.234 511.73C625.869 511.634 625.38 511.548 624.782 511.457C623.979 511.335 623.298 511.169 622.738 510.961C622.179 510.752 621.736 510.436 621.381 510.015C621.04 509.593 620.848 509.06 620.802 508.384C620.76 507.757 620.892 507.179 621.183 506.651C621.491 506.138 621.945 505.709 622.547 505.396C623.163 505.065 623.897 504.869 624.749 504.793C625.43 504.731 626.024 504.759 626.532 504.891C627.039 505.023 627.474 505.227 627.819 505.487C628.164 505.747 628.417 506.032 628.593 506.34C628.77 506.648 628.868 506.946 628.889 507.252C628.908 507.525 628.832 507.791 628.661 508.017C628.475 508.26 628.25 508.393 627.971 508.419C627.708 508.442 627.518 508.395 627.37 508.279C627.221 508.146 627.067 507.95 626.891 507.658C626.661 507.242 626.39 506.927 626.095 506.71C625.8 506.494 625.342 506.406 624.707 506.463C624.134 506.515 623.678 506.685 623.341 506.991C623.002 507.28 622.838 507.619 622.863 507.989C622.878 508.214 622.955 508.417 623.089 508.567C623.225 508.733 623.389 508.847 623.614 508.956C623.839 509.05 624.062 509.127 624.285 509.187C624.506 509.232 624.868 509.297 625.373 509.381C626.003 509.486 626.587 509.595 627.11 509.726C627.619 509.874 628.068 510.06 628.441 510.286C628.815 510.511 629.117 510.824 629.345 511.207C629.574 511.591 629.7 512.066 629.739 512.645Z" fill="black"/>
<path fill-rule="evenodd" clip-rule="evenodd" d="M623.225 504.233L624.896 517.423C624.985 518.119 625.581 518.605 626.227 518.509C626.878 518.413 627.33 517.77 627.245 517.074L625.574 503.884C625.489 503.188 624.889 502.702 624.242 502.798C623.592 502.895 623.14 503.537 623.225 504.233Z" fill="black"/>
<path fill-rule="evenodd" clip-rule="evenodd" d="M554.148 484.78L555.496 493.24C555.607 493.932 556.22 494.397 556.861 494.278C557.501 494.159 557.934 493.5 557.82 492.808L556.471 484.349C556.361 483.657 555.752 483.191 555.111 483.31C554.47 483.43 554.038 484.088 554.148 484.78Z" fill="black"/>
<path fill-rule="evenodd" clip-rule="evenodd" d="M561.595 528.002L562.943 536.461C563.053 537.154 563.667 537.619 564.307 537.5C564.948 537.381 565.381 536.722 565.267 536.03L563.918 527.57C563.808 526.878 563.199 526.413 562.558 526.532C561.917 526.651 561.485 527.309 561.595 528.002Z" fill="black"/>
<path fill-rule="evenodd" clip-rule="evenodd" d="M581.294 506.584C581.66 506.523 581.964 506.839 582.256 507.229C582.74 507.868 583.092 508.808 583.229 509.882C583.367 510.957 583.265 511.971 582.961 512.741C582.778 513.209 582.566 513.609 582.199 513.67C581.543 513.778 581.085 514.427 581.173 515.119C581.261 515.811 581.864 516.286 582.52 516.178C583.444 516.025 584.269 515.397 584.847 514.369C585.508 513.185 585.85 511.406 585.606 509.491C585.361 507.576 584.587 505.981 583.657 505.059C582.846 504.26 581.898 503.924 580.973 504.076C580.317 504.184 579.858 504.833 579.947 505.526C580.035 506.217 580.637 506.692 581.294 506.584Z" fill="black"/>
<path fill-rule="evenodd" clip-rule="evenodd" d="M582.246 513.641C581.883 513.701 581.575 513.385 581.283 512.996C580.802 512.356 580.451 511.416 580.313 510.341C580.176 509.267 580.278 508.252 580.579 507.484C580.761 507.016 580.977 506.614 581.34 506.554C581.996 506.446 582.458 505.797 582.37 505.105C582.281 504.413 581.676 503.939 581.02 504.047C580.095 504.199 579.274 504.827 578.696 505.855C578.032 507.04 577.692 508.818 577.937 510.733C578.182 512.648 578.952 514.244 579.886 515.165C580.697 515.964 581.642 516.301 582.566 516.148C583.222 516.04 583.684 515.39 583.596 514.699C583.508 514.007 582.902 513.533 582.246 513.641Z" fill="black"/>
<path fill-rule="evenodd" clip-rule="evenodd" d="M584.508 528.918C584.874 528.858 585.178 529.174 585.47 529.563C585.955 530.203 586.307 531.143 586.444 532.217C586.581 533.292 586.479 534.306 586.175 535.076C585.992 535.544 585.78 535.944 585.414 536.005C584.758 536.113 584.299 536.762 584.387 537.454C584.476 538.146 585.078 538.621 585.734 538.512C586.659 538.36 587.484 537.732 588.061 536.704C588.722 535.52 589.065 533.741 588.82 531.826C588.575 529.911 587.802 528.316 586.871 527.394C586.06 526.595 585.112 526.259 584.187 526.411C583.531 526.519 583.073 527.168 583.161 527.86C583.25 528.552 583.852 529.027 584.508 528.918Z" fill="black"/>
<path fill-rule="evenodd" clip-rule="evenodd" d="M585.46 535.976C585.097 536.035 584.79 535.72 584.498 535.331C584.017 534.691 583.665 533.751 583.528 532.676C583.39 531.602 583.492 530.587 583.793 529.818C583.976 529.35 584.192 528.949 584.554 528.889C585.21 528.781 585.673 528.132 585.584 527.44C585.496 526.748 584.89 526.274 584.234 526.382C583.309 526.534 582.488 527.162 581.91 528.19C581.246 529.374 580.907 531.153 581.151 533.068C581.396 534.983 582.167 536.579 583.1 537.5C583.911 538.299 584.856 538.636 585.781 538.483C586.437 538.375 586.899 537.725 586.81 537.033C586.722 536.342 586.116 535.868 585.46 535.976Z" fill="black"/>
<path fill-rule="evenodd" clip-rule="evenodd" d="M607.483 528.905C607.85 528.845 608.154 529.161 608.446 529.55C608.93 530.19 609.282 531.13 609.419 532.204C609.557 533.279 609.455 534.293 609.15 535.063C608.968 535.53 608.755 535.931 608.389 535.992C607.733 536.1 607.274 536.749 607.363 537.441C607.451 538.133 608.053 538.607 608.709 538.499C609.634 538.347 610.459 537.719 611.037 536.691C611.698 535.507 612.04 533.727 611.796 531.813C611.551 529.898 610.777 528.303 609.847 527.381C609.036 526.582 608.088 526.246 607.163 526.398C606.507 526.506 606.048 527.155 606.137 527.847C606.225 528.539 606.827 529.013 607.483 528.905Z" fill="black"/>
<path fill-rule="evenodd" clip-rule="evenodd" d="M608.436 535.962C608.073 536.022 607.765 535.707 607.473 535.318C606.992 534.677 606.641 533.738 606.503 532.663C606.366 531.589 606.468 530.574 606.769 529.805C606.951 529.337 607.167 528.936 607.53 528.876C608.186 528.768 608.648 528.119 608.56 527.427C608.471 526.734 607.866 526.261 607.21 526.369C606.285 526.521 605.464 527.149 604.886 528.177C604.221 529.361 603.882 531.14 604.127 533.055C604.372 534.97 605.142 536.566 606.076 537.486C606.887 538.286 607.831 538.623 608.756 538.47C609.412 538.362 609.874 537.712 609.786 537.02C609.697 536.328 609.092 535.854 608.436 535.962Z" fill="black"/>
<path d="M581.747 362.401L535.06 341.14L509.609 402.549L556.296 423.81L581.747 362.401Z" fill="#A5A6F6"/>
<path d="M575.108 366.534L537.103 349.362L533.842 357.169L571.847 374.341L575.108 366.534Z" fill="white"/>
<path fill-rule="evenodd" clip-rule="evenodd" d="M535.808 364.625C537.441 365.403 538.254 367.36 537.607 369.003C536.961 370.645 535.107 371.333 533.474 370.556L533.019 371.712C535.273 372.785 537.821 371.798 538.714 369.529C539.607 367.26 538.517 364.542 536.264 363.469L535.808 364.625Z" fill="white"/>
<path fill-rule="evenodd" clip-rule="evenodd" d="M533.568 370.636C531.936 369.859 531.123 367.902 531.77 366.259C532.416 364.617 534.27 363.929 535.903 364.706L536.358 363.549C534.101 362.475 531.552 363.461 530.659 365.73C529.766 367.999 530.856 370.718 533.113 371.793L533.568 370.636Z" fill="white"/>
<path fill-rule="evenodd" clip-rule="evenodd" d="M531.787 374.652C533.419 375.429 534.232 377.386 533.586 379.029C532.939 380.671 531.085 381.359 529.453 380.582L528.997 381.739C531.251 382.812 533.799 381.825 534.692 379.556C535.585 377.287 534.496 374.568 532.242 373.495L531.787 374.652Z" fill="white"/>
<path fill-rule="evenodd" clip-rule="evenodd" d="M529.547 380.663C527.914 379.885 527.102 377.928 527.748 376.285C528.395 374.643 530.248 373.955 531.881 374.732L532.336 373.576C530.079 372.501 527.531 373.488 526.638 375.757C525.745 378.026 526.834 380.744 529.092 381.819L529.547 380.663Z" fill="white"/>
<path fill-rule="evenodd" clip-rule="evenodd" d="M527.765 384.677C529.398 385.455 530.21 387.412 529.564 389.055C528.918 390.697 527.064 391.385 525.431 390.608L524.976 391.764C527.229 392.837 529.778 391.851 530.671 389.582C531.564 387.313 530.474 384.594 528.22 383.521L527.765 384.677Z" fill="white"/>
<path fill-rule="evenodd" clip-rule="evenodd" d="M525.525 390.688C523.893 389.911 523.08 387.954 523.726 386.311C524.373 384.669 526.227 383.981 527.859 384.758L528.315 383.601C526.057 382.527 523.509 383.514 522.616 385.783C521.723 388.052 522.813 390.77 525.07 391.845L525.525 390.688Z" fill="white"/>
<path fill-rule="evenodd" clip-rule="evenodd" d="M523.743 394.704C525.376 395.481 526.189 397.438 525.542 399.081C524.896 400.723 523.042 401.411 521.409 400.634L520.954 401.791C523.207 402.864 525.756 401.877 526.649 399.608C527.542 397.339 526.452 394.62 524.198 393.547L523.743 394.704Z" fill="white"/>
<path fill-rule="evenodd" clip-rule="evenodd" d="M521.503 400.715C519.871 399.937 519.058 397.98 519.705 396.337C520.351 394.695 522.205 394.007 523.838 394.784L524.293 393.628C522.035 392.553 519.487 393.54 518.594 395.809C517.701 398.078 518.791 400.797 521.048 401.871L521.503 400.715Z" fill="white"/>
<path fill-rule="evenodd" clip-rule="evenodd" d="M545.206 369.015C546.839 369.793 547.651 371.75 547.005 373.392C546.358 375.035 544.504 375.723 542.872 374.946L542.416 376.102C544.67 377.175 547.218 376.188 548.111 373.919C549.005 371.65 547.915 368.932 545.661 367.859L545.206 369.015Z" fill="white"/>
<path fill-rule="evenodd" clip-rule="evenodd" d="M542.966 375.026C541.333 374.249 540.521 372.292 541.167 370.649C541.814 369.007 543.667 368.319 545.3 369.096L545.755 367.939C543.498 366.865 540.95 367.851 540.057 370.12C539.164 372.389 540.253 375.108 542.511 376.183L542.966 375.026Z" fill="white"/>
<path fill-rule="evenodd" clip-rule="evenodd" d="M541.184 379.041C542.817 379.818 543.629 381.776 542.983 383.418C542.336 385.061 540.482 385.749 538.85 384.972L538.394 386.128C540.648 387.201 543.196 386.214 544.089 383.945C544.983 381.676 543.893 378.958 541.639 377.885L541.184 379.041Z" fill="white"/>
<path fill-rule="evenodd" clip-rule="evenodd" d="M538.944 385.052C537.311 384.275 536.499 382.317 537.145 380.675C537.792 379.032 539.645 378.344 541.278 379.122L541.733 377.965C539.476 376.89 536.928 377.877 536.035 380.146C535.142 382.415 536.231 385.134 538.489 386.209L538.944 385.052Z" fill="white"/>
<path fill-rule="evenodd" clip-rule="evenodd" d="M537.162 389.067C538.795 389.845 539.608 391.802 538.961 393.445C538.315 395.087 536.461 395.775 534.828 394.998L534.373 396.154C536.627 397.227 539.175 396.241 540.068 393.972C540.961 391.703 539.871 388.984 537.618 387.911L537.162 389.067Z" fill="white"/>
<path fill-rule="evenodd" clip-rule="evenodd" d="M534.922 395.078C533.29 394.301 532.477 392.344 533.124 390.701C533.77 389.059 535.624 388.371 537.257 389.148L537.712 387.991C535.454 386.917 532.906 387.904 532.013 390.172C531.12 392.441 532.21 395.16 534.467 396.235L534.922 395.078Z" fill="white"/>
<path fill-rule="evenodd" clip-rule="evenodd" d="M533.14 399.093C534.773 399.871 535.586 401.828 534.939 403.47C534.293 405.113 532.439 405.801 530.806 405.024L530.351 406.18C532.605 407.253 535.153 406.266 536.046 403.997C536.939 401.728 535.849 399.01 533.596 397.937L533.14 399.093Z" fill="white"/>
<path fill-rule="evenodd" clip-rule="evenodd" d="M530.9 405.104C529.268 404.327 528.455 402.37 529.102 400.727C529.748 399.085 531.602 398.397 533.235 399.174L533.69 398.017C531.433 396.943 528.884 397.929 527.991 400.198C527.098 402.467 528.188 405.186 530.445 406.261L530.9 405.104Z" fill="white"/>
<path fill-rule="evenodd" clip-rule="evenodd" d="M554.603 373.405C556.236 374.182 557.048 376.139 556.402 377.782C555.755 379.425 553.902 380.113 552.269 379.335L551.814 380.492C554.067 381.565 556.616 380.578 557.509 378.309C558.402 376.04 557.312 373.321 555.058 372.248L554.603 373.405Z" fill="white"/>
<path fill-rule="evenodd" clip-rule="evenodd" d="M552.363 379.416C550.73 378.638 549.918 376.681 550.564 375.039C551.211 373.396 553.065 372.708 554.697 373.485L555.153 372.329C552.895 371.254 550.347 372.241 549.454 374.51C548.561 376.779 549.651 379.498 551.908 380.572L552.363 379.416Z" fill="white"/>
<path fill-rule="evenodd" clip-rule="evenodd" d="M550.581 383.431C552.214 384.208 553.027 386.166 552.38 387.808C551.734 389.451 549.88 390.139 548.247 389.362L547.792 390.518C550.046 391.591 552.594 390.604 553.487 388.335C554.38 386.066 553.29 383.347 551.037 382.275L550.581 383.431Z" fill="white"/>
<path fill-rule="evenodd" clip-rule="evenodd" d="M548.341 389.442C546.709 388.665 545.896 386.707 546.543 385.065C547.189 383.422 549.043 382.734 550.676 383.512L551.131 382.355C548.874 381.28 546.325 382.267 545.432 384.536C544.539 386.805 545.629 389.524 547.886 390.599L548.341 389.442Z" fill="white"/>
<path fill-rule="evenodd" clip-rule="evenodd" d="M546.559 393.457C548.192 394.234 549.005 396.192 548.358 397.834C547.712 399.477 545.858 400.165 544.225 399.387L543.77 400.544C546.024 401.617 548.572 400.63 549.465 398.361C550.358 396.092 549.268 393.373 547.015 392.3L546.559 393.457Z" fill="white"/>
<path fill-rule="evenodd" clip-rule="evenodd" d="M544.32 399.468C542.687 398.691 541.874 396.733 542.521 395.091C543.167 393.448 545.021 392.76 546.654 393.537L547.109 392.381C544.852 391.306 542.303 392.293 541.41 394.562C540.517 396.831 541.607 399.55 543.864 400.624L544.32 399.468Z" fill="white"/>
<path fill-rule="evenodd" clip-rule="evenodd" d="M542.538 403.483C544.171 404.261 544.983 406.218 544.337 407.86C543.69 409.503 541.836 410.191 540.204 409.414L539.748 410.57C542.002 411.643 544.55 410.656 545.443 408.387C546.336 406.118 545.247 403.4 542.993 402.327L542.538 403.483Z" fill="white"/>
<path fill-rule="evenodd" clip-rule="evenodd" d="M540.298 409.494C538.665 408.717 537.853 406.759 538.499 405.117C539.146 403.474 540.999 402.786 542.632 403.564L543.087 402.407C540.83 401.333 538.282 402.319 537.389 404.588C536.496 406.857 537.585 409.576 539.843 410.651L540.298 409.494Z" fill="white"/>
<path fill-rule="evenodd" clip-rule="evenodd" d="M564 377.795C565.633 378.572 566.445 380.529 565.799 382.172C565.152 383.814 563.299 384.502 561.666 383.725L561.211 384.882C563.464 385.955 566.013 384.968 566.906 382.699C567.799 380.43 566.709 377.711 564.455 376.638L564 377.795Z" fill="white"/>
<path fill-rule="evenodd" clip-rule="evenodd" d="M561.76 383.806C560.128 383.028 559.315 381.071 559.961 379.428C560.608 377.786 562.462 377.098 564.094 377.875L564.55 376.719C562.292 375.644 559.744 376.631 558.851 378.9C557.958 381.169 559.048 383.888 561.305 384.962L561.76 383.806Z" fill="white"/>
<path fill-rule="evenodd" clip-rule="evenodd" d="M559.978 387.821C561.611 388.598 562.424 390.556 561.777 392.198C561.131 393.841 559.277 394.529 557.644 393.751L557.189 394.908C559.443 395.981 561.991 394.994 562.884 392.725C563.777 390.456 562.687 387.737 560.434 386.665L559.978 387.821Z" fill="white"/>
<path fill-rule="evenodd" clip-rule="evenodd" d="M557.739 393.832C556.106 393.055 555.293 391.097 555.94 389.455C556.586 387.812 558.44 387.124 560.073 387.901L560.528 386.745C558.271 385.67 555.722 386.657 554.829 388.926C553.936 391.195 555.026 393.914 557.283 394.988L557.739 393.832Z" fill="white"/>
<path fill-rule="evenodd" clip-rule="evenodd" d="M555.957 397.847C557.589 398.624 558.402 400.582 557.755 402.224C557.109 403.867 555.255 404.555 553.622 403.777L553.167 404.934C555.421 406.007 557.969 405.02 558.862 402.751C559.755 400.482 558.665 397.763 556.412 396.69L555.957 397.847Z" fill="white"/>
<path fill-rule="evenodd" clip-rule="evenodd" d="M553.717 403.858C552.084 403.08 551.271 401.123 551.918 399.481C552.564 397.838 554.418 397.15 556.051 397.927L556.506 396.771C554.249 395.696 551.7 396.683 550.807 398.952C549.914 401.221 551.004 403.94 553.261 405.014L553.717 403.858Z" fill="white"/>
<path fill-rule="evenodd" clip-rule="evenodd" d="M551.935 407.873C553.568 408.65 554.38 410.608 553.734 412.25C553.087 413.893 551.233 414.581 549.601 413.804L549.145 414.96C551.399 416.033 553.947 415.046 554.84 412.777C555.733 410.508 554.644 407.79 552.39 406.717L551.935 407.873Z" fill="white"/>
<path fill-rule="evenodd" clip-rule="evenodd" d="M549.695 413.884C548.062 413.107 547.25 411.149 547.896 409.507C548.543 407.864 550.397 407.176 552.029 407.954L552.484 406.797C550.227 405.723 547.679 406.709 546.786 408.978C545.893 411.247 546.982 413.966 549.24 415.041L549.695 413.884Z" fill="white"/>
<path d="M828.038 589.994H301.09V606.092H828.038V589.994Z" fill="black"/>
<path fill-rule="evenodd" clip-rule="evenodd" d="M678.481 581.452H685.2V578.415H695.688V581.452H702.839V578.415H713.327V581.452H720.482V578.415H730.97V581.452H733.203C734.229 581.452 735.212 581.894 735.939 582.678C736.663 583.459 737.072 584.52 737.072 585.627V589.861H661.09C661.09 589.861 661.09 587.74 661.09 585.627C661.09 584.52 661.498 583.459 662.222 582.678C662.949 581.894 663.932 581.452 664.958 581.452H667.993V578.415H678.481V581.452Z" fill="#D2D3D5"/>
<path d="M418.502 579.754H326.257V591.113H418.502V579.754Z" fill="white"/>
<path fill-rule="evenodd" clip-rule="evenodd" d="M376.158 577.891V581.284H328.352V588.585H376.158V591.979H326.779C325.911 591.979 325.207 591.22 325.207 590.282V579.587C325.207 578.65 325.911 577.891 326.779 577.891H376.158Z" fill="black"/>
<path fill-rule="evenodd" clip-rule="evenodd" d="M376.158 577.891H419.839C420.708 577.891 421.412 578.65 421.412 579.587V590.282C421.412 591.22 420.708 591.979 419.839 591.979H376.158C374.695 590.316 375.254 589.387 376.158 588.585H418.267V581.284H376.158C375.562 580.033 375.416 578.87 376.158 577.891Z" fill="black"/>
<path fill-rule="evenodd" clip-rule="evenodd" d="M381.87 580.105L382.127 590.762C382.15 591.699 382.872 592.437 383.74 592.416C384.607 592.391 385.293 591.61 385.271 590.673L385.014 580.016C384.991 579.083 384.268 578.34 383.401 578.366C382.533 578.391 381.847 579.172 381.87 580.105ZM401.614 575.142V590.108C401.614 591.046 402.319 591.805 403.187 591.805C404.054 591.805 404.759 591.046 404.759 590.108V575.142C404.759 574.204 404.054 573.445 403.187 573.445C402.319 573.445 401.614 574.204 401.614 575.142ZM391.924 575.388V589.145C391.924 590.083 392.629 590.842 393.497 590.842C394.365 590.842 395.069 590.083 395.069 589.145V575.388C395.069 574.45 394.365 573.691 393.497 573.691C392.629 573.691 391.924 574.45 391.924 575.388ZM410.856 575.29V588.785C410.856 589.718 411.56 590.482 412.429 590.482C413.298 590.482 414.001 589.718 414.001 588.785V575.29C414.001 574.357 413.298 573.593 412.429 573.593C411.56 573.593 410.856 574.357 410.856 575.29Z" fill="black"/>
<path fill-rule="evenodd" clip-rule="evenodd" d="M441.307 499.145H438.523C436.974 499.145 435.716 497.787 435.716 496.116C435.716 494.444 436.974 493.087 438.523 493.087H508.333C509.886 493.087 511.14 494.444 511.14 496.116C511.14 497.787 509.886 499.145 508.333 499.145H507.036C508.447 499.68 509.748 500.554 510.826 501.719C512.72 503.761 513.782 506.53 513.782 509.417V589.876H434.557C434.557 589.876 434.557 533.642 434.557 509.417C434.557 506.53 435.622 503.761 437.513 501.719C438.594 500.554 439.891 499.68 441.307 499.145Z" fill="#EAEAEB"/>
<path fill-rule="evenodd" clip-rule="evenodd" d="M507.036 499.145C508.042 499.526 508.99 500.079 509.843 500.786L436.357 503.213C436.699 502.682 437.084 502.182 437.513 501.719C438.594 500.554 439.891 499.68 441.306 499.145H507.036Z" fill="#CA2ACD"/>
<path d="M463.032 513.166L436.941 521.98L449.809 569.296L475.899 560.482L463.032 513.166Z" fill="#CA2ACD"/>
<path fill-rule="evenodd" clip-rule="evenodd" d="M456.838 536.155C459.834 536.155 462.267 538.781 462.267 542.016C462.267 545.25 459.834 547.875 456.838 547.875C456.186 547.875 455.659 548.446 455.659 549.148C455.659 549.851 456.186 550.421 456.838 550.421C461.135 550.421 464.626 546.654 464.626 542.016C464.626 537.377 461.135 533.61 456.838 533.61C456.186 533.61 455.659 534.18 455.659 534.882C455.659 535.585 456.186 536.155 456.838 536.155Z" fill="#000D6B"/>
<path fill-rule="evenodd" clip-rule="evenodd" d="M456.838 547.875C453.839 547.875 451.409 545.25 451.409 542.016C451.409 538.781 453.839 536.155 456.838 536.155C457.487 536.155 458.018 535.585 458.018 534.882C458.018 534.18 457.487 533.61 456.838 533.61C452.538 533.61 449.051 537.377 449.051 542.016C449.051 546.654 452.538 550.421 456.838 550.421C457.487 550.421 458.018 549.851 458.018 549.148C458.018 548.446 457.487 547.875 456.838 547.875Z" fill="#000D6B"/>
<path fill-rule="evenodd" clip-rule="evenodd" d="M459.351 566.355L457.314 559.629C457.047 558.739 457.499 557.78 458.321 557.489C459.146 557.199 460.035 557.685 460.306 558.576L462.362 565.37L459.351 566.355ZM463.585 564.97L462.213 560.183C461.957 559.288 462.421 558.337 463.25 558.06C464.08 557.784 464.96 558.285 465.216 559.18L466.596 563.985L463.585 564.97ZM453.591 516.073L455.813 523.821C456.068 524.716 455.604 525.667 454.775 525.944C453.945 526.221 453.065 525.719 452.809 524.824L450.58 517.058L453.591 516.073ZM448.666 517.684L450.533 523.558C450.816 524.444 450.376 525.41 449.554 525.714C448.733 526.018 447.84 525.545 447.557 524.659L445.654 518.669L448.666 517.684Z" fill="#000D6B"/>
<path d="M512.557 541.432L486.308 533.625L474.824 581.485L501.073 589.293L512.557 541.432Z" fill="#CA2ACD"/>
<path fill-rule="evenodd" clip-rule="evenodd" d="M496.421 557.382C499.015 559.134 499.862 562.767 498.309 565.487C496.757 568.208 493.389 568.993 490.795 567.24C490.23 566.858 489.5 567.03 489.162 567.621C488.825 568.212 489.008 568.999 489.573 569.381C493.294 571.895 498.125 570.769 500.352 566.867C502.579 562.965 501.364 557.754 497.643 555.241C497.078 554.859 496.347 555.031 496.01 555.621C495.673 556.212 495.856 557 496.421 557.382Z" fill="#000D6B"/>
<path fill-rule="evenodd" clip-rule="evenodd" d="M490.904 567.344C488.306 565.59 487.462 561.96 489.015 559.239C490.567 556.519 493.932 555.731 496.53 557.486C497.091 557.865 497.825 557.696 498.162 557.105C498.499 556.515 498.313 555.724 497.751 555.345C494.027 552.829 489.199 553.958 486.972 557.86C484.745 561.762 485.957 566.97 489.682 569.485C490.243 569.865 490.977 569.696 491.314 569.105C491.651 568.514 491.465 567.724 490.904 567.344Z" fill="#000D6B"/>
<path fill-rule="evenodd" clip-rule="evenodd" d="M484.148 584.352L485.618 577.491C485.815 576.584 486.668 576.041 487.521 576.277C488.377 576.516 488.914 577.446 488.721 578.356L487.235 585.286L484.148 584.352ZM488.489 585.664L489.602 580.827C489.811 579.924 490.671 579.394 491.524 579.646C492.377 579.899 492.9 580.837 492.691 581.741L491.576 586.599L488.489 585.664ZM503.348 538.607L501.547 546.437C501.338 547.341 500.478 547.87 499.625 547.618C498.772 547.365 498.249 546.426 498.458 545.523L500.261 537.673L503.348 538.607ZM498.299 537.079L497.092 543.123C496.911 544.035 496.064 544.591 495.205 544.366C494.346 544.14 493.799 543.219 493.98 542.307L495.212 536.145L498.299 537.079Z" fill="#000D6B"/>
<path d="M487.642 528.627C492.901 528.627 497.164 524.026 497.164 518.351C497.164 512.676 492.901 508.075 487.642 508.075C482.383 508.075 478.119 512.676 478.119 518.351C478.119 524.026 482.383 528.627 487.642 528.627Z" fill="#000D6B"/>
<path fill-rule="evenodd" clip-rule="evenodd" d="M487.766 511.804C491.206 511.804 494.002 514.821 494.002 518.537C494.002 522.254 491.206 525.271 487.766 525.271C487.435 525.271 487.162 525.561 487.162 525.918C487.162 526.275 487.435 526.565 487.766 526.565C491.869 526.565 495.2 522.968 495.2 518.537C495.2 514.107 491.869 510.511 487.766 510.511C487.435 510.511 487.162 510.8 487.162 511.157C487.162 511.514 487.435 511.804 487.766 511.804Z" fill="#99DDCC"/>
<path fill-rule="evenodd" clip-rule="evenodd" d="M487.766 525.271C484.321 525.271 481.525 522.254 481.525 518.537C481.525 514.821 484.321 511.804 487.766 511.804C488.093 511.804 488.361 511.514 488.361 511.157C488.361 510.8 488.093 510.511 487.766 510.511C483.659 510.511 480.327 514.107 480.327 518.537C480.327 522.968 483.659 526.565 487.766 526.565C488.093 526.565 488.361 526.275 488.361 525.918C488.361 525.561 488.093 525.271 487.766 525.271Z" fill="#99DDCC"/>
<path fill-rule="evenodd" clip-rule="evenodd" d="M486.224 528.513L486.31 526.056C486.322 525.699 486.601 525.421 486.932 525.435C487.266 525.449 487.521 525.749 487.509 526.106L487.419 528.624C487.014 528.614 486.613 528.577 486.224 528.513ZM489.711 528.383L489.125 525.873C489.047 525.526 489.239 525.175 489.562 525.088C489.88 525.001 490.206 525.211 490.289 525.557L490.863 528.023C490.489 528.168 490.104 528.289 489.711 528.383ZM479.722 524.056L481.514 522.528C481.774 522.306 482.151 522.354 482.356 522.634C482.56 522.914 482.517 523.321 482.257 523.543L480.449 525.083C480.19 524.758 479.946 524.415 479.722 524.056ZM478.511 521.278L480.752 519.968C481.043 519.798 481.408 519.914 481.566 520.228C481.723 520.542 481.613 520.934 481.322 521.105L478.932 522.504C478.767 522.108 478.629 521.699 478.511 521.278ZM497.058 519.868L494.896 519.76C494.566 519.744 494.31 519.441 494.326 519.084C494.342 518.728 494.621 518.452 494.951 518.468L497.16 518.579C497.153 519.016 497.117 519.446 497.058 519.868ZM494.303 511.012C494.59 511.314 494.857 511.636 495.108 511.975L493.351 513.922C493.119 514.178 492.742 514.184 492.506 513.935C492.266 513.686 492.262 513.276 492.494 513.02L494.303 511.012ZM482.898 509.441L484.455 511.95C484.64 512.247 484.565 512.648 484.29 512.847C484.015 513.046 483.641 512.967 483.46 512.67L481.9 510.156C482.214 509.896 482.548 509.657 482.898 509.441ZM488.469 508.113C488.87 508.151 489.267 508.215 489.656 508.306L489.42 510.873C489.385 511.228 489.09 511.488 488.764 511.452C488.433 511.417 488.193 511.1 488.225 510.745L488.469 508.113Z" fill="#99DDCC"/>
<path d="M461.788 539.773C461.259 545.332 465.119 550.425 470.411 551.149C475.703 551.873 480.422 547.954 480.952 542.395C481.482 536.837 477.622 531.744 472.33 531.02C467.038 530.296 462.318 534.215 461.788 539.773Z" fill="#000D6B"/>
<path fill-rule="evenodd" clip-rule="evenodd" d="M477.383 542.131C477.038 545.734 473.96 548.28 470.514 547.811C467.068 547.343 464.551 544.036 464.896 540.433C464.929 540.087 464.688 539.765 464.357 539.72C464.026 539.675 463.73 539.924 463.697 540.27C463.285 544.566 466.286 548.507 470.393 549.066C474.501 549.625 478.171 546.59 478.582 542.295C478.616 541.948 478.374 541.626 478.043 541.581C477.713 541.536 477.416 541.785 477.383 542.131Z" fill="#99DDCC"/>
<path fill-rule="evenodd" clip-rule="evenodd" d="M464.986 540.261C465.331 536.654 468.41 534.108 471.856 534.577C475.301 535.045 477.818 538.352 477.472 541.959C477.44 542.301 477.681 542.619 478.012 542.664C478.343 542.709 478.639 542.464 478.672 542.122C479.084 537.822 476.084 533.88 471.976 533.322C467.868 532.763 464.199 535.798 463.786 540.098C463.753 540.44 463.995 540.757 464.326 540.802C464.657 540.847 464.953 540.603 464.986 540.261Z" fill="#99DDCC"/>
<path fill-rule="evenodd" clip-rule="evenodd" d="M462.037 538.293L464.319 538.698C464.65 538.756 464.881 539.087 464.835 539.434C464.789 539.785 464.483 540.017 464.151 539.959L461.813 539.542C461.863 539.116 461.938 538.697 462.037 538.293ZM461.807 541.995L464.206 541.696C464.537 541.657 464.845 541.905 464.894 542.257C464.943 542.605 464.714 542.923 464.383 542.966L462.027 543.258C461.929 542.845 461.855 542.422 461.807 541.995ZM466.847 531.991L468.091 534.08C468.271 534.383 468.189 534.775 467.907 534.956C467.625 535.136 467.25 535.038 467.07 534.736L465.816 532.629C466.145 532.396 466.49 532.182 466.847 531.991ZM469.559 531.066L470.555 533.601C470.684 533.93 470.538 534.302 470.23 534.428C469.922 534.554 469.567 534.387 469.437 534.058L468.373 531.354C468.759 531.23 469.155 531.137 469.559 531.066ZM469.005 550.844L469.323 548.574C469.372 548.227 469.68 547.995 470.011 548.057C470.342 548.12 470.571 548.45 470.523 548.797L470.197 551.117C469.79 551.053 469.393 550.961 469.005 550.844ZM477.539 549.062C477.228 549.327 476.902 549.568 476.56 549.791L474.921 547.686C474.706 547.408 474.739 547.008 474.995 546.791C475.251 546.569 475.633 546.617 475.849 546.895L477.539 549.062ZM480.152 537.212L477.656 538.537C477.361 538.694 476.994 538.564 476.836 538.248C476.679 537.932 476.79 537.547 477.085 537.394L479.586 536.066C479.797 536.431 479.986 536.815 480.152 537.212ZM480.829 543.267C480.754 543.686 480.653 544.098 480.53 544.497L478.16 543.921C477.832 543.838 477.62 543.493 477.686 543.153C477.752 542.809 478.072 542.596 478.4 542.674L480.829 543.267Z" fill="#99DDCC"/>
<path d="M444.107 585.947C447.972 589.819 453.997 589.597 457.565 585.449C461.132 581.301 460.892 574.799 457.027 570.927C453.163 567.054 447.138 567.277 443.57 571.424C440.002 575.572 440.243 582.074 444.107 585.947Z" fill="#000D6B"/>
<path fill-rule="evenodd" clip-rule="evenodd" d="M454.768 573.73C457.299 576.266 457.456 580.533 455.118 583.251C452.779 585.97 448.825 586.116 446.295 583.58C446.051 583.336 445.669 583.348 445.444 583.609C445.219 583.87 445.237 584.283 445.481 584.527C448.498 587.55 453.212 587.375 456 584.135C458.787 580.894 458.6 575.808 455.582 572.784C455.339 572.54 454.956 572.551 454.731 572.812C454.507 573.073 454.525 573.486 454.768 573.73Z" fill="#99DDCC"/>
<path fill-rule="evenodd" clip-rule="evenodd" d="M446.313 583.599C443.779 581.06 443.622 576.793 445.96 574.075C448.298 571.356 452.253 571.21 454.786 573.749C455.027 573.99 455.406 573.975 455.631 573.714C455.855 573.453 455.84 573.044 455.6 572.803C452.579 569.776 447.866 569.951 445.079 573.191C442.291 576.432 442.478 581.518 445.499 584.545C445.739 584.786 446.119 584.772 446.343 584.511C446.568 584.25 446.553 583.84 446.313 583.599Z" fill="#99DDCC"/>
<path fill-rule="evenodd" clip-rule="evenodd" d="M443.136 584.82L444.745 583.088C444.977 582.836 445.358 582.838 445.591 583.091C445.828 583.347 445.827 583.755 445.594 584.007L443.945 585.781C443.654 585.475 443.382 585.153 443.136 584.82ZM445.781 587.292L446.928 585.026C447.088 584.715 447.451 584.6 447.742 584.774C448.031 584.945 448.139 585.339 447.982 585.652L446.854 587.877C446.488 587.708 446.129 587.513 445.781 587.292ZM441.161 576.773L443.438 576.977C443.768 577.006 444.015 577.319 443.99 577.674C443.964 578.029 443.676 578.295 443.346 578.266L441.049 578.06C441.063 577.631 441.099 577.201 441.161 576.773ZM442.017 573.852L444.488 574.544C444.808 574.634 445.004 574.989 444.922 575.334C444.84 575.679 444.512 575.885 444.192 575.795L441.555 575.058C441.683 574.646 441.839 574.246 442.017 573.852ZM456.533 586.48L455.012 584.809C454.78 584.554 454.782 584.144 455.018 583.895C455.254 583.646 455.632 583.65 455.865 583.905L457.419 585.613C457.138 585.926 456.842 586.215 456.533 586.48ZM460.076 577.978C460.096 578.41 460.091 578.842 460.062 579.275L457.547 579.405C457.215 579.421 456.934 579.147 456.918 578.791C456.898 578.433 457.153 578.13 457.484 578.114L460.076 577.978ZM452.683 568.432L452.249 571.412C452.199 571.764 451.891 572.003 451.564 571.946C451.237 571.888 451.012 571.555 451.066 571.205L451.499 568.219C451.894 568.26 452.29 568.332 452.683 568.432ZM457.611 571.563C457.882 571.886 458.133 572.225 458.362 572.578L456.575 574.281C456.326 574.515 455.946 574.487 455.728 574.221C455.508 573.952 455.531 573.544 455.777 573.307L457.611 571.563Z" fill="#99DDCC"/>
<path d="M503.525 589.073C508.783 587.906 512.324 582.527 511.434 577.059C510.544 571.59 505.559 568.103 500.301 569.27C495.043 570.437 491.502 575.816 492.392 581.284C493.282 586.753 498.267 590.24 503.525 589.073Z" fill="#000D6B"/>
<path fill-rule="evenodd" clip-rule="evenodd" d="M500.901 572.863C504.378 572.094 507.683 574.401 508.273 578.012C508.864 581.622 506.518 585.178 503.041 585.946C502.706 586.02 502.477 586.362 502.533 586.709C502.59 587.056 502.912 587.277 503.246 587.203C507.393 586.287 510.189 582.048 509.485 577.744C508.781 573.44 504.842 570.69 500.695 571.606C500.36 571.68 500.131 572.022 500.188 572.369C500.245 572.716 500.566 572.937 500.901 572.863Z" fill="#99DDCC"/>
<path fill-rule="evenodd" clip-rule="evenodd" d="M503.234 585.797C499.752 586.567 496.448 584.26 495.857 580.649C495.266 577.038 497.612 573.483 501.094 572.714C501.424 572.641 501.649 572.299 501.593 571.953C501.536 571.606 501.219 571.384 500.888 571.457C496.737 572.374 493.942 576.613 494.645 580.916C495.35 585.221 499.288 587.971 503.44 587.054C503.77 586.981 503.995 586.639 503.938 586.293C503.882 585.946 503.564 585.724 503.234 585.797Z" fill="#99DDCC"/>
<path fill-rule="evenodd" clip-rule="evenodd" d="M502.087 589.285L501.788 586.898C501.744 586.551 501.979 586.221 502.312 586.161C502.648 586.1 502.951 586.334 502.995 586.68L503.3 589.127C502.893 589.207 502.486 589.26 502.087 589.285ZM505.554 588.386L504.574 586.096C504.441 585.78 504.579 585.398 504.887 585.243C505.192 585.088 505.552 585.219 505.688 585.534L506.649 587.783C506.299 588.006 505.932 588.208 505.554 588.386ZM494.884 586.432L496.437 584.562C496.662 584.291 497.047 584.253 497.295 584.478C497.544 584.702 497.564 585.104 497.34 585.375L495.773 587.261C495.462 587.005 495.165 586.729 494.884 586.432ZM493.237 584.024L495.273 582.263C495.537 582.035 495.921 582.066 496.128 582.334C496.334 582.601 496.286 583.004 496.021 583.233L493.85 585.112C493.623 584.767 493.421 584.403 493.237 584.024ZM511.566 578.548L509.387 578.924C509.054 578.981 508.751 578.746 508.71 578.399C508.67 578.052 508.906 577.724 509.239 577.666L511.466 577.283C511.527 577.706 511.559 578.128 511.566 578.548ZM507.42 570.624C507.755 570.851 508.072 571.102 508.377 571.373L506.925 573.64C506.733 573.938 506.357 574.028 506.082 573.84C505.803 573.653 505.735 573.259 505.927 572.961L507.42 570.624ZM495.768 571.641L497.718 573.714C497.95 573.959 497.938 574.362 497.694 574.615C497.45 574.868 497.064 574.874 496.837 574.629L494.881 572.552C495.155 572.231 495.452 571.927 495.768 571.641ZM501.13 569.125C501.537 569.072 501.945 569.046 502.348 569.047L502.515 571.574C502.535 571.924 502.281 572.24 501.949 572.278C501.614 572.317 501.324 572.065 501.3 571.716L501.13 569.125Z" fill="#99DDCC"/>
<path fill-rule="evenodd" clip-rule="evenodd" d="M478.393 588.558L432.265 675.241H413.293C413.293 675.241 407.463 688.681 416.296 693.602H503.313C503.403 693.602 503.49 693.61 503.58 693.623C505.314 693.759 515.217 693.453 523.051 671.546C535.781 635.961 548.683 615.433 561.715 588.558H478.393Z" fill="#E9E9EB"/>
<path d="M459.794 668.219C467.47 669.45 475.558 664.044 477.859 656.145C480.16 648.246 475.802 640.845 468.125 639.615C460.448 638.384 452.36 643.79 450.06 651.689C447.759 659.588 452.117 666.989 459.794 668.219Z" fill="white"/>
<path d="M551.443 593.207L479.647 592.343L476.752 598.335L548.548 599.2L551.443 593.207Z" fill="#BABDC2"/>
<path d="M546.634 604.336L474.502 603.6L471.615 609.604L543.747 610.339L546.634 604.336Z" fill="#BABDC2"/>
<path d="M541.079 616.482L468.713 614.365L465.737 620.258L538.103 622.375L541.079 616.482Z" fill="#BABDC2"/>
<path d="M535.329 628.502L463.339 625.019L460.276 630.818L532.266 634.3L535.329 628.502Z" fill="#BABDC2"/>
<path d="M527.59 640.907L489.103 638.725L486.565 644.406L525.052 646.587L527.59 640.907Z" fill="#BABDC2"/>
<path d="M521.25 653.13L495.23 651.364L493.12 657.082L519.14 658.847L521.25 653.13Z" fill="#BABDC2"/>
<path d="M516.064 665.476L481.6 662.585L479.842 668.287L514.306 671.178L516.064 665.476Z" fill="#BABDC2"/>
<path fill-rule="evenodd" clip-rule="evenodd" d="M433.99 671.996H496.146C496.217 671.996 496.288 672.004 496.359 672.013C497.027 672.11 497.589 672.505 497.849 673.421C497.974 673.862 497.986 674.74 497.825 675.928C497.255 680.183 494.712 690.921 504.893 693.581C504.292 693.653 503.84 693.64 503.58 693.623C503.49 693.61 503.403 693.602 503.313 693.602H497.994C497.648 693.271 497.33 692.923 497.035 692.562C493.45 688.167 493.835 681.804 494.417 677.54C494.515 676.806 494.613 676.013 494.688 675.39L432.265 675.241L433.99 671.996Z" fill="black"/>
<path d="M457.599 656.671C458.694 658.178 460.234 659.134 462.231 659.597C464.629 660.093 466.072 659.517 466.636 657.886C467.054 656.546 466.509 655.564 465.003 654.938C464.289 654.675 463.523 654.4 462.689 654.083C461.2 653.488 460.173 652.644 459.627 651.58C459.063 650.485 458.998 649.284 459.408 647.97C459.897 646.403 460.805 645.252 462.185 644.527C463.512 643.791 465.127 643.63 467.011 644.014C469.283 644.563 471.065 645.627 472.365 647.179L470.121 649.091C469.035 647.91 467.668 647.099 466.031 646.715C465.183 646.53 464.4 646.575 463.701 646.882C462.976 647.182 462.462 647.772 462.168 648.626C462.003 649.156 462.066 649.656 462.344 650.175C462.621 650.695 463.202 651.118 464.047 651.491C464.511 651.674 465.174 651.926 466.016 652.218C467.667 652.821 468.738 653.702 469.253 654.867C469.75 656.001 469.814 657.202 469.412 658.491C468.262 661.911 465.559 663.183 461.354 662.32C458.655 661.732 456.576 660.388 455.136 658.319L457.599 656.671Z" fill="black"/>
<path fill-rule="evenodd" clip-rule="evenodd" d="M467.499 641.593L458.555 663.858L460.691 664.582L469.712 642.122L467.499 641.593Z" fill="black"/>
<path fill-rule="evenodd" clip-rule="evenodd" d="M661.713 636.4C660.687 635.187 659.319 634.513 658.207 635.302C654.299 638.072 651.634 641.029 647.801 643.909C635.952 652.818 619.331 655.3 611.984 669.915C604.534 684.72 604.157 702.865 597.529 718.252C588.601 738.988 575.821 757.387 566.354 777.818C554.632 803.106 536.375 858.562 536.375 858.562C530.478 858.469 501.4 862.562 483.721 865.507C483.049 865.617 482.573 866.27 482.624 867C482.675 867.734 483.241 868.298 483.921 868.298C525.6 868.298 647.809 868.298 676.239 868.298C677.69 868.298 679.03 867.462 679.757 866.109C680.485 864.756 680.493 863.084 679.769 861.727C676.129 854.858 669.827 850.832 662.81 848.957C657.413 847.515 652.204 848.223 646.767 848.72C646.563 848.737 646.303 848.775 646.146 848.601C646.106 848.559 646.051 848.482 646.028 848.431C644.585 845.199 645.356 826.846 645.403 822.719C645.603 805.52 646.315 788.271 647.683 771.132C648.123 765.63 649.035 749.81 649.035 749.81C649.035 749.81 661.293 747.99 664.811 747.129C673.475 745.016 680.552 738.963 685.505 731.089C692.852 719.41 693.328 703.548 696.654 690.261C699.433 679.138 704.634 670.47 709.08 660.268C711.388 654.973 710.574 647.15 705.239 644.304C700.023 641.517 694.554 647.341 691.272 651.066C680.827 662.936 680.292 679.269 671.368 691.041C665.039 699.386 652.271 700.918 652.271 700.918C652.271 700.918 651.877 690.74 652.271 687.915C654.24 673.775 661.627 664.786 664.634 651.775C665.503 648.007 665.012 640.286 661.713 636.4Z" fill="#A5A6F6"/>
<path fill-rule="evenodd" clip-rule="evenodd" d="M632.288 755.677C637.973 752.542 649.035 749.81 649.035 749.81C649.035 749.81 648.744 754.876 648.41 760.268C644.145 758.6 638.798 758.108 632.894 758.214C632.32 758.223 631.813 757.803 631.671 757.205C631.526 756.602 631.781 755.97 632.288 755.677Z" fill="black"/>
<path fill-rule="evenodd" clip-rule="evenodd" d="M637.926 655.313L640.449 657.319C641.149 657.875 642.136 657.714 642.651 656.959C643.166 656.208 643.016 655.143 642.317 654.587L639.793 652.581C639.093 652.025 638.11 652.186 637.595 652.937C637.08 653.692 637.226 654.757 637.926 655.313Z" fill="black"/>
<path fill-rule="evenodd" clip-rule="evenodd" d="M645.812 847.774C645.705 847.596 645.631 847.396 645.588 847.176C642.317 829.231 637.937 816.949 632.98 808.8C628.227 800.985 622.979 797.07 617.727 795.678C607.133 792.866 596.711 800.154 590.913 805.249C588.271 807.565 586.274 809.831 586.274 809.831C585.971 810.234 585.499 810.48 584.98 810.454C584.116 810.408 583.443 809.61 583.487 808.677C583.487 808.651 583.451 808.138 583.946 807.548C584.281 807.154 586.089 805.109 588.927 802.614C595.296 797.015 606.834 789.294 618.478 792.382C624.347 793.939 630.295 798.198 635.61 806.937C639.144 812.745 642.415 820.572 645.214 830.962C645.1 837.219 645.088 844.906 645.812 847.774ZM618.506 663.861C618.506 663.861 613.411 677.674 610.27 686.201C608.387 691.3 610.352 697.112 614.83 699.713C616.87 700.905 618.938 701.787 621.029 702.343C623.868 703.107 626.875 702.411 629.179 700.468C631.486 698.521 632.831 695.538 632.831 692.378C632.831 681.683 632.831 664.485 632.831 664.485C632.831 663.551 632.127 662.788 631.258 662.788C630.393 662.788 629.686 663.551 629.686 664.485C629.686 664.485 629.686 681.683 629.686 692.378C629.686 694.495 628.786 696.489 627.241 697.791C625.7 699.098 623.687 699.56 621.784 699.051C619.94 698.559 618.124 697.778 616.324 696.726C613.246 694.94 611.901 690.952 613.191 687.457C616.336 678.93 621.43 665.112 621.43 665.112C621.749 664.243 621.356 663.254 620.55 662.911C619.74 662.563 618.828 662.987 618.506 663.861ZM652.168 697.528C652.215 699.475 652.271 700.918 652.271 700.918C652.271 700.918 652.522 700.888 652.974 700.816C651.032 701.244 649.236 701.427 647.549 701.41C646.68 701.401 645.985 700.633 645.992 699.7C646 698.763 646.708 698.007 647.577 698.016C649.008 698.029 650.529 697.876 652.168 697.528ZM708.549 647.469C709.135 648.423 709.568 649.492 709.855 650.616C703.883 655.283 699.417 662.389 699.205 662.809C698.792 663.632 697.837 663.937 697.074 663.492C696.312 663.046 696.029 662.016 696.441 661.193C696.677 660.717 701.784 652.585 708.549 647.469ZM702.727 643.583C703.565 643.634 704.406 643.858 705.239 644.304C705.585 644.486 705.912 644.694 706.222 644.919C703.683 647.006 698.521 651.758 693.226 659.631C692.718 660.387 691.732 660.556 691.032 660.005C690.328 659.457 690.171 658.393 690.682 657.638C695.266 650.82 699.767 646.23 702.727 643.583ZM652.986 639.557C654.617 638.114 656.257 636.685 658.207 635.302C659.319 634.513 660.687 635.187 661.713 636.4C662.492 637.317 663.113 638.445 663.6 639.688C659.134 644.69 654.201 640.685 652.986 639.557Z" fill="black"/>
</svg>
