<svg width="833" height="652" viewBox="0 0 833 652" fill="none" xmlns="http://www.w3.org/2000/svg">
<path fill-rule="evenodd" clip-rule="evenodd" d="M281.046 281.676L273.25 283.154L271.443 208.778L541.279 149.573L582.298 220.779L295.153 275.591L281.046 281.676Z" fill="black"/>
<path fill-rule="evenodd" clip-rule="evenodd" d="M325.642 269.789L322.547 270.382L296.063 203.508L299.126 202.834L325.642 269.789ZM330.441 195.944L357.38 260.153C357.679 260.861 357.256 261.641 356.435 261.895C355.618 262.148 354.713 261.78 354.417 261.073L327.374 196.619L330.441 195.944ZM369.107 187.437L397.986 255.344C398.069 255.534 398.097 255.729 398.08 255.918L395.136 256.481C395.093 256.417 395.056 256.348 395.026 256.275L366.04 188.112L369.107 187.437ZM437.495 248.37L434.403 248.962L407.512 178.988L410.574 178.314L437.495 248.37ZM418.029 176.674C422.116 187.504 439.018 232.269 444.632 247.004L441.539 247.596C435.802 232.532 418.925 187.825 414.97 177.347L418.029 176.674ZM467.244 165.845L493.257 231.895C493.537 232.607 493.096 233.38 492.273 233.62C491.446 233.859 490.55 233.476 490.27 232.763L464.18 166.52L467.244 165.845ZM501.229 158.368L530.172 225.872C530.476 226.578 530.06 227.36 529.242 227.619C528.425 227.878 527.516 227.515 527.215 226.809L498.158 159.044L501.229 158.368ZM553.076 226.237L549.969 226.832L518.436 154.582L521.51 153.906L553.076 226.237Z" fill="#4FC6A8"/>
<path fill-rule="evenodd" clip-rule="evenodd" d="M298.795 272.418L340.734 264.784L365.819 231.634L406.379 252.832L475.481 240.253L500.282 207.475L540.385 228.437L569.162 223.198L616.816 386.378L326.855 439.166L279.25 276.145L279.243 276.143L279.24 276.111L279.203 275.985L279.23 275.98L274.306 210.666L298.795 272.418Z" fill="#4FC6A8"/>
<path fill-rule="evenodd" clip-rule="evenodd" d="M367.804 234.795L334.584 277.35L327.512 273.218L363.068 227.671C364.367 226.009 366.967 225.555 368.918 226.65L420.859 255.797L416.228 261.971L367.804 234.795Z" fill="black"/>
<path fill-rule="evenodd" clip-rule="evenodd" d="M506.085 208.904L474.15 251.947L466.999 247.901L501.181 201.83C502.43 200.15 505.006 199.661 506.978 200.733L559.46 229.254L555.014 235.496L506.085 208.904Z" fill="black"/>
<path fill-rule="evenodd" clip-rule="evenodd" d="M349.684 433.13L347.074 433.629L306.16 273.255L308.77 272.756L349.684 433.13Z" fill="white"/>
<path fill-rule="evenodd" clip-rule="evenodd" d="M403.754 273.327C401.943 267.157 397.521 261.734 391.467 258.249C385.408 254.764 378.213 253.504 371.458 254.745C364.703 255.987 358.947 259.627 355.45 264.868C351.957 270.108 351.008 276.518 352.819 282.688L362.445 315.481L413.381 306.12L403.754 273.327Z" fill="white"/>
<path fill-rule="evenodd" clip-rule="evenodd" d="M369.296 255.238C370.005 255.046 370.729 254.884 371.463 254.748C371.683 254.708 371.903 254.67 372.12 254.634L376.981 271.339L400.827 267.001C401.349 267.805 401.824 268.633 402.246 269.483L377.738 273.942L382.711 291.035L407.621 286.503L408.384 289.104L383.469 293.637L388.434 310.702L385.586 311.226L380.619 294.156L357.422 298.376L356.66 295.775L379.862 291.553L374.889 274.46L352.025 278.62C351.937 277.71 351.904 276.801 351.932 275.897L374.132 271.858L369.296 255.238Z" fill="#4FC6A8"/>
<path fill-rule="evenodd" clip-rule="evenodd" d="M396.328 276.534L390.949 285.232C390.793 285.483 390.904 285.812 391.19 285.966C391.479 286.119 391.84 286.043 391.993 285.793L397.375 277.093C397.529 276.846 397.421 276.517 397.131 276.363C396.841 276.207 396.484 276.286 396.328 276.534ZM393.234 276.568L389.27 282.709C389.11 282.955 389.212 283.282 389.499 283.442C389.784 283.601 390.147 283.53 390.304 283.285L394.268 277.143C394.428 276.897 394.326 276.567 394.041 276.408C393.754 276.251 393.391 276.322 393.234 276.568Z" fill="#4FC6A8"/>
<path fill-rule="evenodd" clip-rule="evenodd" d="M423.852 341.347C420.023 328.272 405.337 319.805 391.047 322.436L380.617 324.355C366.332 326.985 357.849 339.717 361.677 352.792L376.43 403.167L438.605 391.723L423.852 341.347Z" fill="white"/>
<path fill-rule="evenodd" clip-rule="evenodd" d="M387.811 323.111C400.804 323.225 412.952 331.54 416.445 343.535L430.885 393.086L376.308 403.167L376.149 402.627L427.901 393.068L413.617 344.057C410.021 331.717 396.206 323.727 382.76 326.21C381.174 326.503 379.578 326.797 377.992 327.09C372.442 328.115 367.824 330.763 364.565 334.39C368.002 329.429 373.571 325.741 380.52 324.457L387.811 323.111Z" fill="#4FC6A8"/>
<path fill-rule="evenodd" clip-rule="evenodd" d="M544.047 247.413C542.236 241.244 537.814 235.82 531.759 232.335C525.701 228.851 518.506 227.59 511.751 228.831C504.996 230.073 499.239 233.714 495.742 238.954C492.249 244.194 491.301 250.605 493.112 256.774L502.738 289.567L553.673 280.206L544.047 247.413Z" fill="white"/>
<path fill-rule="evenodd" clip-rule="evenodd" d="M510.406 229.116C510.853 229.012 511.302 228.917 511.756 228.834L511.758 228.834C512.253 228.741 512.756 228.663 513.256 228.6L517.981 244.84L540.851 240.679C541.392 241.479 541.885 242.305 542.326 243.151L518.739 247.442L523.712 264.536L547.787 260.155L548.549 262.757L524.469 267.138L529.56 284.635L526.712 285.158L521.62 267.656L497.585 272.029L496.822 269.428L520.863 265.054L515.889 247.96L492.279 252.256C492.208 251.343 492.195 250.43 492.24 249.523L515.132 245.358L510.406 229.116Z" fill="#4FC6A8"/>
<path fill-rule="evenodd" clip-rule="evenodd" d="M510.116 254.614L503.81 262.829C503.631 263.066 503.707 263.399 503.984 263.575C504.258 263.754 504.63 263.706 504.81 263.47L511.115 255.255C511.296 255.021 511.219 254.685 510.942 254.509C510.668 254.332 510.297 254.38 510.116 254.614ZM506.498 254.576L500.999 261.7C500.816 261.935 500.893 262.271 501.168 262.45C501.444 262.626 501.813 262.578 501.997 262.344L507.495 255.22C507.679 254.985 507.601 254.649 507.325 254.473C507.051 254.294 506.682 254.342 506.498 254.576Z" fill="#4FC6A8"/>
<path d="M558.341 303.211L516.16 311.051L531.001 361.298L573.182 353.458L558.341 303.211Z" fill="white"/>
<path fill-rule="evenodd" clip-rule="evenodd" d="M552.093 356.93L549.464 357.443L536.828 307.658L539.457 307.145L552.093 356.93Z" fill="#4FC6A8"/>
<path d="M491.577 315.94L449.395 323.78L464.236 374.028L506.418 366.188L491.577 315.94Z" fill="white"/>
<path fill-rule="evenodd" clip-rule="evenodd" d="M486.552 369.426L483.92 369.939L470.471 320.308L473.102 319.795L486.552 369.426Z" fill="#4FC6A8"/>
<path fill-rule="evenodd" clip-rule="evenodd" d="M317.44 354.97L304.601 361.188L316.988 408.07L332.298 411.205L317.44 354.97ZM298.155 281.979C297.282 278.676 293.998 276.367 290.493 276.591C286.987 276.813 284.355 279.5 284.352 282.861C284.352 282.861 284.352 282.864 284.352 282.864C284.351 283.979 284.497 285.097 284.786 286.191L295.813 327.928L308.189 319.958L298.155 281.979Z" fill="white"/>
<path fill-rule="evenodd" clip-rule="evenodd" d="M380.757 427.394L373.218 401.181C373.006 400.445 373.493 399.73 374.304 399.584C375.115 399.439 375.945 399.918 376.157 400.654L383.694 426.862L380.757 427.394ZM403.542 423.263L399.741 410.05L389.055 411.964C388.946 411.983 388.834 411.992 388.722 411.989C388.554 411.986 388.388 411.957 388.228 411.904L388.224 411.902C387.579 411.841 387.002 411.412 386.83 410.815L383.483 399.18C383.272 398.444 383.758 397.729 384.57 397.583C385.381 397.438 386.211 397.917 386.423 398.653L389.39 408.971L400.456 407.119L452.102 397.87L449.419 388.542L433.762 391.345C432.951 391.49 432.121 391.011 431.909 390.275C431.698 389.539 432.184 388.824 432.995 388.679L450.121 385.612C450.933 385.467 451.763 385.946 451.974 386.682L455.041 397.344L465.057 395.55C465.869 395.405 466.699 395.884 466.91 396.62L471.053 411.025L468.116 411.557L464.355 398.48L402.68 409.524L406.479 422.732L403.542 423.263Z" fill="white"/>
<path fill-rule="evenodd" clip-rule="evenodd" d="M462.28 277.812C461.735 275.737 460.306 273.894 458.31 272.688C456.313 271.483 453.909 271.013 451.633 271.382C451.395 271.42 451.157 271.459 450.922 271.497C448.643 271.866 446.676 273.045 445.45 274.773C444.224 276.501 443.841 278.638 444.386 280.712C445.845 286.264 447.545 292.734 447.545 292.734L465.439 289.834L462.28 277.812Z" fill="white"/>
<path fill-rule="evenodd" clip-rule="evenodd" d="M456.726 278.685L451.531 287.191C451.378 287.441 451.488 287.766 451.777 287.92C452.065 288.073 452.425 287.994 452.578 287.744L457.771 279.242C457.924 278.992 457.813 278.664 457.524 278.51C457.235 278.357 456.876 278.436 456.726 278.685ZM453.401 278.658L449.954 284.143C449.798 284.391 449.906 284.72 450.192 284.876C450.479 285.033 450.839 284.956 450.993 284.709L454.44 279.224C454.596 278.973 454.491 278.646 454.205 278.49C453.915 278.334 453.557 278.407 453.401 278.658Z" fill="#4FC6A8"/>
<path fill-rule="evenodd" clip-rule="evenodd" d="M325.203 161.138C325.203 161.138 312.399 161.132 322.099 182.69L340.317 178.916L325.203 161.138Z" fill="#80B1AE"/>
<path fill-rule="evenodd" clip-rule="evenodd" d="M322.099 161.722C322.099 161.722 332.417 159.769 356.089 220.608L485.506 194.082C485.506 194.082 470.066 141.059 453.458 132.654L322.099 161.722Z" fill="#AACFCC"/>
<path d="M365.146 194.944C369.082 196.015 372.981 195.845 376.847 194.431C381.369 192.665 382.866 190.296 381.338 187.324C380.065 184.898 377.754 184.019 374.41 184.685C372.905 185.035 371.247 185.416 369.442 185.826C366.18 186.497 363.332 186.327 360.894 185.317C358.381 184.282 356.493 182.585 355.219 180.231C353.69 177.402 353.473 174.74 354.576 172.243C355.621 169.785 357.944 167.864 361.553 166.475C365.965 164.928 370.363 164.623 374.749 165.562L373.977 170.714C370.48 170.101 367.138 170.357 363.942 171.483C362.309 172.096 361.151 172.984 360.467 174.149C359.753 175.361 359.798 176.751 360.611 178.316C361.115 179.25 361.964 179.947 363.156 180.408C364.361 180.882 365.91 180.943 367.801 180.59C368.842 180.378 370.25 180.055 372.02 179.623C375.535 178.804 378.555 178.981 381.08 180.154C383.571 181.304 385.44 183.026 386.681 185.321C389.852 191.578 387.443 196.257 379.455 199.358C374.257 201.307 368.99 201.5 363.65 199.94L365.146 194.944Z" fill="black"/>
<path fill-rule="evenodd" clip-rule="evenodd" d="M358.481 163.275L375.173 204.654L377.93 203.806L361.237 162.427L358.481 163.275Z" fill="black"/>
<path fill-rule="evenodd" clip-rule="evenodd" d="M363.521 161.779L380.213 203.158L382.97 202.31L366.278 160.931L363.521 161.779Z" fill="black"/>
<path fill-rule="evenodd" clip-rule="evenodd" d="M385.516 161.772L416.017 155.353L416.731 157.49L385.159 164.134C384.551 164.262 383.903 163.943 383.666 163.401L381.281 157.924C381.154 157.632 381.166 157.314 381.314 157.047C381.459 156.781 381.73 156.59 382.057 156.521L413.48 149.908L414.197 152.044L384.043 158.39L385.516 161.772Z" fill="black"/>
<path fill-rule="evenodd" clip-rule="evenodd" d="M450.295 144.139L414.601 151.661L413.884 149.516L450.654 141.767C451.262 141.639 451.912 141.959 452.148 142.504L454.534 148.004C454.661 148.298 454.65 148.617 454.501 148.885C454.353 149.153 454.082 149.344 453.754 149.413L417.136 157.13L416.422 154.984L451.768 147.536L450.295 144.139Z" fill="black"/>
<path fill-rule="evenodd" clip-rule="evenodd" d="M387.537 174.097L415.839 168.14L416.554 170.277L387.179 176.458C386.572 176.586 385.922 176.268 385.686 175.725L383.301 170.249C383.174 169.957 383.185 169.639 383.333 169.373C383.481 169.106 383.752 168.915 384.076 168.847L415.519 162.23L416.234 164.366L386.064 170.715L387.537 174.097Z" fill="black"/>
<path fill-rule="evenodd" clip-rule="evenodd" d="M458.523 155.118L416.622 163.968L415.907 161.81L458.885 152.733C459.495 152.604 460.143 152.927 460.379 153.475L462.765 159.008C462.893 159.303 462.881 159.624 462.733 159.894C462.587 160.162 462.315 160.355 461.986 160.424L416.936 169.939L416.221 167.781L459.997 158.535L458.523 155.118Z" fill="black"/>
<path fill-rule="evenodd" clip-rule="evenodd" d="M404.672 183.115L429.554 177.886L430.269 180.011L404.316 185.465C403.712 185.592 403.066 185.275 402.83 184.735L400.447 179.288C400.32 178.997 400.331 178.681 400.479 178.416C400.624 178.151 400.894 177.961 401.218 177.893L426.347 172.611L427.06 174.736L403.201 179.751L404.672 183.115Z" fill="black"/>
<path fill-rule="evenodd" clip-rule="evenodd" d="M464.893 166.471L427.451 174.365L426.738 172.216L465.254 164.096C465.863 163.967 466.512 164.288 466.748 164.834L469.134 170.342C469.261 170.635 469.251 170.955 469.102 171.223C468.955 171.491 468.684 171.683 468.356 171.752L430.668 179.698L429.952 177.55L466.367 169.872L464.893 166.471Z" fill="black"/>
<path fill-rule="evenodd" clip-rule="evenodd" d="M400.712 196.749L433.34 189.878L434.055 192.018L400.353 199.115C399.748 199.242 399.098 198.923 398.862 198.38L396.476 192.893C396.349 192.6 396.361 192.282 396.509 192.015C396.657 191.747 396.927 191.556 397.253 191.488L430.854 184.412L431.572 186.552L399.239 193.36L400.712 196.749Z" fill="black"/>
<path fill-rule="evenodd" clip-rule="evenodd" d="M470.635 177.999L431.978 186.152L431.26 184.002L470.996 175.621C471.603 175.493 472.253 175.814 472.489 176.36L474.876 181.873C475.003 182.167 474.991 182.488 474.843 182.756C474.694 183.024 474.424 183.216 474.097 183.285L434.462 191.644L433.747 189.494L472.109 181.403L470.635 177.999Z" fill="black"/>
<path fill-rule="evenodd" clip-rule="evenodd" d="M228.208 343.349C228.208 343.349 275.906 401.974 296.68 427.509C302.727 434.938 312.081 439.874 322.51 441.135C330.92 442.152 340.616 443.325 346.518 444.039C349.872 444.444 353.208 443.209 355.178 440.836C358.66 436.639 363.73 430.52 363.73 430.52C363.73 430.52 369.2 429.201 371.725 428.591C372.756 428.344 373.426 427.488 373.307 426.573C373.164 425.748 372.667 424.728 371.225 423.753C369.185 422.376 366.908 422.053 345.628 424.752C345.628 424.752 346.515 406.381 326.627 404.502L309.568 378.182L228.208 343.349Z" fill="#E9E9EB"/>
<path fill-rule="evenodd" clip-rule="evenodd" d="M363.73 430.52L361.218 433.551L349.927 435.706L348.107 439.514C347.787 440.187 346.893 440.505 346.116 440.229C345.338 439.953 344.966 439.183 345.286 438.512L346.299 436.397L327.889 439.911C327.065 440.066 326.251 439.619 326.071 438.912C325.888 438.202 326.407 437.501 327.23 437.346L366.337 429.882C366.374 429.877 366.41 429.869 366.45 429.866L363.73 430.52ZM345.491 422.134C345.677 423.727 345.628 424.752 345.628 424.752C346.616 424.626 347.564 424.507 348.473 424.397C348.451 424.4 348.433 424.402 348.412 424.405L342.896 425.138C342.064 425.248 341.286 424.754 341.158 424.039C341.03 423.322 341.6 422.649 342.433 422.539L345.491 422.134Z" fill="#000D6B"/>
<path fill-rule="evenodd" clip-rule="evenodd" d="M228.407 343.434C228.481 343.498 228.548 343.57 228.607 343.649C255.872 380.05 296.341 379.764 309.79 378.526L311.4 381.009C301.263 382.108 271.354 383.293 244.912 363.879L228.208 343.349L228.407 343.434Z" fill="#000D6B"/>
<path fill-rule="evenodd" clip-rule="evenodd" d="M178.325 441.771C172.512 425.225 168.463 409.193 167.488 395.057C166.083 374.71 179.532 360.804 197.284 358.983C202.987 358.4 215.257 358.087 226.571 367.803L226.616 367.716C226.616 367.716 269.226 402.061 295.878 448.846C303.339 462.008 300.941 477.621 290.091 488.623C299.666 513.064 308.763 539.9 315.991 567.713C315.991 567.713 328.456 569.831 334.877 576.73H251.691C250.164 576.73 248.752 576.031 247.983 574.893C243.2 567.71 225.246 540.257 207.484 506.646C187.989 502.533 164.212 493.916 135.667 478.023C135.667 478.023 125.935 484.139 116.622 484.16C116.622 484.16 148.963 445.417 156.517 436.368C157.434 435.269 159.107 434.862 160.554 435.382C165.955 437.325 178.325 441.771 178.325 441.771Z" fill="url(#paint0_linear_18_1919)"/>
<path fill-rule="evenodd" clip-rule="evenodd" d="M295.123 447.532C295.376 447.968 295.627 448.407 295.878 448.846C296.125 449.282 296.361 449.721 296.586 450.16H276.024C275.182 450.16 274.499 449.572 274.499 448.846C274.499 448.121 275.182 447.532 276.024 447.532H295.123Z" fill="#000D6B"/>
<path fill-rule="evenodd" clip-rule="evenodd" d="M174.455 440.378L178.317 441.766C185.127 457.374 208.967 509.453 207.484 506.646C206.33 506.404 205.161 506.144 203.977 505.868C194.929 487.211 178.768 450.276 174.455 440.378ZM233.944 374.042C236.943 376.733 240.72 380.234 244.998 384.439C267.073 417.425 277.351 451.826 292.253 486.239C291.575 487.054 290.854 487.85 290.091 488.623C288.86 489.251 258.73 400.796 233.944 374.042Z" fill="#000D6B"/>
<path fill-rule="evenodd" clip-rule="evenodd" d="M276.999 454.689C277.359 455.498 277.719 456.305 278.077 457.114L278.153 457.288L184.183 457.219L184.141 457.114C183.821 456.323 183.503 455.532 183.188 454.738L183.129 454.591L276.985 454.66L276.999 454.689Z" fill="#000D6B"/>
<path fill-rule="evenodd" clip-rule="evenodd" d="M207.455 265.011C214.939 262.802 242.522 260.102 254.772 285.255C257.226 290.292 272.757 330.329 310.77 326.753C310.77 326.753 327.374 325.765 349.095 311.82C349.095 311.82 375.369 294.398 402.908 291.621C404.204 291.502 405.497 291.845 406.488 292.572C407.478 293.298 408.082 294.344 408.152 295.464C408.28 297.307 407.07 299.49 402.332 301.377C402.332 301.377 387.879 305.892 382.781 309.991C382.781 309.991 390.98 307.416 393.73 312.834C394.221 313.799 395.429 318.064 389.608 321.308C389.608 321.308 396.667 319.862 398.484 324.511C399.395 326.847 399.063 329.532 393.73 332.395C393.73 332.395 397.224 331.957 398.484 334.272C399.615 336.358 399.081 338.672 389.608 345.473C380.171 352.248 334.506 380.245 302.391 378.925C270.276 377.606 243.758 363.301 226.976 342.154C226.976 342.154 194.616 354.818 174.835 330.135C169.075 322.947 156.894 279.933 207.455 265.011Z" fill="#E9E9EB"/>
<path fill-rule="evenodd" clip-rule="evenodd" d="M385.742 324.454C385.742 324.454 389.413 329.727 389.858 334.962C389.919 335.685 390.651 336.229 391.489 336.176C392.331 336.123 392.962 335.492 392.898 334.769C392.404 328.963 388.358 323.106 388.358 323.106C387.928 322.483 387.129 322.734 386.406 323.106C385.684 323.478 385.309 323.831 385.742 324.454Z" fill="#CA2ACD"/>
<path fill-rule="evenodd" clip-rule="evenodd" d="M387.336 335.467C391.184 333.661 392.584 332.938 393.73 332.395C393.73 332.395 396.017 332.108 397.557 333.225C395.215 334.781 392.373 336.095 388.794 337.776C388.053 338.122 387.126 337.887 386.726 337.25C386.324 336.613 386.595 335.814 387.336 335.467ZM383.321 323.982C388.166 321.954 388.474 321.773 389.608 321.308C389.608 321.308 391.852 320.849 394.133 321.28C391.971 323.014 389.315 324.394 384.65 326.346C383.894 326.663 382.982 326.39 382.613 325.738C382.247 325.085 382.561 324.298 383.321 323.982ZM377.509 312.4C380.354 311.116 381.714 310.488 382.781 309.991C382.781 309.991 385.864 309.023 388.885 309.524C384.644 311.723 382.616 313.062 378.921 314.728C378.177 315.065 377.256 314.816 376.866 314.174C376.475 313.531 376.762 312.736 377.509 312.4Z" fill="#000D6B"/>
<path fill-rule="evenodd" clip-rule="evenodd" d="M226.968 342.157C226.388 342.381 194.436 354.594 174.835 330.135C169.075 322.947 156.894 279.933 207.455 265.011C214.939 262.802 242.522 260.102 254.772 285.255C255.833 287.431 259.334 296.143 266.035 305.044L217.999 327.285C219.879 332.359 223.392 337.215 226.968 342.157Z" fill="#000D6B"/>
<path fill-rule="evenodd" clip-rule="evenodd" d="M214.048 345.062C207.102 327.685 208.938 317.029 210.53 312.399C210.643 312.094 210.988 311.898 211.358 311.928C211.729 311.959 212.024 312.208 212.067 312.527C212.942 316.744 215.452 322.504 218.237 327.906C219.556 331.222 221.549 334.449 223.773 337.673C224.989 339.621 226.062 341.2 226.844 342.204C225.981 342.525 220.971 344.306 214.048 345.062Z" fill="#CA2ACD"/>
<path fill-rule="evenodd" clip-rule="evenodd" d="M219.105 325.136L223.375 331.919C223.777 332.557 224.703 332.794 225.442 332.447C226.182 332.102 226.457 331.303 226.055 330.666L221.785 323.882C221.384 323.245 220.458 323.008 219.718 323.354C218.978 323.7 218.704 324.498 219.105 325.136ZM227.301 321.475L231.201 328.423C231.567 329.076 232.479 329.349 233.237 329.033C233.994 328.717 234.312 327.931 233.945 327.278L230.045 320.331C229.679 319.678 228.767 319.404 228.009 319.72C227.252 320.036 226.934 320.823 227.301 321.475ZM235.505 317.387L239.499 324.294C239.874 324.943 240.79 325.207 241.543 324.884C242.296 324.56 242.603 323.771 242.227 323.122L238.234 316.214C237.858 315.565 236.942 315.301 236.189 315.624C235.436 315.948 235.129 316.737 235.505 317.387ZM243.707 313.55L247.867 320.384C248.258 321.026 249.18 321.274 249.925 320.937C250.67 320.6 250.958 319.805 250.567 319.163L246.407 312.329C246.016 311.687 245.094 311.439 244.349 311.776C243.604 312.113 243.316 312.908 243.707 313.55ZM251.869 309.82L256.029 316.655C256.42 317.297 257.342 317.545 258.087 317.208C258.832 316.871 259.12 316.076 258.729 315.434L254.569 308.599C254.178 307.957 253.256 307.709 252.511 308.046C251.766 308.383 251.478 309.178 251.869 309.82ZM260.031 306.091L264.191 312.925C264.582 313.567 265.504 313.815 266.249 313.478C266.994 313.141 267.282 312.346 266.891 311.704L262.731 304.87C262.34 304.227 261.418 303.98 260.673 304.316C259.928 304.653 259.64 305.448 260.031 306.091Z" fill="#000D6B"/>
<path d="M206.325 258.252C218.597 258.252 228.545 249.678 228.545 239.1C228.545 228.523 218.597 219.949 206.325 219.949C194.054 219.949 184.106 228.523 184.106 239.1C184.106 249.678 194.054 258.252 206.325 258.252Z" fill="#E9E9EB"/>
<path fill-rule="evenodd" clip-rule="evenodd" d="M189.191 235.203C189.332 235.41 188.646 235.104 188.373 235.06C187.621 234.938 186.885 234.748 186.147 234.576C184.167 234.113 182.233 233.557 180.308 232.945C174.409 231.069 168.569 228.999 162.804 226.836C150.114 222.074 121.98 209.381 115.052 226.617C114.179 228.79 113.631 231.101 113.433 233.395C113.105 237.191 113.944 240.97 115.531 244.505C123.379 261.986 137.711 260.838 155.177 255.192C167.742 251.131 178.613 245.511 190.027 239.608" fill="black"/>
<path fill-rule="evenodd" clip-rule="evenodd" d="M191.07 253.02C186.783 249.527 184.106 244.581 184.106 239.1C184.106 228.53 194.062 219.949 206.326 219.949C210.482 219.949 214.373 220.934 217.702 222.649C216.824 229.164 212.487 245.742 191.07 253.02Z" fill="black"/>
<path fill-rule="evenodd" clip-rule="evenodd" d="M648.905 343.661C648.905 343.661 659.711 341.524 669.949 335.055C686.231 324.749 690.631 305.41 680.075 290.567C668.315 274.007 643.962 249.249 611.865 267.512C604.746 271.563 590.979 280.579 586.948 322.182C586.948 322.182 587.25 357.937 554.314 361.367C525.196 364.397 500.221 375.141 492.08 384.368C491.437 385.104 491.278 386.074 491.662 386.933C492.047 387.793 492.919 388.418 493.968 388.592C499.011 389.422 506.807 390.704 506.807 390.704C506.807 390.704 503.56 395.062 491.723 402.736C491.723 402.736 482.14 408 483.198 415.477C483.305 416.229 483.784 416.904 484.512 417.327C485.241 417.75 486.147 417.882 486.997 417.687C488.763 417.075 491.504 416.037 495.577 414.237C495.577 414.237 506.219 417.982 517.646 411.982C517.646 411.982 584.844 412.405 626.754 378.676C634.782 372.216 644.145 362.544 648.905 343.661Z" fill="#EAEAEB"/>
<path fill-rule="evenodd" clip-rule="evenodd" d="M530.382 411.406L527.144 408.287C526.583 407.748 526.635 406.915 527.263 406.431C527.888 405.948 528.855 405.995 529.416 406.534L534.142 411.086C532.825 411.209 531.568 411.314 530.382 411.406Z" fill="#FFCF84"/>
<path fill-rule="evenodd" clip-rule="evenodd" d="M495.577 414.237C494.986 414.499 521.174 398.639 521.174 398.639C521.866 398.226 522.814 398.373 523.296 398.97C523.775 399.564 523.604 400.384 522.915 400.799L499.117 415.043C496.901 414.702 495.577 414.237 495.577 414.237ZM517.646 411.982C516.878 412.386 530.041 404.197 530.041 404.197C530.73 403.782 531.681 403.927 532.163 404.521C532.645 405.114 532.477 405.934 531.788 406.352L522.659 411.863C519.454 411.995 517.646 411.982 517.646 411.982ZM503.602 390.179C505.846 387.614 506.542 385.078 506.676 384.497L506.694 384.418L506.7 384.381C506.734 384.221 506.779 384.14 506.786 384.121C506.944 383.79 507.17 383.64 507.276 383.569C507.767 383.249 508.246 383.251 508.655 383.362C508.966 383.446 509.429 383.63 509.649 384.208C509.658 384.234 509.764 384.426 509.71 384.786C509.71 384.799 509.697 384.873 509.667 385.007C509.453 385.935 506.807 390.705 506.807 390.705L503.602 390.179ZM509.688 384.902C509.67 384.967 509.649 385.033 509.618 385.096C509.627 385.078 509.639 385.051 509.655 385.012C509.664 384.983 509.676 384.952 509.685 384.912L509.694 384.87L509.688 384.902Z" fill="#000D6B"/>
<path fill-rule="evenodd" clip-rule="evenodd" d="M569.041 356.784C587.152 346.248 586.948 322.182 586.948 322.182C590.979 280.579 604.745 271.563 611.865 267.512C643.962 249.249 668.315 274.007 680.075 290.567C690.631 305.41 686.231 324.749 669.949 335.055C659.711 341.524 648.905 343.661 648.905 343.661C644.145 362.544 634.782 372.216 626.753 378.676C619.966 384.14 612.511 388.707 604.788 392.528L569.041 356.784Z" fill="#CA2ACD"/>
<path fill-rule="evenodd" clip-rule="evenodd" d="M648.905 343.661C648.905 343.661 650.625 325.012 649.716 311.645C649.649 311.117 650.045 310.627 650.64 310.495C651.237 310.362 651.856 310.628 652.094 311.119C655.238 317.773 659.772 328.811 661.186 339.639C654.36 342.582 648.905 343.661 648.905 343.661Z" fill="#000D6B"/>
<path d="M617.901 254.199C629.677 254.199 639.224 245.97 639.224 235.82C639.224 225.669 629.677 217.44 617.901 217.44C606.124 217.44 596.577 225.669 596.577 235.82C596.577 245.97 606.124 254.199 617.901 254.199Z" fill="#EAEAEB"/>
<path fill-rule="evenodd" clip-rule="evenodd" d="M610.298 218.645C612.658 217.866 615.222 217.44 617.902 217.44C629.671 217.44 639.224 225.675 639.224 235.819C639.224 242.87 634.611 248.998 627.845 252.08L622.829 242.527C623.677 242.51 624.549 242.314 625.363 241.923C627.802 240.754 628.793 238.276 627.577 236.393C626.363 234.51 623.397 233.93 620.957 235.1C620.378 235.378 619.881 235.73 619.472 236.131L610.298 218.645Z" fill="black"/>
<path fill-rule="evenodd" clip-rule="evenodd" d="M700.165 350.596C685.728 345.448 664.997 345.937 629.296 387.992C622.78 395.666 544.874 472.394 532.998 508.715C530.123 517.5 522.427 537.395 521.317 568.315C514.298 569.816 508.325 572.178 505.008 576.749H588.033C590.601 576.749 592.75 575.067 593 572.864C594.378 563.13 601.031 536.491 632.787 508.715C632.787 508.715 680.041 551.758 720.39 565.879C709.413 568.373 703.477 572.21 700.165 576.749H742.193C744.898 576.749 747.386 575.471 748.676 573.421C752.917 566.683 762.485 551.482 766.869 544.515C768.22 542.368 767.784 539.713 765.799 537.971C755.698 529.106 724.677 501.832 700.165 479.784C709.529 454.184 718.761 427.806 727.076 395.969C730.494 382.915 726.238 369.249 715.7 359.422C711.343 355.372 707.187 353.1 700.165 350.596Z" fill="url(#paint1_linear_18_1919)"/>
<path fill-rule="evenodd" clip-rule="evenodd" d="M700.995 477.508C700.717 478.268 700.44 479.025 700.165 479.784C702.126 481.548 704.129 483.345 706.16 485.164L697.366 492.037C696.939 492.368 696.305 492.41 695.826 492.131C695.351 491.855 695.153 491.335 695.351 490.867L700.995 477.508Z" fill="#000D6B"/>
<path fill-rule="evenodd" clip-rule="evenodd" d="M750.92 524.885C751.652 525.529 752.365 526.157 753.06 526.772L715.801 564.165C714.853 563.787 713.898 563.395 712.95 562.993L750.92 524.885ZM522.613 551.647L597.458 556.528C597.117 557.406 596.797 558.265 596.501 559.101L522.314 554.265C522.409 553.379 522.51 552.507 522.613 551.647ZM655.332 362.137C643.398 374.211 621.707 412.731 616.606 449.364C613.204 473.803 617.143 497.435 636.727 511.603C637.102 511.874 637.288 512.268 637.273 512.659C634.394 510.181 632.788 508.715 632.788 508.715C632.12 509.298 631.464 509.881 630.818 510.465C613.865 495.55 610.289 472.696 613.579 449.051C617.591 420.244 631.745 390.308 643.569 372.544C647.719 368.473 651.634 365.033 655.332 362.137Z" fill="#000D6B"/>
<path fill-rule="evenodd" clip-rule="evenodd" d="M403.801 300.72C405.89 303.888 407.186 306.805 407.408 308.628C407.561 309.884 407.161 310.72 406.503 311.077C405.844 311.434 404.798 311.382 403.551 310.719C401.426 309.59 398.365 306.658 395.596 302.864C392.828 299.071 391.087 295.422 390.827 293.282C390.675 292.026 391.071 291.19 391.73 290.833C392.389 290.476 393.437 290.528 394.682 291.191C395.279 291.508 395.944 291.918 396.66 292.498L394.593 292.89C394.041 292.512 393.559 292.261 393.126 292.122C392.919 292.055 392.748 291.984 392.62 292.054C392.492 292.123 392.495 292.284 392.474 292.477C392.431 292.883 392.504 293.405 392.669 294.018C393.221 296.073 394.773 299.029 397.011 302.096C399.249 305.164 401.67 307.651 403.579 308.968C404.149 309.361 404.664 309.645 405.106 309.787C405.317 309.855 405.484 309.926 405.612 309.856C405.74 309.787 405.74 309.625 405.759 309.433C405.804 309.027 405.728 308.505 405.564 307.892C405.106 306.184 403.969 303.884 402.307 301.384C402.758 301.216 403.259 300.983 403.801 300.72Z" fill="black"/>
<path fill-rule="evenodd" clip-rule="evenodd" d="M412.19 313.565C415.312 313.565 417.845 315.748 417.845 318.437C417.845 321.127 415.312 323.31 412.19 323.31C410.55 323.31 409.217 324.459 409.217 325.874C409.217 327.29 410.55 328.438 412.19 328.438C418.594 328.438 423.794 323.957 423.794 318.437C423.794 312.918 418.594 308.437 412.19 308.437C410.55 308.437 409.217 309.586 409.217 311.001C409.217 312.416 410.55 313.565 412.19 313.565Z" fill="black"/>
<path fill-rule="evenodd" clip-rule="evenodd" d="M412.19 323.31C409.07 323.31 406.537 321.127 406.537 318.437C406.537 315.748 409.07 313.565 412.19 313.565C413.833 313.565 415.165 312.416 415.165 311.001C415.165 309.586 413.833 308.437 412.19 308.437C405.786 308.437 400.586 312.918 400.586 318.437C400.586 323.957 405.786 328.438 412.19 328.438C413.833 328.438 415.165 327.29 415.165 325.874C415.165 324.459 413.833 323.31 412.19 323.31Z" fill="black"/>
<path fill-rule="evenodd" clip-rule="evenodd" d="M437.075 349.348L437.978 350.642C438.819 351.856 438.362 353.431 436.956 354.159C435.548 354.887 433.718 354.493 432.874 353.279L414.256 326.517C413.411 325.303 413.872 323.727 415.277 322.999C416.686 322.272 418.516 322.666 419.36 323.88L430.236 339.517L432.953 338.156C433.627 337.818 434.493 338.016 434.886 338.597C435.596 339.653 436.685 341.267 437.383 342.301C437.56 342.564 437.609 342.877 437.517 343.171C437.429 343.464 437.206 343.715 436.901 343.868L434.203 345.219L435.151 346.582L437.917 345.196C438.176 345.067 438.484 345.031 438.77 345.097C439.06 345.163 439.304 345.325 439.456 345.547C439.703 345.913 439.99 346.34 440.234 346.702C440.377 346.913 440.414 347.163 440.344 347.399C440.271 347.635 440.094 347.836 439.847 347.959L437.075 349.348Z" fill="black"/>
<defs>
<linearGradient id="paint0_linear_18_1919" x1="225.749" y1="467.734" x2="131.496" y2="711.026" gradientUnits="userSpaceOnUse">
<stop stop-color="#000D6B"/>
<stop offset="1" stop-color="#000D6B"/>
</linearGradient>
<linearGradient id="paint1_linear_18_1919" x1="637.074" y1="462.549" x2="732.862" y2="359.354" gradientUnits="userSpaceOnUse">
<stop stop-color="#CA2ACD"/>
<stop offset="1" stop-color="#CA2ACD"/>
</linearGradient>
</defs>
</svg>
