<svg width="578" height="475" viewBox="0 0 578 475" fill="none" xmlns="http://www.w3.org/2000/svg">
<path d="M473.525 258.645H313.56V365.072H473.525V258.645Z" fill="#000D6B"/>
<path fill-rule="evenodd" clip-rule="evenodd" d="M359.761 307.458H334.713V352.157H359.761V307.458ZM458.017 309.579H432.969V352.157H458.017V309.579ZM425.266 297.653H400.216V352.157H425.266V297.653ZM392.513 282.39H367.463V352.157H392.513V282.39ZM450.969 302.567H439.692V307.63H450.969V302.567ZM352.394 300.599H341.116V305.66H352.394V300.599ZM418.38 291.124H407.102V296.186H418.38V291.124ZM385.222 275.511H373.947V280.573H385.222V275.511Z" fill="#EAEAEB"/>
<path fill-rule="evenodd" clip-rule="evenodd" d="M406.966 344.09L456.187 300.353C456.89 299.729 458.069 299.699 458.819 300.286C459.565 300.876 459.601 301.862 458.899 302.486L408.146 347.584C407.766 347.921 407.227 348.099 406.678 348.071C406.125 348.044 405.615 347.811 405.29 347.438L370.022 307.258L332.37 349.106C331.751 349.793 330.585 349.932 329.764 349.415C328.942 348.9 328.776 347.923 329.395 347.236L368.551 303.713C368.906 303.319 369.462 303.089 370.05 303.091C370.638 303.094 371.191 303.33 371.54 303.727L406.966 344.09Z" fill="#CA2ACD"/>
<path fill-rule="evenodd" clip-rule="evenodd" d="M382.845 159.063C382.65 158.613 382.544 158.129 382.544 157.624C382.544 155.258 384.88 153.338 387.759 153.338C390.637 153.338 392.974 155.258 392.974 157.624C392.974 159.989 390.637 161.91 387.759 161.91C387.059 161.91 386.393 161.796 385.781 161.591L333.584 211.749C333.918 212.314 334.106 212.949 334.106 213.619C334.106 215.985 331.768 217.905 328.891 217.905C326.012 217.905 323.676 215.985 323.676 213.619C323.676 213.502 323.68 213.386 323.693 213.271L318.721 210.436C317.837 211 316.728 211.336 315.524 211.336C314.94 211.336 314.38 211.257 313.857 211.112L261.126 268.221C261.287 268.635 261.374 269.075 261.374 269.532C261.374 271.897 259.038 273.818 256.159 273.818C253.279 273.818 250.944 271.897 250.944 269.532C250.944 269.301 250.965 269.075 251.007 268.856L218.504 242.084C217.778 242.399 216.951 242.578 216.073 242.578C215.548 242.578 215.041 242.514 214.563 242.394L157.96 314.808C158.422 315.448 158.687 316.194 158.687 316.992C158.687 319.357 156.35 321.278 153.472 321.278C150.593 321.278 148.256 319.357 148.256 316.992C148.256 314.626 150.593 312.705 153.472 312.705C153.827 312.705 154.173 312.734 154.509 312.79L211.336 240.086C211.029 239.54 210.858 238.932 210.858 238.292C210.858 235.926 213.196 234.005 216.073 234.005C218.953 234.005 221.29 235.926 221.29 238.292C221.29 238.648 221.235 238.996 221.136 239.328L253.393 265.898C254.195 265.485 255.143 265.246 256.159 265.246C256.897 265.246 257.599 265.372 258.236 265.599L310.732 208.744C310.459 208.225 310.307 207.652 310.307 207.05C310.307 204.684 312.645 202.764 315.524 202.764C318.402 202.764 320.739 204.684 320.739 207.05C320.739 207.15 320.735 207.249 320.727 207.348L325.739 210.205C326.615 209.658 327.706 209.333 328.891 209.333C329.399 209.333 329.89 209.393 330.353 209.504L382.845 159.063Z" fill="#000D6B"/>
<path d="M278.353 122.612H112.611V225.502H278.353V122.612Z" fill="#EAEAEB"/>
<path fill-rule="evenodd" clip-rule="evenodd" d="M145.866 139.999H134.589V215.48H145.866V139.999ZM168.243 133.262H156.966V215.44H168.243V133.262ZM190.62 150.508H179.343V215.397H190.62V150.508ZM212.997 139.802H201.719V215.349H212.997V139.802ZM235.375 160.793H224.097V215.298H235.375V160.793ZM257.749 176.028H246.472V215.242H257.749V176.028Z" fill="#000D6B"/>
<path fill-rule="evenodd" clip-rule="evenodd" d="M302.175 332.93H279.643V308.301H264.222L290.909 276.497L317.596 308.301H302.175V332.93Z" fill="#000D6B"/>
<path fill-rule="evenodd" clip-rule="evenodd" d="M424.295 127.398H446.827V152.026H462.248L435.561 183.83L408.873 152.026H424.295V127.398Z" fill="#CA2ACD"/>
<path d="M368.199 273.152C388.94 273.152 405.753 259.098 405.753 241.761C405.753 224.423 388.94 210.369 368.199 210.369C347.459 210.369 330.646 224.423 330.646 241.761C330.646 259.098 347.459 273.152 368.199 273.152Z" fill="#EAEAEB"/>
<path fill-rule="evenodd" clip-rule="evenodd" d="M358.641 219.622L357.382 219.971L356.617 218.326L358.814 217.718C359.334 217.574 359.925 217.827 360.136 218.281L361.429 221.062C363.387 220.606 365.358 220.366 367.337 220.342C369.867 220.31 372.416 220.631 374.98 221.302C375.27 221.376 375.514 221.554 375.653 221.786C375.789 222.018 375.806 222.281 375.696 222.507L373.257 227.534C373.072 227.912 372.583 228.099 372.098 227.975C369.58 227.337 367.044 227.226 364.487 227.639L368.797 236.908C378.65 236.082 384.776 238.681 387.3 244.408C388.685 247.515 388.562 250.441 386.942 253.172C385.492 255.735 382.945 257.832 379.274 259.441L381.496 264.22C381.707 264.673 381.458 265.157 380.937 265.301L378.781 265.897L378.017 264.254L379.236 263.917L377.062 259.241C376.868 258.825 377.06 258.377 377.51 258.197C381.173 256.724 383.714 254.777 385.11 252.313C386.484 249.997 386.58 247.527 385.41 244.9C383.139 239.747 377.413 237.785 368.37 238.698C367.893 238.745 367.416 238.494 367.233 238.101L362.19 227.256C362.085 227.029 362.092 226.783 362.208 226.574C362.325 226.368 362.541 226.216 362.807 226.161C365.789 225.516 368.749 225.506 371.682 226.129L373.362 222.667C371.407 222.244 369.464 222.042 367.53 222.068C365.417 222.093 363.322 222.387 361.236 222.946C360.719 223.085 360.134 222.833 359.924 222.381L358.641 219.622ZM376.181 252.79C377.378 252.05 378.138 251.265 378.416 250.404C378.582 249.853 378.622 249.272 378.535 248.666L380.551 248.602C380.663 249.424 380.606 250.209 380.378 250.97C379.922 252.379 378.592 253.699 376.303 254.858C376.051 254.986 375.734 255.006 375.44 254.911C375.149 254.815 374.911 254.615 374.796 254.367L372.093 248.554L373.97 248.035L376.181 252.79ZM355.095 232.376C355.078 231.542 355.22 230.804 355.509 230.163C355.516 230.147 355.526 230.131 355.532 230.115C356.244 228.797 357.373 227.839 358.913 227.24C359.165 227.143 359.467 227.144 359.737 227.244C360.008 227.346 360.225 227.537 360.333 227.769L362.546 232.53L360.669 233.049L358.924 229.296C358.271 229.71 357.765 230.249 357.401 230.913C357.198 231.374 357.11 231.904 357.121 232.501C357.123 232.517 357.122 232.533 357.121 232.549C357.093 233.179 357.274 233.885 357.636 234.664L355.759 235.183C355.279 234.151 355.065 233.215 355.095 232.376Z" fill="#CA2ACD"/>
<path fill-rule="evenodd" clip-rule="evenodd" d="M358.202 238.875C356.796 238.188 355.749 237.147 355.081 235.737L357.024 235.208C357.482 236.175 358.181 236.9 359.146 237.369L359.18 237.386C359.955 237.794 360.989 238 362.286 238.045L360.161 233.558L362.104 233.029L364.768 238.655C364.892 238.916 364.868 239.201 364.705 239.426C364.543 239.649 364.257 239.79 363.935 239.803C361.438 239.901 359.531 239.565 358.202 238.875Z" fill="#CA2ACD"/>
<path fill-rule="evenodd" clip-rule="evenodd" d="M371.876 243.899L373.774 247.914L371.842 248.44L369.461 243.408C369.345 243.162 369.359 242.896 369.498 242.677C369.64 242.459 369.892 242.311 370.19 242.274C373.069 241.921 375.227 242.184 376.666 242.931L376.699 242.951C378.138 243.757 379.191 244.854 379.851 246.249C380.22 247.029 380.453 247.781 380.557 248.501L378.48 248.563C378.399 247.99 378.211 247.394 377.918 246.776C377.444 245.773 376.696 244.982 375.667 244.4C374.765 243.938 373.501 243.792 371.876 243.899Z" fill="#CA2ACD"/>
<path fill-rule="evenodd" clip-rule="evenodd" d="M364.718 245.349C355.333 246.069 349.554 243.533 347.252 238.038C345.821 234.738 345.837 231.841 347.235 229.343C348.515 227.057 350.981 225.093 354.68 223.491L353.376 220.652C353.169 220.201 353.416 219.719 353.927 219.576L355.445 219.152L356.195 220.785L355.605 220.95L356.863 223.69C357.054 224.106 356.862 224.553 356.415 224.732C352.738 226.207 350.266 228.005 349.049 230.178C347.866 232.296 347.909 234.755 349.126 237.564C351.187 242.486 356.579 244.385 365.156 243.578C365.623 243.534 366.09 243.782 366.268 244.169L371.452 255.459C371.558 255.689 371.546 255.939 371.427 256.148C371.305 256.357 371.081 256.504 370.811 256.556C368.403 257.013 366.228 257.105 364.294 256.844C362.623 256.681 361.039 256.342 359.54 255.826L357.199 259.454C359.406 260.047 361.721 260.419 364.14 260.576C366.951 260.735 369.698 260.455 372.385 259.74C372.897 259.604 373.47 259.854 373.675 260.3L375.808 264.945L376.438 264.768L377.188 266.4L375.629 266.836C375.118 266.979 374.536 266.73 374.33 266.28L372.185 261.609C369.563 262.216 366.889 262.44 364.155 262.285C361.088 262.087 358.19 261.562 355.451 260.715C355.164 260.626 354.926 260.431 354.808 260.186C354.688 259.942 354.701 259.672 354.841 259.454L358.177 254.285C358.411 253.918 358.948 253.782 359.421 253.971C360.966 254.585 362.623 254.974 364.387 255.144L364.433 255.149C365.867 255.345 367.448 255.312 369.177 255.059L364.718 245.349Z" fill="#CA2ACD"/>
<path fill-rule="evenodd" clip-rule="evenodd" d="M376.12 277.084C373.331 277.564 370.439 277.817 367.48 277.817C365.026 277.817 363.039 276.153 363.039 274.105C363.039 272.056 365.026 270.392 367.48 270.392C386.129 270.392 401.271 257.735 401.271 242.146C401.271 226.556 386.129 213.899 367.48 213.899C365.026 213.899 363.039 212.235 363.039 210.186C363.039 208.138 365.026 206.474 367.48 206.474C391.031 206.474 410.153 222.458 410.153 242.146C410.153 256.738 399.647 269.295 384.619 274.817L412.459 329.714C413.417 331.6 412.362 333.781 410.106 334.579C407.849 335.38 405.24 334.498 404.282 332.612L376.12 277.084Z" fill="#CA2ACD"/>
<path fill-rule="evenodd" clip-rule="evenodd" d="M367.479 270.391C348.829 270.391 333.688 257.735 333.688 242.145C333.688 226.556 348.829 213.899 367.479 213.899C369.93 213.899 371.92 212.235 371.92 210.187C371.92 208.138 369.93 206.474 367.479 206.474C343.927 206.474 324.806 222.458 324.806 242.145C324.806 261.832 343.927 277.816 367.479 277.816C369.93 277.816 371.92 276.153 371.92 274.104C371.92 272.055 369.93 270.391 367.479 270.391Z" fill="#CA2ACD"/>
<path fill-rule="evenodd" clip-rule="evenodd" d="M427.276 289.179C427.276 289.179 424.886 281.676 425.677 272.109C426.793 258.654 437.093 246.946 452.126 242.046C467.157 237.147 484.222 239.935 495.938 249.206C498.644 251.357 501.111 253.884 503.188 256.856C513.391 271.474 516.7 287.588 508.106 303.509C508.106 303.509 513.644 333.911 505.666 355.826C501.642 366.833 490.222 374.814 476.552 376.179C476.092 376.23 475.628 376.274 475.159 376.32C462.674 377.566 450.428 372.784 443.555 363.984C430.174 346.846 409.592 320.488 409.592 320.488C409.592 320.488 397.945 321.335 393.446 321.662C391.836 321.783 390.396 320.834 390.16 319.498C390.029 318.697 390.329 317.816 391.697 317.068C391.697 317.068 390.251 317.059 389.119 316.829C387.331 316.47 386.615 315.191 386.537 313.822C386.465 312.535 386.92 311.047 389.016 310.175C386.376 310.59 383.817 309.182 383.234 306.992C383.209 306.903 383.187 306.82 383.168 306.741C382.954 305.945 383.09 305.112 383.548 304.393C383.981 303.709 384.728 302.959 386.004 302.507C386.004 302.507 384.761 302.184 383.418 301.836C381.477 301.333 380.153 299.834 380.153 298.135V298.133C380.153 296.627 381.241 295.268 382.91 294.692C386.532 293.437 392.45 291.39 392.45 291.39C392.45 291.39 384.828 283.265 387.997 280.877C388.561 280.453 389.818 280.207 393.515 282.838C394.912 283.831 400.332 285.1 407.191 284.314C407.191 284.314 416.165 284.267 427.276 289.179ZM435.525 201.745C447.186 201.745 456.654 209.659 456.654 219.407C456.654 229.155 447.186 237.069 435.525 237.069C423.862 237.069 414.394 229.155 414.394 219.407C414.394 209.659 423.862 201.745 435.525 201.745Z" fill="#99DDCC"/>
<path fill-rule="evenodd" clip-rule="evenodd" d="M408.876 320.542L413.506 320.106C414.113 320.048 414.663 320.414 414.732 320.925C414.802 321.433 414.363 321.892 413.753 321.95L410.938 322.215L409.592 320.488L408.876 320.542ZM387.103 315.59L400.479 314.558C401.09 314.509 401.631 314.885 401.687 315.396C401.745 315.906 401.295 316.358 400.685 316.405L391.633 317.103C391.653 317.092 391.675 317.08 391.697 317.068C391.697 317.068 390.251 317.059 389.119 316.829C388.161 316.637 387.511 316.182 387.103 315.59ZM384.705 309.136C384.805 309.087 384.919 309.05 385.038 309.026L397.429 306.794C398.026 306.685 398.617 307.006 398.747 307.507C398.875 308.006 398.495 308.5 397.895 308.609L388.877 310.235C388.922 310.214 388.969 310.194 389.016 310.175C387.406 310.428 385.827 310.003 384.705 309.136ZM382.465 301.488L395.683 298.084C396.269 297.933 396.89 298.207 397.071 298.697C397.251 299.186 396.921 299.706 396.335 299.857L385.896 302.546C385.932 302.532 385.968 302.518 386.004 302.507C386.004 302.507 384.761 302.184 383.417 301.836C383.082 301.748 382.762 301.632 382.465 301.488ZM391.109 289.843L395.733 288.244C396.299 288.047 396.949 288.272 397.185 288.745C397.418 289.221 397.149 289.764 396.582 289.959L392.447 291.388C392.411 291.349 391.85 290.748 391.109 289.843Z" fill="#4FC6A8"/>
<path fill-rule="evenodd" clip-rule="evenodd" d="M427.173 288.829C426.721 287.246 424.986 280.464 425.677 272.109C426.793 258.654 437.094 246.946 452.127 242.046C467.157 237.147 484.222 239.935 495.938 249.206C498.644 251.357 501.112 253.884 503.188 256.856C513.391 271.474 516.7 287.588 508.106 303.509C508.106 303.509 513.644 333.911 505.667 355.826C501.642 366.833 490.223 374.814 476.552 376.179C476.092 376.23 475.628 376.274 475.159 376.32C462.674 377.566 450.428 372.784 443.555 363.984L434.393 352.25L465.544 321.818C449.259 300.627 431.523 290.984 427.173 288.829Z" fill="#4FC6A8"/>
<path fill-rule="evenodd" clip-rule="evenodd" d="M465.425 321.665C465.48 321.709 465.533 321.762 465.577 321.818L485.698 347.206C486.037 347.635 485.898 348.211 485.387 348.494C484.876 348.777 484.188 348.658 483.849 348.231L464.062 323.266L465.544 321.818L465.425 321.665ZM508.3 304.683L508.35 305.013L508.289 305.119C508.289 305.119 503.845 284.439 497.47 268.629C497.317 268.302 497.495 267.933 497.872 267.784C498.25 267.634 498.702 267.754 498.91 268.058C502.305 273.569 506.96 281.817 512.12 292.917C512.045 293.247 511.967 293.576 511.884 293.903L511.881 293.915L511.842 294.068L511.839 294.082L511.798 294.237L511.795 294.247C511.712 294.574 511.62 294.901 511.526 295.226L511.523 295.237L511.479 295.386L511.473 295.409L511.431 295.553L511.42 295.581L511.379 295.722L511.37 295.748L511.326 295.894L511.323 295.903C511.256 296.117 511.187 296.33 511.118 296.546L511.112 296.56L511.068 296.697L511.054 296.736L511.012 296.862L510.996 296.91L510.954 297.033L510.937 297.084L510.896 297.205L510.879 297.256L510.835 297.379L510.821 297.421L510.773 297.551C510.754 297.606 510.735 297.662 510.712 297.718L510.66 297.862L510.651 297.885L510.61 298.001L510.588 298.061L510.546 298.168L510.521 298.237L510.482 298.34L510.454 298.414L510.415 298.514L510.385 298.59L510.346 298.69L510.316 298.766L510.277 298.864L510.246 298.943L510.207 299.04L510.168 299.133L510.141 299.207L510.105 299.291L510.068 299.381L510.032 299.469L509.994 299.56L509.957 299.646L509.919 299.736L509.883 299.822L509.844 299.915L509.808 299.998L509.766 300.094L509.73 300.175L509.688 300.275L509.655 300.351L509.602 300.467L509.574 300.527L509.497 300.702L509.469 300.76L509.416 300.878L509.383 300.95L509.336 301.054L509.3 301.131L509.252 301.233L509.216 301.309L509.169 301.412L509.133 301.488L509.083 301.592L509.047 301.664L508.992 301.778L508.961 301.841L508.889 301.987L508.875 302.017L508.786 302.193L508.761 302.247L508.697 302.37L508.664 302.439L508.608 302.548L508.572 302.62L508.517 302.725L508.481 302.799L508.425 302.906L508.386 302.978L508.331 303.087L508.295 303.154L508.231 303.275L508.2 303.33L508.106 303.509L508.123 303.602L508.125 303.632L508.142 303.718L508.148 303.76L508.17 303.883L508.178 303.929L508.203 304.094L508.212 304.142L508.248 304.351L508.253 304.393L508.295 304.658L508.3 304.683ZM437.69 295.147C437.69 295.147 436.633 288.314 435.209 268.232C435.175 267.784 435.544 267.645 435.747 267.608C436.108 267.541 436.383 267.736 436.416 267.907L442.37 298.558C440.724 297.293 439.158 296.159 437.69 295.147Z" fill="#28625E"/>
<path fill-rule="evenodd" clip-rule="evenodd" d="M419.065 208.337C422.94 204.318 428.875 201.745 435.525 201.745C447.186 201.745 456.654 209.659 456.654 219.407C456.654 224.922 453.622 229.851 448.879 233.09L441.504 226.967C442.289 226.92 443.1 226.746 443.885 226.434C446.664 225.328 447.377 222.42 446.309 220.543C445.237 218.667 442.115 218.041 439.339 219.147C437.537 219.864 436.991 221.621 436.652 222.938L419.065 208.337Z" fill="black"/>
<path d="M232.954 257.129C253.695 257.129 270.508 243.074 270.508 225.737C270.508 208.4 253.695 194.346 232.954 194.346C212.214 194.346 195.401 208.4 195.401 225.737C195.401 243.074 212.214 257.129 232.954 257.129Z" fill="#99DDCC"/>
<path fill-rule="evenodd" clip-rule="evenodd" d="M196.353 218.687C196.625 218.585 196.957 218.526 197.358 218.585C198.148 218.702 198.71 219.268 198.733 219.913C198.996 220.303 199.706 221.322 200.552 222.282C202.549 224.551 205.919 227.809 210.585 231.135C212.722 223.491 216.814 217.117 221.338 212.007C214.657 207.698 210.982 203.729 210.235 202.971C209.65 202.377 209.752 201.499 210.46 201.011C211.171 200.522 212.22 200.606 212.806 201.199C213.519 201.922 217.019 205.701 223.387 209.802C232.063 200.908 241.462 196.479 241.462 196.479C242.261 196.102 243.277 196.339 243.729 197.008C244.182 197.678 243.899 198.528 243.097 198.905C243.097 198.905 234.256 203.071 226.059 211.439C232.407 215.128 241.04 218.789 252.015 220.489C253.194 213.796 252.764 207.578 251.934 202.969C251.798 202.209 252.426 201.5 253.333 201.385C254.244 201.271 255.093 201.795 255.229 202.555C256.101 207.395 256.536 213.91 255.298 220.93C259.57 221.415 264.172 221.6 269.105 221.383C269.513 221.365 269.89 221.471 270.193 221.661C270.298 222.336 270.376 223.018 270.431 223.705C270.145 223.97 269.74 224.144 269.279 224.164C264.083 224.392 259.234 224.195 254.729 223.679C253.117 230.47 249.841 237.579 243.829 243.997C249.875 244.731 256.486 244.775 263.642 243.823C262.709 244.928 261.691 245.981 260.6 246.974C253.652 247.61 247.221 247.357 241.323 246.482C237.29 250.199 232.23 253.622 225.912 256.534C225.89 256.545 225.865 256.554 225.84 256.564C225.157 256.455 224.483 256.329 223.814 256.19C223.753 256.128 223.697 256.06 223.65 255.986C223.206 255.313 223.5 254.466 224.305 254.095C229.576 251.663 233.92 248.856 237.484 245.812C227.597 243.826 219.356 240.129 212.87 236.165C212.142 240.674 212.145 245.594 213.167 250.926C213.255 251.394 213.053 251.847 212.67 252.153C211.643 251.601 210.652 251.009 209.697 250.378C208.698 244.51 208.864 239.122 209.847 234.219C201.974 228.878 197.244 223.481 195.915 221.448C195.868 221.376 195.824 221.307 195.784 221.24C195.933 220.377 196.123 219.525 196.353 218.687ZM224.005 213.646C219.467 218.78 215.387 225.261 213.486 233.096C220.219 237.411 229.132 241.536 240.063 243.44C246.413 237.134 249.808 230.026 251.443 223.238C239.818 221.447 230.692 217.555 224.005 213.646ZM197.344 221.329C197.266 221.34 197.187 221.347 197.107 221.348C197.027 221.35 196.946 221.346 196.864 221.338C197.038 221.357 197.198 221.352 197.344 221.329Z" fill="#4FC6A8"/>
<path fill-rule="evenodd" clip-rule="evenodd" d="M104.766 285.031C104.766 285.031 49.5769 248.529 87.9122 205.295C91.9925 200.693 116.751 173.873 151.935 155.695C153.308 154.983 155.077 155.101 156.298 155.987C157.077 156.565 157.583 157.449 157.081 158.805C157.081 158.805 162.526 157.813 162.151 162.186C162.151 162.186 168.527 160.757 168.748 166.247C168.748 166.247 179.289 155.45 183.882 150.745C185.085 149.513 187.189 149.206 188.821 150.025C188.821 150.025 188.821 150.025 188.822 150.025C189.562 150.397 190.095 151 190.304 151.701C190.512 152.401 190.379 153.143 189.933 153.761C170.338 180.889 149.508 205.778 128.616 230.554C128.616 230.554 145.85 245.127 154.73 250.373C158.337 252.501 194.372 271.323 199.583 281.629C199.583 281.629 200.023 279.267 200.523 276.578C201.39 271.914 205.503 268.137 210.971 266.972C214.679 266.183 218.121 265.45 218.121 265.45C218.121 265.45 224.272 264.573 229.51 264.608C232.94 264.629 235.971 266.473 237.054 269.193C237.551 270.448 237.343 271.824 236.482 272.933C235.996 273.562 235.566 274.114 235.566 274.114C235.566 274.114 236.801 274.464 237.948 274.789C239.169 275.135 240.154 275.898 240.662 276.889C241.65 278.819 241.226 281.054 239.569 282.634C239.052 283.128 238.669 283.492 238.669 283.492H239.044C240.998 283.492 242.755 284.485 243.485 286.003C244.487 288.086 243.677 290.472 241.517 291.806C240.981 292.135 240.61 292.367 240.61 292.367C241.287 292.175 241.92 292.564 242.364 293.458C243.244 295.223 242.436 297.263 240.521 298.309C237.534 299.94 233.593 302.094 233.593 302.094C232.707 317.321 230.506 333.746 220.167 353.322C217.047 359.208 210.91 363.596 203.471 365.26C203.466 365.264 203.46 365.264 203.454 365.267C187.883 368.747 171.564 362.41 164.704 350.22C161.41 344.361 157.892 337.141 154.73 328.637C154.73 328.637 141.64 330.066 128.616 324.553C112.969 317.932 97.417 302.92 104.766 285.031Z" fill="#99DDCC"/>
<path fill-rule="evenodd" clip-rule="evenodd" d="M81.2314 260.165C82.8752 255.947 88.6125 246.473 106.832 247.364C106.832 247.364 113.294 231.613 133.726 234.782C139.522 239.506 148.916 246.939 154.73 250.373C158.336 252.501 194.372 271.323 199.583 281.629L199.643 281.307C203.006 289.557 209.114 307.265 206.044 326.428C206.044 326.428 193.946 333.192 182.179 324.695C182.179 324.695 171.04 337.048 154.93 329.171C154.863 328.992 154.797 328.816 154.73 328.637C154.73 328.637 141.64 330.066 128.616 324.553C112.969 317.932 97.4169 302.92 104.766 285.031C104.766 285.031 90.1966 275.395 81.2314 260.165ZM157.824 246.267L162.565 248.733C160.855 248.081 159.263 247.25 157.824 246.267Z" fill="#000D6B"/>
<path fill-rule="evenodd" clip-rule="evenodd" d="M204.387 321.971L201.697 347.364C201.643 347.874 202.095 348.327 202.705 348.371C203.316 348.417 203.854 348.039 203.909 347.528L206.596 322.136C206.652 321.625 206.199 321.173 205.589 321.129C204.978 321.082 204.44 321.461 204.387 321.971Z" fill="#000D6B"/>
<path fill-rule="evenodd" clip-rule="evenodd" d="M146.742 328.674C145.796 319.384 148.323 311.829 150.013 307.978C150.148 307.709 150.491 307.56 150.831 307.618C151.172 307.676 151.417 307.927 151.416 308.217C151.743 315.769 154.122 325.943 154.889 329.059C154.836 328.918 154.783 328.779 154.73 328.637C154.73 328.637 151.54 328.985 146.742 328.674ZM97.0728 278.947C101.091 274.78 105.063 271.627 108.76 269.239C114.455 265.562 119.498 263.701 123.054 262.749C123.466 262.673 123.885 262.854 124.049 263.176C124.214 263.501 124.078 263.877 123.726 264.072C112.968 270.225 106.832 280.882 104.756 285.024C104.552 284.887 101.34 282.731 97.0728 278.947Z" fill="#CA2ACD"/>
<path fill-rule="evenodd" clip-rule="evenodd" d="M240.632 292.36C241.303 292.184 241.925 292.576 242.364 293.458C242.389 293.506 242.411 293.555 242.433 293.604C240.382 294.676 235.921 296.792 231.847 297.263C231.239 297.333 230.678 296.978 230.595 296.472C230.509 295.964 230.933 295.495 231.541 295.425C234.917 295.036 238.569 293.404 240.632 292.36ZM238.672 283.492H239.044C239.949 283.492 240.812 283.706 241.55 284.086C240.326 284.833 235.449 287.673 230.339 288.69C229.743 288.808 229.146 288.499 229.002 288.001C228.86 287.504 229.229 287.003 229.826 286.885C233.315 286.188 236.685 284.574 238.672 283.492ZM235.58 274.119L237.789 274.745C235.755 276.942 231.938 280.209 226.623 281.1C226.023 281.202 225.438 280.875 225.315 280.374C225.196 279.87 225.585 279.381 226.187 279.281C230.509 278.555 233.701 276.04 235.58 274.119Z" fill="#000D6B"/>
<path fill-rule="evenodd" clip-rule="evenodd" d="M220.725 268C220.725 268 216.936 268.699 212.942 268.223C212.334 268.151 211.773 268.506 211.684 269.012C211.598 269.52 212.023 269.989 212.628 270.06C217.028 270.585 221.202 269.815 221.202 269.815C221.799 269.703 222.179 269.207 222.046 268.708C221.916 268.207 221.322 267.891 220.725 268Z" fill="#000D6B"/>
<path fill-rule="evenodd" clip-rule="evenodd" d="M168.135 163.958C168.483 164.539 168.709 165.287 168.748 166.247L170.424 164.531C170.391 164.58 170.353 164.628 170.308 164.673L166.154 168.878C165.764 169.273 165.063 169.329 164.591 169.003C164.118 168.676 164.051 168.091 164.442 167.696L168.135 163.958ZM161.589 159.899C162.002 160.417 162.239 161.149 162.151 162.182L159.575 164.647C159.172 165.033 158.47 165.073 158.009 164.736C157.547 164.399 157.5 163.812 157.903 163.426L161.589 159.899ZM156.811 156.47C157.264 157.027 157.46 157.782 157.081 158.805H157.081C155.691 159.901 154.088 161.172 154.088 161.172C153.643 161.524 152.94 161.509 152.518 161.137C152.097 160.765 152.115 160.177 152.56 159.825C152.56 159.825 155.399 157.575 156.811 156.47Z" fill="#000D6B"/>
<path fill-rule="evenodd" clip-rule="evenodd" d="M128.616 230.554C128.616 230.554 121.288 224.506 116.949 220.924C116.651 220.678 116.605 220.293 116.84 220.005C117.075 219.716 117.525 219.604 117.916 219.737C123.643 221.685 133.36 224.99 133.36 224.99L128.616 230.554Z" fill="#000D6B"/>
<path fill-rule="evenodd" clip-rule="evenodd" d="M216.648 269.878L218.779 259.817C216.288 259.159 213.863 258.27 211.537 257.136C209.611 256.198 209.079 254.015 210.35 252.265C211.622 250.515 214.219 249.858 216.141 250.795C230.791 257.934 250.539 252.917 260.213 239.602C269.884 226.287 265.844 209.683 251.194 202.545C249.268 201.607 248.736 199.425 250.009 197.675C251.28 195.925 253.876 195.266 255.801 196.204C274.302 205.217 279.404 226.187 267.189 243.001C258.135 255.466 242.092 262.17 226.861 261.135L225.474 267.68C223.543 268.522 220.356 269.64 216.648 269.878Z" fill="#CA2ACD"/>
<path fill-rule="evenodd" clip-rule="evenodd" d="M213.73 250.391C198.573 243.025 194.399 225.897 204.413 212.165C214.428 198.433 234.864 193.263 250.02 200.629C252.012 201.597 254.698 200.917 256.014 199.112C257.331 197.308 256.782 195.056 254.79 194.089C235.649 184.787 209.842 191.315 197.195 208.657C184.548 225.998 189.82 247.63 208.96 256.931C210.952 257.899 213.638 257.219 214.955 255.415C216.271 253.61 215.722 251.359 213.73 250.391Z" fill="#CA2ACD"/>
<path d="M171.614 250.372C183.672 250.372 193.447 242.201 193.447 232.121C193.447 222.042 183.672 213.871 171.614 213.871C159.556 213.871 149.781 222.042 149.781 232.121C149.781 242.201 159.556 250.372 171.614 250.372Z" fill="#CA2ACD"/>
<path fill-rule="evenodd" clip-rule="evenodd" d="M164.022 239.33C160.084 239.898 155.893 239.979 151.545 239.316C150.41 237.109 149.781 234.676 149.781 232.121C149.781 222.049 159.564 213.871 171.614 213.871C181.219 213.871 189.384 219.067 192.301 226.275C191.386 229.707 184.516 236.562 170.404 237.959C170.86 236.983 170.898 235.797 170.406 234.643C169.442 232.38 166.805 231.094 164.522 231.773C162.238 232.453 161.167 234.843 162.131 237.106C162.527 238.035 163.204 238.799 164.022 239.33Z" fill="black"/>
<path d="M179.141 212.59C187.365 212.59 194.031 207.017 194.031 200.143C194.031 193.269 187.365 187.696 179.141 187.696C170.918 187.696 164.251 193.269 164.251 200.143C164.251 207.017 170.918 212.59 179.141 212.59Z" fill="black"/>
<path fill-rule="evenodd" clip-rule="evenodd" d="M337.078 160.629C329.042 173.356 313.046 182.035 294.643 182.035C268.169 182.035 246.671 164.067 246.671 141.934C246.671 128.466 254.632 116.539 266.839 109.275L294.643 141.934L337.078 160.629Z" fill="#000D6B"/>
<path fill-rule="evenodd" clip-rule="evenodd" d="M294.644 141.934L266.84 109.275C273.801 105.115 282.153 102.481 291.196 101.947L294.644 141.934Z" fill="#CA2ACD"/>
<path fill-rule="evenodd" clip-rule="evenodd" d="M292.445 101.879L294.644 101.833C308.131 101.833 320.327 106.495 329.04 114.004L294.644 141.934L291.196 101.947L291.846 101.906L292.445 101.879Z" fill="#99DDCC"/>
<path fill-rule="evenodd" clip-rule="evenodd" d="M342.005 111.654C350.41 118.87 355.584 128.726 355.584 139.585C355.584 146.335 353.582 152.698 350.043 158.279L307.609 139.585L342.005 111.654Z" fill="#EAEAEB"/>
</svg>
